<?xml version="1.0" standalone="no"?>
  <!DOCTYPE svg PUBLIC "-//W3C//DTD SVG 1.1//EN" "http://www.w3.org/Graphics/SVG/1.1/DTD/svg11.dtd" >
  <svg>
  <metadata>
  Created by font-carrier
  </metadata>
  <defs>
  <font id="iconfont" horiz-adv-x="1024" vert-adv-y="1024" >
    <font-face
      
      font-family="iconfont"
      
      font-weight="400"
      
      font-stretch="normal"
      
      units-per-em="1024"
      
      ascent="812"
      
      descent="-212"
      
    />
      <missing-glyph />

      
      <glyph glyph-name="x" unicode="&#x78;" horiz-adv-x="100"
        d="M20 20 L50 20 L50 -20 Z" />
      

      
      <glyph glyph-name="bukexian" unicode="&#xE005;" d="M-85.3333 1012.1351H938.6667V-11.8649H-85.3333ZM512.9671 2.7556H511.0898A450.6169 450.6169 0 0 0 256.4551 81.2053 451.2996 451.2996 0 0 0 89.9413 289.1911L85.4471 300.1707 89.9413 310.6951A449.4222 449.4222 0 0 0 283.3636 535.3493L326.2009 492.4551A397.5964 397.5964 0 0 1 148.48 300.1707 395.5484 395.5484 0 0 1 512.1707 60.5547 392.8747 392.8747 0 0 1 668.2738 92.8107 392.5333 392.5333 0 0 1 706.7876 111.8684L749.3404 69.3724A452.2667 452.2667 0 0 0 512.9671 2.7556ZM818.2898 121.2551H818.2898L776.9884 162.6133A400.3271 400.3271 0 0 1 875.52 300.2276 396.1173 396.1173 0 0 1 511.7724 539.1609 393.2729 393.2729 0 0 1 413.2409 526.5884L366.4782 573.408A454.144 454.144 0 0 0 512.2844 597.472 452.4373 452.4373 0 0 0 679.9929 565.2729 455.9076 455.9076 0 0 0 934.0587 310.9796L938.7804 300.4551 934.0587 289.4756A456.4764 456.4764 0 0 0 818.4036 121.5396ZM512.2276 159.9964A144.384 144.384 0 0 0 470.0729 166.2542 144.7822 144.7822 0 0 0 383.8862 236.7964 144.4978 144.4978 0 0 0 372.9067 347.5591 72.1351 72.1351 0 0 1 409.8844 310.5244 72.8747 72.8747 0 0 1 439.5236 304.2098 73.4436 73.4436 0 0 1 492.1458 326.5671L615.5947 203.0613A146.7164 146.7164 0 0 0 512.2276 159.9964ZM656.0427 283.3316H656.0427L490.3822 449.0489A143.4738 143.4738 0 0 0 512.1138 450.9831 143.5876 143.5876 0 0 0 554.2684 444.896 146.0907 146.0907 0 0 0 656.1564 283.3884ZM828.3591-60.96L145.6924 621.7067 195.9822 671.9964 878.6489-10.6702Z"  horiz-adv-x="1024" vert-adv-y="1024"  />

      
      <glyph glyph-name="kexian" unicode="&#xE007;" d="M-85.3333 1012.1351H938.6667V-11.8649H-85.3333ZM512 2.8124A452.9493 452.9493 0 0 0 89.9982 289.1911L85.3333 300.5689 89.9982 311.0933A454.2009 454.2009 0 0 0 934.0018 311.0933L938.6667 300.5689 934.0018 289.1911A452.9493 452.9493 0 0 0 512 2.8124ZM148.6507 300.2844A395.7191 395.7191 0 0 1 875.7476 300.2844 396.288 396.288 0 0 1 148.6507 300.2844ZM512 451.04A144.7822 144.7822 0 0 1 469.3333 444.0427 73.1022 73.1022 0 1 0 372.6222 347.3316 145.6356 145.6356 0 1 1 511.7156 450.7556Z"  horiz-adv-x="1024" vert-adv-y="1024"  />

      
      <glyph glyph-name="dingwei" unicode="&#xE00A;" d="M0 812H1024V-212H0ZM512 612.8889A312.8889 312.8889 0 1 1 512-12.8889 312.8889 312.8889 0 1 1 512 612.8889ZM81.8062 331.9716H224.0284V267.9716H81.8062ZM800.0284 331.9716H942.2507V267.9716H800.0284ZM544.0284 730.1938L544.0284 587.9716 480.0284 587.9716 480.0284 730.1938ZM544.0284 11.9716L544.0284-130.2507 480.0284-130.2507 480.0284 11.9716ZM512 413.7778A113.7778 113.7778 0 1 1 512 186.2222 113.7778 113.7778 0 1 1 512 413.7778Z"  horiz-adv-x="1024" vert-adv-y="1024"  />

      
      <glyph glyph-name="shejiqueren_weiqueren" unicode="&#xE00B;" d="M512 812A512 512 0 1 1 512-212 512 512 0 1 1 512 812ZM387.5413 530.4H346.496A58.496 58.496 0 0 1 288 471.904V102.5387A58.496 58.496 0 0 1 346.496 44H677.4613A58.5387 58.5387 0 0 1 735.9573 102.496V471.904A58.5387 58.5387 0 0 1 677.504 530.4H636.4587C636.4587 502.9227 619.392 479.2 599.3813 479.2H425.6427C404.5227 479.2 387.5413 502.9227 387.5413 530.4ZM479.7013 233.9947L592.8533 346.9333A22.8693 22.8693 0 1 0 626.0907 315.5733L625.152 314.6347 479.7013 169.1413 398.6347 250.208A22.8693 22.8693 0 0 0 430.9333 282.5493ZM564.2667 503.0507A26.8373 26.8373 0 0 1 563.5413 556H460.16A26.752 26.752 0 0 1 460.16 503.0507Z"  horiz-adv-x="1024" vert-adv-y="1024"  />

      
      <glyph glyph-name="shejiqueren_siqueren" unicode="&#xE00C;" d="M512 812A512 512 0 1 1 512-212 512 512 0 1 1 512 812ZM387.5413 530.4H346.496A58.496 58.496 0 0 1 288 471.904V102.5387A58.496 58.496 0 0 1 346.496 44H677.4613A58.5387 58.5387 0 0 1 735.9573 102.496V471.904A58.5387 58.5387 0 0 1 677.504 530.4H636.4587C636.4587 502.9227 619.392 479.2 599.3813 479.2H425.6427C404.5227 479.2 387.5413 502.9227 387.5413 530.4ZM479.7013 233.9947L592.8533 346.9333A22.8693 22.8693 0 1 0 626.0907 315.5733L625.152 314.6347 479.7013 169.1413 398.6347 250.208A22.8693 22.8693 0 0 0 430.9333 282.5493ZM564.2667 503.0507A26.8373 26.8373 0 0 1 563.5413 556H460.16A26.752 26.752 0 0 1 460.16 503.0507Z"  horiz-adv-x="1024" vert-adv-y="1024"  />

      
      <glyph glyph-name="icon_guanbi" unicode="&#xE00D;" d="M512 299.8683L46.6053-165.5264 512 300 46.6053 765.3947 512 300 570.1908 358.1908 744.3682 532.6315 977.3947 765.3947 512 300 570.1908 241.8092 744.3682 67.6318 977.3947-165.5264Z"  horiz-adv-x="1024" vert-adv-y="1024"  />

      
      <glyph glyph-name="ceju" unicode="&#xE00F;" d="M23879.808-5583.392H24903.808V-6607.392H23879.808ZM448 716H448A416 416 0 0 0 864 300V-84A32 32 0 0 0 832-116H448A416 416 0 0 0 32 300V300A416 416 0 0 0 448 716ZM288 460M448 460L448 460Q608 460 608 300L608 300Q608 140 448 140L448 140Q288 140 288 300L288 300Q288 460 448 460ZM896-20H992V-84H896ZM960 108H1024V-84H960ZM448-20H512V-84H448ZM576-4H640V-100H576ZM704-20H768V-84H704Z"  horiz-adv-x="1024" vert-adv-y="1024"  />

      
      <glyph glyph-name="jianjudiaozheng" unicode="&#xE010;" d="M16020.16-1818.4H17044.16V-2842.4H16020.16ZM576 683.936H896V427.936H576ZM576 171.936H896V-84.064H576ZM96 715.936H480V651.936H96ZM18970.624 13945.632L18970.624 13433.632 18906.624 13433.632 18906.624 13945.632ZM96-52.064H480V-116.064H96ZM288 651.936L448 459.936H128ZM32328.256-5312.992L32168.256-5120.992H32488.256Z"  horiz-adv-x="1024" vert-adv-y="1024"  />

      
      <glyph glyph-name="xuanzhuan" unicode="&#xE013;" d="M365.7143 189.4811H364.9097V300L73.1429 117.1429 364.9097-65.7143V37.4171H365.7143ZM622.5189 519.4286V518.6971H512L694.8571 226.8571 877.7143 518.6971H774.5829V519.4286ZM866.1577 435.8994C941.568 399.84 987.4286 352.224 987.4286 300 987.4286 187.5063 774.5829 96.224 512 96.224A1029.4126 1029.4126 0 0 0 309.3943 115.6069M105.8377 194.016A136.3383 136.3383 0 0 0 36.5714 300C36.5714 402.4 213.9429 487.6846 444.5623 501.728M344.576 570.9943C381.1474 694.5326 442.6606 775.4286 512 775.4286 613.888 775.4286 698.2949 600.9829 713.3623 373.1429M678.8389 27.0309C642.2674-95.4103 580.9737-175.4286 512-175.4286 466.5051-175.4286 424.2286-140.6857 390.656-81.952"  horiz-adv-x="1024" vert-adv-y="1024"  />

      
      <glyph glyph-name="huizhixianluo" unicode="&#xE016;" d="M0 812H1024V-212H0ZM114.9074 328.416H968.192V271.5109H114.9074ZM911.2869 527.6206H683.8857A311.6983 311.6983 0 0 0 525.2754 589.0971 262.9486 262.9486 0 0 1 399.36 641.3943H58.0023V698.2994H399.2869A307.2 307.2 0 0 0 555.008 637.6274 266.496 266.496 0 0 1 683.7029 584.5257H911.2869ZM399.2869-98.1897H58.0023V-41.2846H399.2869A264.192 264.192 0 0 1 525.2023 10.9029 310.6011 310.6011 0 0 0 683.8857 72.5257H911.4697V15.6206H683.8857A266.9714 266.9714 0 0 1 555.1543-37.4811 306.0663 306.0663 0 0 0 399.4697-98.1897M683.8857 641.2846H740.7909V470.5691H683.8857ZM797.5863 641.2846H854.4914V470.5691H797.5863ZM285.5863 385.2846H342.4914V214.5691H285.5863ZM399.3966 385.2846H456.3017V214.5691H399.3966ZM683.8857 129.2846H740.7909V-41.4309H683.8857ZM797.5863 129.2846H854.4914V-41.4309H797.5863Z"  horiz-adv-x="1024" vert-adv-y="1024"  />

      
      <glyph glyph-name="huizhidianlantongdao" unicode="&#xE020;" d="M0 812H1024V-212H0ZM512 499.168A227.584 227.584 0 0 0 739.584 271.584V100.8686H284.416V271.584A227.584 227.584 0 0 0 512 499.168ZM512 726.6789A398.2629 398.2629 0 0 1 113.8103 328.4526V-126.6423H910.2263V328.4526A398.2629 398.2629 0 0 1 512 726.6789M853.3211-69.7371H170.7154V328.4526A341.2846 341.2846 0 1 0 853.3211 328.4526ZM512 499.168A227.584 227.584 0 0 1 284.416 271.584V44H739.5109V271.584A227.4743 227.4743 0 0 1 512 499.168M682.7154 100.8686H341.3211V271.584A170.6789 170.6789 0 0 0 682.7154 271.584ZM341.3211 157.7737H682.6057L910.2263-126.6423H113.8103L341.3211 157.7737"  horiz-adv-x="1024" vert-adv-y="1024"  />

      
      <glyph glyph-name="chexiao" unicode="&#xE035;" d="M7040-1844H8064V-2868H7040ZM608-84H288V-20H608A256 256 0 0 1 608 492H288V556H608A320 320 0 0 0 608-84ZM352 460.768H351.296V364L96 524 351.296 684V593.76H352Z"  horiz-adv-x="1024" vert-adv-y="1024"  />

      
      <glyph glyph-name="zhankai" unicode="&#xE03A;" d="M0 812H1024V-212H0ZM946.4096 95.2L511.9632 529.6464 77.5168 95.2"  horiz-adv-x="1024" vert-adv-y="1024"  />

      
      <glyph glyph-name="touxiang" unicode="&#xE03B;" d="M512 812A512 512 0 1 1 512-212 512 512 0 1 1 512 812ZM512 812A512 512 0 1 1 512-212 512 512 0 1 1 512 812ZM511.744 243.04A184.896 184.896 0 1 1 323.84 427.872 186.432 186.432 0 0 1 511.744 243.04ZM611.84 180.832H412.096A307.2 307.2 0 0 1 102.656-123.616V-143.2C102.656-211.872 241.152-212 412.096-212H611.84C782.72-212 921.28-209.504 921.28-143.2V-123.616A307.2 307.2 0 0 1 611.84 180.832ZM512-87.968L461.568-3.488 512.064 147.36 562.56-3.488Z"  horiz-adv-x="1024" vert-adv-y="1024"  />

      
      <glyph glyph-name="zu1559" unicode="&#xE03C;" d="M3072 812H3584V-212H3072ZM0 812H512V-212H0ZM4096 812H4608V-212H4096ZM1024 812H1536V-212H1024ZM5120 812H5632V-212H5120ZM2048 812H2560V-212H2048ZM6144 812H6656V-212H6144ZM10240 812H10752V-212H10240ZM7168 812H7680V-212H7168ZM11264 812H11776V-212H11264ZM8192 812H8704V-212H8192ZM12288 812H12800V-212H12288ZM9216 812H9728V-212H9216ZM13312 812H13824V-212H13312Z"  horiz-adv-x="13824" vert-adv-y="1024"  />

      
      <glyph glyph-name="shejiduanyingyongtubiao" unicode="&#xE03D;" d=""  horiz-adv-x="1024" vert-adv-y="1024"  />

      
      <glyph glyph-name="icon_guanbi-2" unicode="&#xE03E;" d="M512 299.8683L46.6053-165.5264 512 300 46.6053 765.3947 512 300 570.1908 358.1908 744.3682 532.6315 977.3947 765.3947 512 300 570.1908 241.8092 744.3682 67.6318 977.3947-165.5264Z"  horiz-adv-x="1024" vert-adv-y="1024"  />

      
      <glyph glyph-name="shanxuanxuankuang_weixuan" unicode="&#xE040;" d="M0 812H1024V-212H0ZM512 775.4286A475.4286 475.4286 0 1 1 512-175.4286 475.4286 475.4286 0 1 1 512 775.4286Z"  horiz-adv-x="1024" vert-adv-y="1024"  />

      
      <glyph glyph-name="shouqitubiao" unicode="&#xE041;" d="M640 300L0-212 0 812Z"  horiz-adv-x="640" vert-adv-y="1024"  />

      
      <glyph glyph-name="juxing1" unicode="&#xE042;" d="M0 300.0905L511.9868 812.0773 1023.9736 300.0905 511.9868-211.8963Z"  horiz-adv-x="1024" vert-adv-y="1024"  />

      
      <glyph glyph-name="shouqiBqu" unicode="&#xE044;" d="M121.2273 809.5524L18.4727 589.6807A166.2545 166.2545 0 0 1 5.7727 522.2668V85.0058A167.1782 167.1782 0 0 1 18.1495 18.1692L121.2273-206.4476ZM46.5921 347.7403L87.4114 306.921 46.5921 266.1017"  horiz-adv-x="127" vert-adv-y="1024"  />

      
      <glyph glyph-name="zhankaiBqu" unicode="&#xE045;" d="M121.2273 809.5524L18.4727 589.6807A166.2545 166.2545 0 0 1 5.7727 522.2668V85.0058A167.1782 167.1782 0 0 1 18.1495 18.1692L121.2273-206.4476ZM81.2338 347.7465L40.4145 306.9272 81.2338 266.1078"  horiz-adv-x="127" vert-adv-y="1024"  />

      
      <glyph glyph-name="jiazaizhong" unicode="&#xE046;" d="M512 812A76.8 76.8 0 1 1 512 658.4 76.8 76.8 0 1 1 512 812ZM76.8 376.8A76.8 76.8 0 1 1 76.8 223.2 76.8 76.8 0 1 1 76.8 376.8ZM512-58.4A76.8 76.8 0 1 1 512-212 76.8 76.8 0 1 1 512-58.4ZM947.2 376.8A76.8 76.8 0 1 1 947.2 223.2 76.8 76.8 0 1 1 947.2 376.8ZM819.7376 684.5376A76.8 76.8 0 1 1 819.7376 530.9376 76.8 76.8 0 1 1 819.7376 684.5376ZM204.2624 684.5376A76.8 76.8 0 1 1 204.2624 530.9376 76.8 76.8 0 1 1 204.2624 684.5376ZM204.2624 69.088A76.8 76.8 0 1 1 204.2624-84.512 76.8 76.8 0 1 1 204.2624 69.088ZM819.7376 69.088A76.8 76.8 0 1 1 819.7376-84.512 76.8 76.8 0 1 1 819.7376 69.088Z"  horiz-adv-x="1024" vert-adv-y="1024"  />

      
      <glyph glyph-name="xiangxiazhankai" unicode="&#xE047;" d="M819-211.75L0 812 1638 812Z"  horiz-adv-x="1638" vert-adv-y="1024"  />

      
      <glyph glyph-name="zanmoshuju" unicode="&#xE04C;" d="M0 812H1396V-211.7333H0ZM223.2483 639.929L510.2938 724.6197V-10.8582L223.2483-95.521ZM223.2762 639.9756L83.1085 727.1139V-8.3734L223.2762-95.5117ZM223.2297 639.5568L510.3125 724.6476 370.1075 811.9907 83.062 726.9557ZM989.4197 622.5535L1269.7271 705.206V-12.8685L989.4197-95.5303ZM989.4103 622.5628L852.6023 707.6443V-10.4487L989.4103-95.5303ZM989.4197 622.1533L1269.7271 705.206 1132.8168 790.5295 852.5093 707.4861ZM436.6595 422.0879L678.5211 493.7492V-128.8109L436.6595-200.4816ZM436.6688 422.0972L318.6044 495.8153V-126.7169L436.6688-200.435ZM436.6688 422.0879L678.5305 493.7492 560.4009 567.365 318.5393 495.7036ZM1396-204.0088H0A402.8111 402.8111 0 0 0 81.9824-39.6903 584.5331 584.5331 0 0 0 236.8081 92.1573 810.1546 810.1546 0 0 0 447.7344 179.8261 1000.0572 1000.0572 0 0 0 948.2749 179.8261 810.1453 810.1453 0 0 0 1159.1919 92.1479 584.5331 584.5331 0 0 0 1314.0176-39.6996 402.8205 402.8205 0 0 0 1396-204.0088ZM593.4582 517.0066V131.9433L966.9068-47.4614V342.2739ZM587.3251 510.706V125.6426L960.7737-53.762V335.9733ZM581.099 504.5729V119.5095L954.5476-59.8951V329.8402ZM574.9659 498.4398V113.3765L948.4145-66.0282V323.7071ZM568.8328 498.4398V113.3765L942.2814-66.0282V323.7071ZM562.6159 498.4398V113.3765L936.0645-66.0282V323.7071ZM556.4735 498.4398V113.3765L929.9221-66.0282V323.7071ZM550.1729 498.4398V113.3765L923.6215-66.0282V323.7071ZM296.8575-150.677S416.1087-146.4367 603.4313-93.9558 762.6276 27.1303 762.6276 27.1303 703.7339 101.3024 592.5581 60.2731 398.6061-25.2516 466.7885-72.7708 809.4834-72.6747 944.7966 5.7051 1094.2558 116.5082 1094.2558 116.5082M549.5587 497.0717S559.5447 351.9808 510.0426 263.7536C460.5311 175.7683 351.4756 144.1536 351.4756 144.1536L639.9822-24.4646S770.2756-38.1919 831.7647 71.1149C893.0957 180.1797 922.9701 322.3297 922.9701 322.3297ZM537.9067 526.7134L611.8575 540.1895 976.3624 373.0418 911.3553 352.2134ZM498.3627 176.3919A55.6539 55.6539 0 0 1 514.2957 182.767 41.4705 41.4705 0 0 1 525.6964 193.0601L753.0769 89.6351A61.1169 61.1169 0 0 0 739.8428 78.1135 90.5073 90.5073 0 0 0 722.1601 71.4965ZM535.4311 225.8103A55.6539 55.6539 0 0 1 551.3642 232.1854 41.4705 41.4705 0 0 1 562.7648 242.4785L790.1453 139.0535A61.1169 61.1169 0 0 0 776.9112 127.5319 90.5073 90.5073 0 0 0 759.2286 120.9149ZM572.4903 279.6587A55.6539 55.6539 0 0 1 588.4233 286.0337 41.4705 41.4705 0 0 1 599.824 296.3269L827.2045 192.9019A61.1169 61.1169 0 0 0 813.9704 181.3803 90.5073 90.5073 0 0 0 796.2877 174.7632ZM597.1995 339.6494A55.6539 55.6539 0 0 1 613.1325 346.0245 41.4705 41.4705 0 0 1 624.5332 356.3177L851.9137 252.8927A61.1169 61.1169 0 0 0 838.6796 241.371 90.5073 90.5073 0 0 0 820.9969 234.754ZM448.7768 137.7134A103.0155 103.0155 0 0 1 465.3799 145.0657 42.1313 42.1313 0 0 1 476.1011 154.3723L703.4816 50.9473A42.5129 42.5129 0 0 0 690.6105 38.2065 47.129 47.129 0 0 0 672.537 32.8179ZM537.7299 526.8903V482.7767L911.1785 303.3721V352.139ZM912.0533 303.9211L977.0604 328.9189V373.5257L912.0533 352.6974ZM1067.8449 191.2474L1242.339 264.1162 1137.0918 166.0699ZM1173.9162 112.5437L1242.3288 264.1076 1137.0817 166.0612Z"  horiz-adv-x="1396" vert-adv-y="1024"  />

      
      <glyph glyph-name="icon-xiangxiazhankai" unicode="&#xE050;" d="M768-212L0 812 1536 812Z"  horiz-adv-x="1536" vert-adv-y="1024"  />

      
      <glyph glyph-name="zuoyougundong-xiangzuo" unicode="&#xE053;" d="M0 812H141V-207.5385H0ZM91.8018 340.2039L53.4549 301.8569 91.8018 263.51"  horiz-adv-x="141" vert-adv-y="1024"  />

      
      <glyph glyph-name="zuoyougundong" unicode="&#xE055;" d="M0 812H141V-207.5385H0ZM48.423 340.1981L86.77 301.8512 48.423 263.5042"  horiz-adv-x="141" vert-adv-y="1024"  />

      
      <glyph glyph-name="zharuTxiezhuangzhi" unicode="&#xE057;" d="M320 684H704V-212H320ZM64 748H960V300H64ZM512 620H512L704 300H320Z"  horiz-adv-x="1024" vert-adv-y="1024"  />

      
      <glyph glyph-name="duoxuangouxuankuang_weigouxuan" unicode="&#xE068;" d="M-73.1429 885.1429H950.8571V-138.8571H-73.1429ZM109.7143 702.2857H914.2857V-102.2857H109.7143Z"  horiz-adv-x="1024" vert-adv-y="1024"  />

      
      <glyph glyph-name="duoxuangouxuankuang_sigouxuan" unicode="&#xE069;" d="M-73.1429 812H950.8571V-212H-73.1429ZM146.2857 665.7143H877.7143V-65.7143H146.2857ZM109.7143 702.2857H914.2857V-102.2857H109.7143ZM219.4286 372.3383L437.9794 153.7874 803.6937 519.5017"  horiz-adv-x="1024" vert-adv-y="1024"  />

      
      <glyph glyph-name="icon-keyidong" unicode="&#xE06D;" d="M107 812L107 758.5 0 758.5 0 812ZM107 384L107 330.5 0 330.5 0 384ZM107 705L107 651.5 0 651.5 0 705ZM107-44L107-97.5 0-97.5 0-44ZM107 277L107 223.5 0 223.5 0 277ZM107 598L107 544.5 0 544.5 0 598ZM107-151L107-204.5 0-204.5 0-151ZM107 170L107 116.5 0 116.5 0 170ZM107 491L107 437.5 0 437.5 0 491ZM107 63L107 9.5 0 9.5 0 63Z"  horiz-adv-x="107" vert-adv-y="1024"  />

      
      <glyph glyph-name="jiakongsheji" unicode="&#xE06E;" d="M2850.9595-14265.7885H3874.0234V-15288.8524H2850.9595ZM927.0878 364.4095H723.3701L685.0053 556.234H799.1408A31.9707 31.9707 0 0 1 799.1408 620.1755H672.217L644.2106 760.8468A63.9415 63.9415 0 0 1 581.484 812H441.516A63.9415 63.9415 0 0 1 378.7894 760.8468L350.783 620.1755H223.7952A31.9707 31.9707 0 1 1 223.7952 556.234H337.9308L299.5659 364.4095H95.9122A31.9707 31.9707 0 1 1 95.9122 300.468H286.8416L192.2721-173.2745A24.5535 24.5535 0 0 1 192.2721-176.3437 25.129 25.129 0 0 1 192.2721-183.2494 40.9226 40.9226 0 0 1 193.5509-188.9402 36.1909 36.1909 0 0 1 195.8528-194.5031 20.781 20.781 0 0 1 199.6893-199.8102C200.4566-200.5136 200.6484-201.6645 201.5436-202.3679S203.1421-203.2631 203.9094-203.9025 207.2344-206.0765 209.0887-207.2275A26.7275 26.7275 0 0 1 214.9713-209.5293C215.8665-209.5293 216.6977-210.4245 217.7208-210.6803A10.6143 10.6143 0 0 1 220.5342-210.6803 24.8732 24.8732 0 0 1 223.5395-211.2558C224.6265-211.2558 225.7135-210.6803 226.9923-210.5524A45.3985 45.3985 0 0 1 232.8749-209.4015 39.5798 39.5798 0 0 1 238.6936-206.9717 32.4183 32.4183 0 0 1 243.8729-203.391C244.768-202.6237 245.9829-202.24 246.7502-201.2809L511.4041 77.6319 775.9301-201.0251A7.5451 7.5451 0 0 1 777.4007-202.0482 27.9424 27.9424 0 0 1 784.3064-206.8438 14.5787 14.5787 0 0 1 787.3756-208.5702 31.2035 31.2035 0 0 1 798.949-210.9361 30.0525 30.0525 0 0 1 804.7677-210.2966C805.6629-210.2966 806.3662-209.5293 807.2614-209.3375A31.2035 31.2035 0 0 1 813.6555-206.7159 29.6689 29.6689 0 0 1 818.5151-203.6467C819.2185-203.0073 820.2415-202.7515 820.817-202.1761S821.9679-200.1939 822.7992-199.4266A37.9812 37.9812 0 0 1 826.5078-194.2473 29.6049 29.6049 0 0 1 828.8736-188.6844 39.4519 39.4519 0 0 1 830.0885-182.9936 36.9582 36.9582 0 0 1 830.0885-176.5995 26.6636 26.6636 0 0 1 830.0885-173.4024L736.1584 300.8517H927.3435A31.9707 31.9707 0 1 1 927.3435 364.7932ZM442.2833 748.0585H580.9724L606.549 620.1755H416.451ZM403.9184 556.234H619.4652L657.8301 364.4095H365.2978ZM635.003 300.468L511.7238 170.5389 388.1888 300.8517ZM276.9306-76.7868L343.3019 254.558 467.3484 123.8616ZM679.762 254.6859L746.1333-76.7868 555.5877 123.9895 679.762 254.6859Z"  horiz-adv-x="1023" vert-adv-y="1024"  />

      
      <glyph glyph-name="shouqijiakongsheji" unicode="&#xE06F;" d="M5.7727 809.5524L108.5273 589.6807A166.2545 166.2545 0 0 0 121.2273 522.2668V85.0058A167.1782 167.1782 0 0 0 108.8505 18.1692L5.7727-206.4476ZM80.4025 347.735L39.5832 306.9156 80.4025 266.0963"  horiz-adv-x="127" vert-adv-y="1024"  />

      
      <glyph glyph-name="zhankaijiakongsheji" unicode="&#xE070;" d="M5.7727 809.5524L108.5273 589.6807A166.2545 166.2545 0 0 0 121.2273 522.2668V85.0058A167.1782 167.1782 0 0 0 108.8505 18.1692L5.7727-206.4476ZM45.7723 347.7403L86.5917 306.921 45.7723 266.1017"  horiz-adv-x="127" vert-adv-y="1024"  />

      
      <glyph glyph-name="yekuosheji" unicode="&#xE072;" d="M-8.32 812H1015.68V-212H-8.32ZM622.144 570.592H401.984A31.616 31.616 0 0 1 401.984 507.36H622.144A32 32 0 0 1 653.76 538.976 31.168 31.168 0 0 1 622.144 570.592ZM622.144 404.192H401.984A31.616 31.616 0 0 1 401.984 340.96H622.144A32 32 0 0 1 653.76 372.576 31.168 31.168 0 0 1 622.144 404ZM209.856 52.128L812.48 50.784A31.68 31.68 0 1 1 812.48 114.08L769.216 115.424V643.872A103.808 103.808 0 0 1 667.712 748H349.504A103.808 103.808 0 0 1 248.064 643.872V114.08H209.664A32 32 0 0 1 177.984 82.464 30.976 30.976 0 0 1 209.856 52.128ZM311.296 643.872A41.984 41.984 0 0 0 350.848 686.048H668.992A41.92 41.92 0 0 0 708.48 643.872V114.08H311.296ZM71.936-119.008V389.536A27.008 27.008 0 0 0 99.584 417.184H174.72A30.336 30.336 0 0 0 174.72 356.576H132.544V-85.024H891.456V355.296H849.28A30.336 30.336 0 0 0 849.28 415.904H924.416A27.008 27.008 0 0 0 952.064 388.192V-120.352A27.008 27.008 0 0 0 924.416-148H99.584A29.952 29.952 0 0 0 71.936-119.008Z"  horiz-adv-x="1024" vert-adv-y="1024"  />

      
      <glyph glyph-name="shijiao" unicode="&#xE073;" d="M0 812H1024V-212H0ZM884.1728 504.3392A34.4064 34.4064 0 0 1 884.1728 553.5424 35.4304 35.4304 0 0 1 834.9696 553.5424L487.2192 255.6096 486.656 255.0976A34.3552 34.3552 0 0 1 486.656 205.8944 35.4816 35.4816 0 0 1 535.8592 205.8944L883.6608 503.776ZM1021.5936 692.1408L1010.6368 706.6304A34.5088 34.5088 0 0 1 978.432 711.7504L23.1936 416.0704 23.1936 416.0704A33.6384 33.6384 0 0 1 19.1488 353.9136L348.8768 194.528 343.7568 39.0848A33.4848 33.4848 0 0 1 361.728 8.3648 34.6624 34.6624 0 0 1 397.1584 10.0544L548.0448 88.3904 548.864 88.9024A33.4848 33.4848 0 0 1 557.4144 136.0576 34.6624 34.6624 0 0 1 510.3616 144.864L414.6176 101.1904 418.2528 214.1888A33.8432 33.8432 0 0 1 399.0528 245.6256L124.0576 378.7456 950.1696 631.1104 864.1536-23.7376 648.448 105.2352A34.6112 34.6112 0 0 1 601.4976 93.3568 33.536 33.536 0 0 1 613.5296 47.0208L875.4176-109.1392A34.816 34.816 0 0 1 908.3904-110.112 33.6896 33.6896 0 0 1 926.976-83.1808L1023.8976 676.576V676.8832A33.2288 33.2288 0 0 1 1021.696 692.2432"  horiz-adv-x="1024" vert-adv-y="1024"  />

      
      <glyph glyph-name="xiangmulibiao" unicode="&#xE076;" d="M12816.128-1292.32H13840.128V-2316.32H12816.128ZM96.0512 668.0256L96.0512 572.0256 596.9011 572.0256 514.6154 668.0256 96.0512 668.0256M32.0512 732.0256L544.0512 732.0256 736.0512 508.0256 32.0512 508.0256 32.0512 732.0256ZM64.0512 540.0256H960.0512V-99.9744H64.0512ZM224.0512 354.4256H633.6512V277.6256H224.0512ZM224.0512 162.4256H800.0512V85.6256H224.0512Z"  horiz-adv-x="1024" vert-adv-y="1024"  />

      
      <glyph glyph-name="kanchaxinxi" unicode="&#xE07D;" d="M0 812H1024V-212H0ZM136.0896 392.4672A34.0992 34.0992 0 0 1 101.376 359.0848 32.4608 32.4608 0 0 1 101.6832 354.7328L152.8832-20.9728A34.2528 34.2528 0 0 1 187.2896-50.0032H836.5056A34.2528 34.2528 0 0 1 870.912-20.9728L922.112 354.6816A33.6384 33.6384 0 0 1 892.3136 392.2112 37.632 37.632 0 0 1 887.7056 392.5184ZM136.0896 459.0272H887.9616A102.4 102.4 0 0 0 992 358.9312 97.28 97.28 0 0 0 991.1296 345.824L939.9296-29.8304A102.7072 102.7072 0 0 0 836.8128-116.8704H187.392A102.7584 102.7584 0 0 0 84.2752-29.8304L33.0752 345.9264A100.9152 100.9152 0 0 0 122.624 458.2592 109.1584 109.1584 0 0 0 136.0896 459.3344ZM650.752 147.4752L491.0592 47.584A28.1088 28.1088 0 0 0 448.0512 71.4432V271.1232A28.1088 28.1088 0 0 0 491.0592 294.9312L650.752 195.0912A28.1088 28.1088 0 0 0 650.752 147.424ZM320 716H704V652H320ZM224.768 587.9488H800.768V523.9488H224.768Z"  horiz-adv-x="1024" vert-adv-y="1024"  />

      
      <glyph glyph-name="zuobiaodaochu" unicode="&#xE080;" d="M0 812H1024V-212H0ZM514.2528-97.056S886.4256 182.0352 886.4256 417.76C886.4256 635.4112 737.5872 812 524.032 812H524.032A390.144 390.144 0 0 1 137.472 417.76C137.5232 179.0144 514.2528-97.056 514.2528-97.056ZM197.9392 434.7584A316.8768 316.8768 0 1 0 514.7136 112.9152 319.3856 319.3856 0 0 0 197.9392 434.7584ZM519.7824 299.7952L723.9168 447.5584 519.7824 595.3216V511.3536A291.84 291.84 0 0 1 440.0128 500.0896 143.9232 143.9232 0 0 1 378.2656 462.9696 207.2064 207.2064 0 0 1 339.2512 404.6528 390.0928 390.0928 0 0 1 314.7776 323.6544L314.7776 322.8352V322.1184A12.3392 12.3392 0 0 1 324.6592 309.3184 13.6192 13.6192 0 0 1 338.944 314.4384 214.4256 214.4256 0 0 0 386.4064 349.408L396.6464 355.808A170.24 170.24 0 0 0 445.9008 377.1584 92.16 92.16 0 0 0 468.5824 381.1008Q494.1824 383.3024 519.7824 383.3536ZM509.696-211.7952C343.1424-211.7952 163.8912-173.0368 163.8912-88.096 163.8912-41.248 214.016-6.176 312.8832 15.3792H315.5456C334.8992 15.3792 346.2656 5.1392 347.2896-8.48A30.72 30.72 0 0 0 343.3984-32.032 27.6992 27.6992 0 0 0 324.7104-44.832 250.4704 250.4704 0 0 1 227.4304-82.7712L221.8496-87.8912 227.5328-93.0112C229.3248-94.496 232.192-96.6464 236.4928-99.7184A231.5264 231.5264 0 0 1 295.8848-125.5744 775.0656 775.0656 0 0 1 510.9248-151.8912 774.7072 774.7072 0 0 1 725.9648-125.5744 229.9904 229.9904 0 0 1 785.3568-99.1552C789.6064-95.776 792.1152-93.6256 793.6512-92.2432L798.464-87.584 793.6512-82.976A249.1904 249.1904 0 0 1 685.7728-42.016 30.1056 30.1056 0 0 0 662.1184-6.176 29.184 29.184 0 0 0 690.8416 19.0656C801.9456-3.4112 855.552-39.2 855.552-87.8912 855.6032-173.2416 676.096-211.7952 509.696-211.7952Z"  horiz-adv-x="1024" vert-adv-y="1024"  />

      
      <glyph glyph-name="pingshenyixian" unicode="&#xE084;" d="M9209.5488-1276.1408H10233.5488V-2300.1408H9209.5488ZM80.4352-154.4A30.72 30.72 0 0 0 55.6032-141.2928L51.712-133.408A26.2656 26.2656 0 0 0 49.408-122.4512V405.4208L104.4992 432.7616 168.4992 470.0352 165.3248 722.0416A32.8704 32.8704 0 0 0 197.888 754.4H827.1872A32.8192 32.8192 0 0 0 859.5968 722.0416V463.9936L920.7808 432.1472 974.592 402.5536V-122.4512A32 32 0 0 0 942.6432-154.4ZM911.1552-90.4L910.6944 301.4848 528.2304 79.2768 526.8992 77.7408 513.792 75.232 506.9312 75.6928 499.5584 77.792 113.8176 301.3312V-90.4ZM239.7184 689.9904C230.7072 689.9904 229.4784 688.9664 229.4784 679.7504V304.2496L511.9488 143.6864 798.464 309.7792 795.2384 679.9552C795.2384 688.4032 794.4192 690.1952 784.6912 690.1952ZM165.3248 345.4656V393.5936L123.8528 369.5296ZM859.136 345.4656L900.7616 369.5296 859.1872 393.5936ZM307.2 581.6H716.8V504.8H307.2ZM307.2 428H563.2V351.2H307.2Z"  horiz-adv-x="1024" vert-adv-y="1024"  />

      
      <glyph glyph-name="yonghushouce" unicode="&#xE08A;" d="M9209.5488-1276.1408H10233.5488V-2300.1408H9209.5488ZM0 812H960V-67.36H0ZM971.6224 719.1744A70.0416 70.0416 0 0 1 921.6512 739.6544H660.5312A182.8864 182.8864 0 0 1 515.2256 667.1552L512 662.8544 508.7744 667.1552A182.784 182.784 0 0 1 363.4688 739.6544H102.3488A70.2464 70.2464 0 0 1 32 669.8688V-14.2144A70.2464 70.2464 0 0 1 102.5024-84H377.7536L378.9824-85.2288A189.9008 189.9008 0 0 1 645.2224-85.2288L646.4-84H921.6512A70.1952 70.1952 0 0 1 992-14.2144V669.8688A68.9152 68.9152 0 0 1 971.52 719.0208M925.44 669.8688L925.44-14.2144H921.3952V-18.1056H631.808A32.3072 32.3072 0 0 1 606.72-29.6256 126.0544 126.0544 0 0 0 512-73.6576 124.7744 124.7744 0 0 0 417.4336-29.7792 33.1776 33.1776 0 0 1 392.192-18.2592H98.56V673.9136H363.2128A115.5584 115.5584 0 0 0 478.9248 558.9696V8.7744H545.4848V558.9696A115.3024 115.3024 0 0 0 661.0944 673.9136H925.7984ZM291.84 489.6448H155.4944V435.2192H291.6864A223.1296 223.1296 0 0 0 385.8944 416.0704 207.4112 207.4112 0 0 0 421.7344 396.4608C422.3488 440.3392 422.3488 441.056 422.3488 449.4016A179.2 179.2 0 0 1 386.5088 471.8272 220.16 220.16 0 0 1 292.1984 489.6448M609.3824 449.4016C609.3824 441.056 609.3824 440.3392 610.048 396.4608A201.7792 201.7792 0 0 0 645.4272 416.0704 222.8736 222.8736 0 0 0 739.7376 435.2192H875.9808V489.6448H739.7376A220.16 220.16 0 0 1 645.4272 471.8272 177.408 177.408 0 0 1 609.5872 449.4016M291.84 264.2624H155.4944V209.632H291.6864A223.1296 223.1296 0 0 0 385.8944 190.688 207.4624 207.4624 0 0 0 421.7344 171.0784C422.3488 214.9568 422.3488 215.6736 422.3488 224.0192A179.2 179.2 0 0 1 386.5088 246.4448 220.16 220.16 0 0 1 292.1984 264.2624M645.4272 246.4448A177.408 177.408 0 0 1 609.5872 224.0192C609.5872 215.6736 609.5872 214.9568 610.2528 171.0784A201.7792 201.7792 0 0 0 645.632 190.688 222.8736 222.8736 0 0 0 739.7376 209.632H875.9808V264.2624H739.7376A220.16 220.16 0 0 1 645.4272 246.4448"  horiz-adv-x="1024" vert-adv-y="1024"  />

      
      <glyph glyph-name="icon_haiyuan-xuanting" unicode="&#xE08F;" d="M170.6667 641.3333H256V-41.3333H170.6667ZM170.6667 44H853.3333V-41.3333H170.6667ZM170.6667 641.3333H512V556H170.6667ZM768 300H853.3333V-41.3333H768ZM597.3333 641.3333H853.3333V385.3333H597.3333Z"  horiz-adv-x="1024" vert-adv-y="1024"  />

      
      <glyph glyph-name="icon_guanbi-3" unicode="&#xE091;" d="M512 300L51.2-160.8 512 300 51.2 760.8 512 300 573.44 361.44 747.52 535.52 972.8 760.8 512 300 573.44 238.56 747.52 64.48 972.8-160.8 512 300Z"  horiz-adv-x="1024" vert-adv-y="1024"  />

      
      <glyph glyph-name="xuanfuqiu-xuanting" unicode="&#xE092;" d="M512-41.3333C699.7333-41.3333 853.3333 112.2667 853.3333 300S699.7333 641.3333 512 641.3333 170.6667 487.7333 170.6667 300 324.2667-41.3333 512-41.3333M512-126.6667C273.0667-126.6667 85.3333 61.0667 85.3333 300S273.0667 726.6667 512 726.6667 938.6667 538.9333 938.6667 300 750.9333-126.6667 512-126.6667ZM512 470.6667A170.6667 170.6667 0 1 1 512 129.3333 170.6667 170.6667 0 1 1 512 470.6667Z"  horiz-adv-x="1024" vert-adv-y="1024"  />

      
      <glyph glyph-name="tongzhi" unicode="&#xE093;" d="M467.2 652C313.6 620 198.4 479.2 204.8 325.6V82.4L147.2 24.8C128 5.6 134.4-7.2 160-7.2H864C889.6-7.2 896 5.6 876.8 24.8L819.2 82.4V325.6C819.2 485.6 710.4 620 556.8 652V703.2C556.8 728.8 537.6 748 512 748L512 748C486.4 748 467.2 728.8 467.2 703.2V652ZM601.6-58.4C601.6-109.6 563.2-148 518.4-148 467.2-148 428.8-109.6 428.8-64.8 428.8-64.8 428.8-64.8 428.8-58.4H601.6ZM288 344.8C288 466.4 384 568.8 512 568.8S729.6 472.8 729.6 344.8V76H288V344.8L288 344.8Z"  horiz-adv-x="1024" vert-adv-y="1024"  />

      
      <glyph glyph-name="dingwei02" unicode="&#xE094;" d="M512 652A352 352 0 1 1 512-52 352 352 0 1 1 512 652ZM96 300L224 300 224 300ZM800 300L928 300 928 300ZM512 716L512 588 512 588ZM512 12L512-116 512-116ZM509.056 428.384A128 128 0 1 1 509.056 172.384 128 128 0 1 1 509.056 428.384Z"  horiz-adv-x="1024" vert-adv-y="1024"  />

      
      <glyph glyph-name="shangzhuan" unicode="&#xE097;" d="M262.4 178.4H211.2C172.8 178.4 134.4 197.6 102.4 223.2 51.2 280.8 44.8 364 89.6 421.6 108.8 447.2 134.4 466.4 166.4 472.8L211.2 485.6 230.4 530.4C249.6 588 288 632.8 339.2 671.2 441.6 741.6 576 741.6 678.4 671.2 729.6 639.2 761.6 588 787.2 530.4L806.4 485.6 851.2 472.8C934.4 447.2 979.2 364 953.6 280.8 947.2 255.2 934.4 236 915.2 216.8 889.6 191.2 851.2 172 812.8 172H761.6M448 236H576V-148H448V236ZM435.2 236L435.2 236 320 236 512 492 704 236H595.2V236H435.2Z"  horiz-adv-x="1024" vert-adv-y="1024"  />

      
      <glyph glyph-name="icon_cuoxiaohuacongkou" unicode="&#xE095;" d="M0 402.4H1024V300H0Z"  horiz-adv-x="1024" vert-adv-y="1024"  />

      
      <glyph glyph-name="luoshishua" unicode="&#xE09F;" d="M128 748H832V684H128V748ZM832 428H960V172L512 44V-212M128 620H384V236H128V620ZM195.072 556V300H771.072V556H195.072M131.072 620H835.072V236H131.072V620Z"  horiz-adv-x="1024" vert-adv-y="1024"  />

      
      <glyph glyph-name="cejujifangweijiao" unicode="&#xE0A0;" d="M192-20H832V-84H192ZM128 620H192V-20H128ZM64 748H256V556H64ZM96 716H224V588H96ZM768 44H960V-148H768ZM800 12H928V-116H800ZM64 44H256V-148H64ZM96 12H224V-116H96ZM160 396C409.6 396 608 197.6 608-52L608-52"  horiz-adv-x="1024" vert-adv-y="1024"  />

      
      <glyph glyph-name="fangtaijing" unicode="&#xE0A1;" d="M677.376 95.2L722.176 140 933.376 12 805.376-116 677.376 95.2ZM632.576 133.6L677.376 178.4 888.576-32.8 843.776-77.6 632.576 133.6ZM427.776 652C357.376 652 286.976 626.4 235.776 575.2 184.576 524 158.976 460 158.976 389.6 158.976 319.2 184.576 255.2 235.776 204 286.976 152.8 350.976 127.2 421.376 127.2 491.776 127.2 562.176 152.8 613.376 204 664.576 255.2 690.176 319.2 690.176 389.6 690.176 460 664.576 524 613.376 575.2 562.176 626.4 498.176 652 427.776 652M427.776 716C510.976 716 594.176 684 658.176 620 786.176 492 786.176 287.2 658.176 159.2 530.176 31.2 318.976 31.2 184.576 159.2 56.576 287.2 56.576 492 184.576 620 254.976 684 338.176 716 427.776 716Z"  horiz-adv-x="1024" vert-adv-y="1024"  />

      
      <glyph glyph-name="tongjishuimeng" unicode="&#xE0A2;" d="M543.36 492C562.56 492 575.36 479.2 575.36 460V332C575.36 312.8 562.56 300 543.36 300S511.36 312.8 511.36 332V460C511.36 479.2 524.16 492 543.36 492ZM543.36 620C562.56 620 575.36 607.2 575.36 588S562.56 556 543.36 556 511.36 568.8 511.36 588 524.16 620 543.36 620ZM543.36 684C421.76 684 319.36 581.6 319.36 460S421.76 236 543.36 236 767.36 338.4 767.36 460 664.96 684 543.36 684M543.36 748C703.36 748 831.36 620 831.36 460S703.36 172 543.36 172C383.36 172 255.36 300 255.36 460S383.36 748 543.36 748ZM63.36-84H959.36V-148H95.36C76.16-148 63.36-135.2 63.36-116V-84ZM63.36-84H959.36V-148H95.36C76.16-148 63.36-135.2 63.36-116V-84ZM63.36 684H127.36V-148H95.36C76.16-148 63.36-135.2 63.36-116V684ZM191.36 172H319.36V-84H191.36V172ZM575.36-20H703.36V-84H575.36V-20ZM383.36 44H511.36V-84H383.36V44ZM767.36 172H895.36V-84H767.36V172Z"  horiz-adv-x="1024" vert-adv-y="1024"  />

      
      <glyph glyph-name="zhitaiceju" unicode="&#xE0A3;" d="M416 748H608V556H416ZM448 716H576V588H448ZM800 44H992V-148H800ZM832 12H960V-116H832ZM416 300H608V108H416ZM448 268H576V140H448ZM32 44H224V-148H32ZM64 12H192V-116H64ZM832-52L576 140M576 588L896 12M448 588L128 12"  horiz-adv-x="1024" vert-adv-y="1024"  />

      
      <glyph glyph-name="zharuganshangbian" unicode="&#xE0A4;" d="M64 556H960V-20H64V556ZM64-84H960V-148H64V-84ZM704 293.6H492.8L588.8 492H454.4L320 184.8H505.6L441.6-20 704 293.6ZM128 684H384V620H128V684ZM128 812H384V748H128V812ZM640 684H896V620H640V684ZM640 812H896V748H640V812Z"  horiz-adv-x="1024" vert-adv-y="1024"  />

      
      <glyph glyph-name="zharulaxian" unicode="&#xE0A5;" d="M0 76L512 364 1024 76 512-212 0 76ZM448 812H576V-84H448V812ZM384 684H640V620H384V684ZM460.8 684L505.6 639.2 44.8-84 0-39.2 460.8 684ZM563.2 684L1024-39.2 979.2-84 518.4 639.2 563.2 684Z"  horiz-adv-x="1024" vert-adv-y="1024"  />

      
      <glyph glyph-name="zharuganshangzujian" unicode="&#xE0A6;" d="M448 748H576V-212H448V748ZM576 300H832V236H576V300ZM256 492H512V428H256V492ZM0 684H384V300H0V684ZM640 492H1024V108H640V492Z"  horiz-adv-x="1024" vert-adv-y="1024"  />

      
      <glyph glyph-name="guzhangzhizhideng" unicode="&#xE0A7;" d="M403.2 716H620.8L896-116H128L403.2 716ZM768 76H518.4L736 165.6 768 76 768 76ZM300.8 76H256L288 159.2 678.4 319.2 704 242.4 300.8 76 300.8 76ZM326.4 268L326.4 268 364.8 376.8 620.8 479.2 652.8 396 326.4 268 326.4 268ZM403.2 485.6L403.2 485.6 441.6 588H588.8L595.2 562.4 403.2 485.6 403.2 485.6ZM96 12H928V-116H96V12Z"  horiz-adv-x="1024" vert-adv-y="1024"  />

      
      <glyph glyph-name="huizhidewu" unicode="&#xE0A8;" d="M0.832 175.072L512.832 495.072 1024.832 175.072 512.832-144.928 0.832 175.072ZM282.432 347.872L512.832-80.928 743.232 347.872 512.832 495.072 282.432 347.872ZM173.632 687.072L512.832 53.472 852.032 687.072H173.632M64.832 751.072H960.832L512.832-80.928 64.832 751.072Z"  horiz-adv-x="1024" vert-adv-y="1024"  />

      
      <glyph glyph-name="xincengzujian" unicode="&#xE0A9;" d="M512 687.6571L296.2286 563.3143V314.6286L512 190.2857 727.7714 314.6286V563.3143L512 687.6571M512 757.1429L786.2857 596.2286V274.4L512 113.4857 237.7143 278.0571V596.2286L512 757.1429ZM329.1429 413.3714L113.3714 289.0286V40.3429L329.1429-84 544.9143 40.3429V289.0286L329.1429 413.3714M329.1429 482.8571L603.4286 321.9429V0.1143L329.1429-157.1429 54.8571 3.7714V325.6L329.1429 482.8571ZM607.0857 172L512 117.1429 237.7143 278.0571V428L332.8 482.8571 607.0857 321.9429 607.0857 172ZM694.8571 413.3714L479.0857 289.0286V40.3429L694.8571-84 910.6286 40.3429V289.0286L694.8571 413.3714M694.8571 482.8571L969.1429 321.9429V0.1143L694.8571-157.1429 420.5714 3.7714V325.6L694.8571 482.8571ZM512 376.8L607.0857 321.9429V0.1143L512-54.7429 416.9143 0.1143V321.9429L512 376.8ZM786.2857 428V278.0571L512 117.1429 416.9143 172V321.9429L691.2 482.8571 786.2857 428ZM607.0857 172L512 117.1429 416.9143 172V321.9429L512 376.8 607.0857 321.9429 607.0857 172Z"  horiz-adv-x="1024" vert-adv-y="1024"  />

      
      <glyph glyph-name="huizhixiahu" unicode="&#xE0AA;" d="M832 748L633.6 562.4C550.4 479.2 473.6 127.2 384 44L192-148M576 364L320 556M704 44L448 236M0 812H384V492H0V812ZM640 108H1024V-212H640V108ZM473.6 268C512 268 537.6 242.4 537.6 204S512 140 473.6 140 409.6 165.6 409.6 204 435.2 268 473.6 268ZM544 466.4C582.4 466.4 608 440.8 608 402.4S582.4 338.4 544 338.4 480 364 480 402.4 505.6 466.4 544 466.4Z"  horiz-adv-x="1024" vert-adv-y="1024"  />

      
      <glyph glyph-name="huiluoguanli" unicode="&#xE0AB;" d="M512 364L960-84H64L512 364ZM0 44H256V-212H0V44ZM384 44H640V-212H384V44ZM768 44H1024V-212H768V44ZM467.2 498.4L486.4 133.6 755.2 556 467.2 498.4ZM537.6 812L556.8 447.2 268.8 389.6 537.6 812Z"  horiz-adv-x="1024" vert-adv-y="1024"  />

      
      <glyph glyph-name="xincengganta" unicode="&#xE0AF;" d="M468.032 812.64H551.232L634.432-211.36H378.432L468.032 812.64ZM768.832 556.64H832.832V428.64H768.832V556.64ZM192.832 556.64H256.832V428.64H192.832V556.64ZM704.832 748.64H768.832V620.64H704.832V748.64ZM256.832 748.64H320.832V620.64H256.832V748.64ZM128.832 556.64H896.832V492.64H128.832V556.64ZM192.832 748.64H832.832V684.64H192.832V748.64Z"  horiz-adv-x="1024" vert-adv-y="1024"  />

      
      <glyph glyph-name="shezhihuiluo" unicode="&#xE0B0;" d="M64.832 425.952V-150.048H640.832V425.952H64.832M0.832 489.952H704.832V-214.048H0.832V489.952ZM448.832 745.952V233.952H960.832V745.952H448.832M384.832 809.952H1024.832V169.952H384.832V809.952ZM384.832 489.952H704.832V169.952H384.832V489.952Z"  horiz-adv-x="1024" vert-adv-y="1024"  />

      
      <glyph glyph-name="shengchengpingduanmiantu" unicode="&#xE0B2;" d="M64 812H128V-84H64V812ZM896 812H960V-84H896V812ZM480 812H544V-84H480V812ZM928 581.6C908.8 466.4 800 389.6 684.8 408.8 595.2 421.6 524.8 492 512 581.6M512 581.6C492.8 466.4 384 389.6 268.8 408.8 179.2 421.6 108.8 492 96 581.6M928 344.8C908.8 229.6 800 152.8 684.8 172 595.2 191.2 524.8 261.6 512 344.8M512 344.8C492.8 229.6 384 152.8 268.8 172 179.2 191.2 108.8 261.6 96 344.8M0-20H1024V-212H0V-20ZM928 812H896C876.8 716 787.2 658.4 691.2 671.2 614.4 684 556.8 741.6 544 812H512L480 805.6C499.2 709.6 576 626.4 678.4 607.2 691.2 607.2 710.4 600.8 723.2 600.8 838.4 600.8 940.8 684 960 799.2L928 812ZM512 812H480C460.8 716 364.8 658.4 268.8 671.2 198.4 684 147.2 741.6 128 812H96L64 805.6C83.2 703.2 160 626.4 262.4 607.2 275.2 607.2 294.4 600.8 307.2 600.8 422.4 600.8 524.8 684 544 799.2L512 812Z"  horiz-adv-x="1024" vert-adv-y="1024"  />

      
      <glyph glyph-name="zharudianqishebei" unicode="&#xE0B3;" d="M224 236H800C921.6 236 1024 133.6 1024 12S921.6-212 800-212H224C102.4-212 0-109.6 0 12S102.4 236 224 236ZM224 812H800C921.6 812 1024 709.6 1024 588S921.6 364 800 364H224C102.4 364 0 466.4 0 588S102.4 812 224 812ZM800 172C889.6 172 960 101.6 960 12S889.6-148 800-148 640-77.6 640 12 710.4 172 800 172ZM800 748C889.6 748 960 677.6 960 588S889.6 428 800 428 640 498.4 640 588 710.4 748 800 748ZM249.6-109.6C332.8-32.8 384 24.8 384 69.6 390.4 95.2 371.2 114.4 345.6 120.8 345.6 120.8 339.2 120.8 339.2 120.8 313.6 120.8 294.4 108 281.6 88.8L249.6 120.8C275.2 152.8 313.6 165.6 352 165.6 403.2 172 448 133.6 448 82.4 448 76 448 76 448 69.6 435.2-0.8 396.8-58.4 345.6-103.2 358.4-103.2 384-96.8 396.8-96.8H467.2V-148H249.6V-109.6ZM249.6 479.2H320V684H256V722.4C288 722.4 307.2 735.2 332.8 748H377.6V479.2H435.2V428H243.2V479.2Z"  horiz-adv-x="1024" vert-adv-y="1024"  />

      
      <glyph glyph-name="zharudianlanpoumian" unicode="&#xE0B4;" d="M25.6-13.6L294.4 255.2 473.6 76 204.8-192.8 25.6-13.6ZM518.4 485.6L832 799.2 1017.6 620 704 306.4 518.4 485.6ZM704 37.6L748.8 82.4 793.6 37.6 748.8-7.2 704 37.6ZM614.4 127.2L659.2 172 704 127.2 659.2 82.4 614.4 127.2ZM518.4 216.8L563.2 261.6 608 216.8 569.6 172 518.4 216.8ZM428.8 306.4L473.6 351.2 518.4 306.4 473.6 261.6 428.8 306.4ZM339.2 396L384 440.8 428.8 396 384 351.2 339.2 396ZM249.6 485.6L294.4 530.4 339.2 485.6 294.4 440.8 249.6 485.6ZM473.6 530.4L569.6 620 838.4 351.2 748.8 261.6 473.6 530.4ZM160 216.8L249.6 306.4 518.4 37.6 428.8-52 160 216.8ZM384-13.6L428.8 31.2 473.6-13.6 428.8-58.4 384-13.6ZM160 216.8L204.8 261.6 249.6 216.8 204.8 172 160 216.8ZM793.6 396L838.4 440.8 883.2 396 838.4 351.2 793.6 396ZM569.6 620L614.4 664.8 659.2 620 614.4 575.2 569.6 620ZM115.2 172L160 216.8 204.8 172 160 127.2 115.2 172ZM339.2-58.4L384-13.6 428.8-58.4 384-103.2 339.2-58.4Z"  horiz-adv-x="1024" vert-adv-y="1024"  />

      
      <glyph glyph-name="dianlansheji" unicode="&#xE0B5;" d="M730.496 581.984C756.096 581.984 768.896 562.784 768.896 543.584S749.696 505.184 730.496 505.184H589.696C564.096 505.184 551.296 524.384 551.296 543.584S570.496 581.984 589.696 581.984L589.696 581.984H730.496ZM730.496 709.984C756.096 709.984 768.896 690.784 768.896 671.584S749.696 633.184 730.496 633.184H589.696C564.096 633.184 551.296 652.384 551.296 671.584S570.496 709.984 589.696 709.984L589.696 709.984H730.496ZM877.696 383.584C922.496 383.584 960.896 345.184 960.896 300.384 960.896 300.384 960.896 300.384 960.896 300.384 960.896 50.784 762.496-147.616 512.896-147.616S64.896 50.784 64.896 300.384 263.296 748.384 512.896 748.384C557.696 748.384 596.096 709.984 596.096 665.184V530.784C596.096 485.984 564.096 453.984 519.296 447.584L506.496 447.584C423.296 441.184 359.296 370.784 365.696 287.584 372.096 204.384 442.496 140.384 525.696 146.784 602.496 153.184 666.496 210.784 666.496 287.584L666.496 300.384C672.896 345.184 704.896 377.184 749.696 377.184L877.696 383.584ZM877.696 300.384H743.296C743.296 172.384 640.896 69.984 512.896 69.984 384.896 69.984 282.496 172.384 282.496 300.384 282.496 428.384 384.896 530.784 512.896 530.784 512.896 530.784 512.896 530.784 512.896 530.784L512.896 530.784V665.184C308.096 665.184 148.096 498.784 148.096 300.384S314.496-64.416 512.896-64.416C711.296-64.416 877.696 95.584 877.696 300.384 877.696 300.384 877.696 300.384 877.696 300.384L877.696 300.384Z"  horiz-adv-x="1024" vert-adv-y="1024"  />

      
      <glyph glyph-name="huizhidianlan" unicode="&#xE0B6;" d="M96 594.4H928V146.4H96V594.4ZM736 658.4H800V82.4H736V658.4ZM608 658.4H672V82.4H608V658.4ZM480 658.4H544V82.4H480V658.4ZM352 658.4H416V31.2H352V658.4ZM224 658.4H288V82.4H224V658.4ZM96 786.4H160V-45.6H96V786.4ZM864 786.4H928V-45.6H864V786.4ZM736-122.4H544V-122.4C473.6-109.6 416-45.6 416 31.2H416V69.6H352V5.6C352-103.2 435.2-186.4 544-186.4H800V-122.4H736Z"  horiz-adv-x="1024" vert-adv-y="1024"  />

      
      <glyph glyph-name="huizhidianlanjing" unicode="&#xE0B8;" d="M512 812C793.6 812 1024 581.6 1024 300S793.6-212 512-212 0 18.4 0 300 230.4 812 512 812ZM512 556C652.8 556 768 440.8 768 300S652.8 44 512 44 256 159.2 256 300 371.2 556 512 556ZM448-20H576V-148H448V-20ZM832 364H960V236H832V364ZM448 748H576V620H448V748ZM64 364H192V236H64V364Z"  horiz-adv-x="1024" vert-adv-y="1024"  />

      
      <glyph glyph-name="hebingdianlan" unicode="&#xE0B7;" d="M12.8-20L825.6 799.2 1004.8 620 192-199.2 12.8-20ZM435.2 402.4L832 799.2 1011.2 620 614.4 223.2 435.2 402.4ZM524.8 536.8L569.6 581.6 793.6 357.6 748.8 312.8 524.8 536.8ZM435.2 447.2L480 492 704 268 659.2 223.2 435.2 447.2ZM339.2 357.6L384 402.4 608 178.4 563.2 133.6 339.2 357.6ZM275.2 242.4L320 287.2 499.2 108 454.4 63.2 275.2 242.4ZM249.6 268L294.4 312.8 518.4 88.8 473.6 44 249.6 268Z"  horiz-adv-x="1024" vert-adv-y="1024"  />

      
      <glyph glyph-name="xincengdianqishebei" unicode="&#xE0B9;" d="M128-52H896V780H128V-52ZM128-20H896V-116H128V-20ZM128 780H896V716H128V780ZM704 408.8H492.8L588.8 607.2H454.4L320 293.6H505.6L441.6 88.8 704 408.8ZM172.8 671.2V607.2H236.8V671.2H172.8ZM172.8 95.2V31.2H236.8V95.2H172.8ZM780.8 671.2V607.2H844.8V671.2H780.8ZM780.8 95.2V31.2H844.8V95.2H780.8ZM64-96.8H960V-160.8H64Z"  horiz-adv-x="1024" vert-adv-y="1024"  />

      
      <glyph glyph-name="fuzailvjisuan" unicode="&#xE0BD;" d="M454.4 223.2V108H352V581.6C352 626.4 364.8 671.2 396.8 703.2 428.8 735.2 473.6 748 524.8 748 563.2 748 608 735.2 640 709.6 691.2 664.8 697.6 588 652.8 530.4 640 517.6 620.8 504.8 595.2 498.4V498.4C627.2 492 659.2 472.8 684.8 453.6 704 428 716.8 396 716.8 364 716.8 319.2 704 280.8 672 255.2 633.6 216.8 595.2 204 550.4 204 518.4 204 486.4 210.4 454.4 223.2M499.2 447.2V524C524.8 524 544 536.8 556.8 549.6 569.6 562.4 582.4 581.6 582.4 607.2 582.4 620 576 639.2 563.2 652 550.4 664.8 537.6 671.2 518.4 664.8 473.6 664.8 454.4 639.2 454.4 581.6V306.4C480 293.6 505.6 280.8 531.2 280.8 582.4 280.8 608 306.4 608 357.6 608 415.2 576 447.2 499.2 447.2L499.2 447.2ZM934.4 312.8C921.6 434.4 851.2 543.2 755.2 613.6V504.8C889.6 370.4 889.6 159.2 755.2 24.8S409.6-109.6 275.2 24.8 140.8 370.4 275.2 504.8C275.2 504.8 275.2 504.8 275.2 504.8V620C172.8 549.6 102.4 440.8 89.6 312.8H0V216.8H89.6C115.2-13.6 326.4-186.4 556.8-154.4 755.2-135.2 908.8 24.8 928 216.8H1024V312.8H934.4Z"  horiz-adv-x="1024" vert-adv-y="1024"  />

      
      <glyph glyph-name="shenpishandaoru" unicode="&#xE0BE;" d="M192 812H832V172H192ZM128 684H896V-148H128ZM512 492A64 64 0 1 1 512 364 64 64 0 1 1 512 492ZM512 428L640 172H384L512 428ZM320 236H704V108H320Z"  horiz-adv-x="1024" vert-adv-y="1024"  />

      
      <glyph glyph-name="tuoputusheji" unicode="&#xE0BF;" d="M473.6-212V620H550.4V-212H473.6ZM512-84V-20C512 88.8 192 184.8 192 300V428M512-148L512-148C512-39.2 832 56.8 832 172V300M511.104 814.688A128 128 0 1 1 511.104 558.688 128 128 0 1 1 511.104 814.688ZM511.104 782.688A96 96 0 1 1 511.104 590.688 96 96 0 1 1 511.104 782.688ZM191.104 622.688A128 128 0 1 1 191.104 366.688 128 128 0 1 1 191.104 622.688ZM191.104 590.688A96 96 0 1 1 191.104 398.688 96 96 0 1 1 191.104 590.688ZM831.104 494.688A128 128 0 1 1 831.104 238.688 128 128 0 1 1 831.104 494.688ZM831.104 462.688A96 96 0 1 1 831.104 270.688 96 96 0 1 1 831.104 462.688ZM416-135.2H608V-212H416V-135.2Z"  horiz-adv-x="1024" vert-adv-y="1024"  />

      
      <glyph glyph-name="gongxiantudaochu" unicode="&#xE0C0;" d="M128 460V748H416L128 460ZM646.4-84H192V300L576 684H832V389.6H896V748H550.4L128 325.6V-148H646.4V-84ZM768 325.6L1024 133.6 768-58.4V325.6ZM768 69.6H320V197.6H768V69.6Z"  horiz-adv-x="1024" vert-adv-y="1024"  />

      
      <glyph glyph-name="gongxiantudaoru" unicode="&#xE0C1;" d="M96 684H864V620H96ZM224 172H800V44H224ZM96-20H864V-84H96ZM864 684H928V-84H864ZM96 236H160V-84H96ZM96 684H160V556H96ZM448 524L620.8 396 448 268V524ZM544 364H32V428H544V364Z"  horiz-adv-x="1024" vert-adv-y="1024"  />

      
      <glyph glyph-name="gongxiantujiaozhun" unicode="&#xE0C2;" d="M128-84H896V-212H128ZM512 300C403.2 300 320 383.2 320 492S403.2 684 512 684 704 600.8 704 492C704 383.2 620.8 300 512 300ZM512 556C473.6 556 448 530.4 448 492S473.6 428 512 428 576 453.6 576 492 550.4 556 512 556ZM538.5727 403.416L596.5759 430.4646 867.0617-149.5677 809.0585-176.6163ZM153.3081-150.8412L423.7737 429.2005 481.7779 402.1539 211.3123-177.8878ZM480 812H544V620H480ZM851.2 204C755.2 120.8 640 76 512 76 390.4 76 268.8 120.8 172.8 204"  horiz-adv-x="1024" vert-adv-y="1024"  />

      
      <glyph glyph-name="baogaoyulan" unicode="&#xE0C3;" d="M128 684H192V-148H128ZM832 684H896V-148H832ZM128-84H896V-148H128ZM128 684H320V620H128ZM704 684H896V620H704ZM354.624 717.088H674.624V589.088H354.624ZM382.6937 377.7035A160 160 0 1 1 608.9679 151.4294 160 160 0 1 1 382.6937 377.7035ZM576.611 140.3345L621.8658 185.5893 757.6303 49.8248 712.3755 4.57Z"  horiz-adv-x="1024" vert-adv-y="1024"  />

      
      <glyph glyph-name="daochu" unicode="&#xE0C5;" d="M128 460V748H416L128 460ZM646.4-84H192V300L576 684H832V389.6H896V748H550.4L128 325.6V-148H646.4V-84ZM768 325.6L1024 133.6 768-58.4V325.6ZM768 69.6H320V197.6H768V69.6Z"  horiz-adv-x="1024" vert-adv-y="1024"  />

      
      <glyph glyph-name="daochuweiPDF" unicode="&#xE0C6;" d="M633.6 748H128V408.8C128 408.8 128 402.4 134.4 402.4 153.6 376.8 172.8 357.6 192 338.4V684H608L832 460V-84H467.2L409.6-135.2 396.8-148H896V485.6L633.6 748ZM128 492H192V-148H128ZM128-84H768V-148H128ZM256 524H768V12H256ZM697.6 140C659.2 140 620.8 159.2 595.2 184.8 537.6 172 480 152.8 422.4 133.6 377.6 50.4 339.2 12 300.8 12 294.4 12 288 12 281.6 18.4 262.4 24.8 256 37.6 256 56.8 256 69.6 256 108 396.8 165.6 422.4 216.8 448 280.8 467.2 338.4 454.4 376.8 416 460 441.6 498.4 448 517.6 467.2 524 486.4 524 499.2 524 512 517.6 524.8 504.8 544 479.2 544 428 518.4 344.8 544 300 569.6 261.6 608 229.6 640 236 665.6 236 697.6 242.4 761.6 242.4 774.4 210.4 774.4 191.2 768 140 723.2 140 697.6 140M300.8 50.4L300.8 50.4C320 63.2 339.2 76 352 95.2 326.4 88.8 313.6 69.6 300.8 50.4M486.4 479.2L486.4 479.2C480 479.2 480 479.2 473.6 479.2 467.2 453.6 473.6 428 480 408.8 492.8 428 492.8 460 486.4 479.2M499.2 274.4L499.2 274.4 499.2 274.4C486.4 242.4 467.2 210.4 454.4 178.4L454.4 178.4V178.4C486.4 191.2 518.4 197.6 550.4 204L550.4 204H556.8C531.2 223.2 512 248.8 499.2 274.4M691.2 197.6C678.4 197.6 665.6 197.6 652.8 197.6 665.6 191.2 678.4 184.8 697.6 184.8 710.4 184.8 716.8 184.8 723.2 184.8 729.6 191.2 723.2 197.6 691.2 197.6"  horiz-adv-x="1024" vert-adv-y="1024"  />

      
      <glyph glyph-name="kexingbaogao" unicode="&#xE0C7;" d="M128 684H192V-148H128ZM288 460H352V12H288ZM832 684H896V-148H832ZM128-84H896V-148H128ZM128 684H320V620H128ZM288 460H544V396H288ZM288 268H544V204H288ZM288 76H544V12H288ZM704 684H896V620H704ZM354.624 717.088H674.624V589.088H354.624ZM608 492H736V364H608ZM608 300H736V172H608ZM608 108H736V-20H608Z"  horiz-adv-x="1024" vert-adv-y="1024"  />

      
      <glyph glyph-name="piliangshezhi" unicode="&#xE0C8;" d="M140.8 696.8H716.8V632.8H140.8ZM268.8 568.8H844.8V504.8H268.8ZM140.8 120.8H268.8V56.8H140.8ZM268.8-7.2H460.8V-71.2H268.8ZM76.8 696.8H140.8V56.8H76.8ZM204.8 568.8H268.8V-71.2H204.8ZM652.8 696.8H716.8V504.8H652.8ZM780.8 568.8H844.8V376.8H780.8ZM819.2 344.8H563.2L435.2 120.8 563.2-103.2H819.2L947.2 120.8 819.2 344.8ZM684.8 31.2C633.6 31.2 595.2 69.6 595.2 120.8S633.6 210.4 684.8 210.4 774.4 172 774.4 120.8C780.8 69.6 736 31.2 684.8 31.2 691.2 31.2 684.8 31.2 684.8 31.2Z"  horiz-adv-x="1024" vert-adv-y="1024"  />

      
      <glyph glyph-name="xiangmuruqiubianzhi" unicode="&#xE0CA;" d="M313.6 716H64V447.2H960V607.2H473.6L313.6 716ZM64 460H128V-116H64ZM896 524H960V-116H896ZM64-52H960V-116H64ZM256 332H352V236H256ZM256 140H352V44H256ZM448 140H768V44H448ZM448 332H768V236H448Z"  horiz-adv-x="1024" vert-adv-y="1024"  />

      
      <glyph glyph-name="piliangxiugaizujian" unicode="&#xE0CC;" d="M140.8 696.8H716.8V632.8H140.8ZM268.8 568.8H844.8V504.8H268.8ZM140.8 120.8H268.8V56.8H140.8ZM268.8-7.2H460.8V-71.2H268.8ZM76.8 696.8H140.8V56.8H76.8ZM204.8 568.8H268.8V-71.2H204.8ZM652.8 696.8H716.8V504.8H652.8ZM780.8 568.8H844.8V376.8H780.8ZM512 348H928V-68H512ZM812.8 309.6V181.6L716.8 143.2 620.8 181.6V309.6L716.8 348 812.8 309.6ZM512 98.4L608 136.8 704 98.4V-29.6L608-68 512-29.6V98.4M832 143.2L928 104.8V-23.2L832-61.6 736-23.2V104.8L832 143.2Z"  horiz-adv-x="1024" vert-adv-y="1024"  />

      
      <glyph glyph-name="baocunchenggong" unicode="&#xE0CD;" d="M512 812A512 512 0 1 1 512-212 512 512 0 1 1 512 812ZM512 799.2A499.2 499.2 0 1 1 512-199.2 499.2 499.2 0 1 1 512 799.2ZM752.64 517.6C634.88 443.36 529.92 351.2 437.76 246.24L309.76 343.52 256 300 468.48 82.4C540.16 238.56 640 376.8 768 492L752.64 517.6Z"  horiz-adv-x="1024" vert-adv-y="1024"  />

      
      <glyph glyph-name="xiaosuo" unicode="&#xE0CF;" d="M490.6667 577.3333C371.2 577.3333 277.3333 483.4667 277.3333 364S371.2 150.6667 490.6667 150.6667 704 244.5333 704 364 610.1333 577.3333 490.6667 577.3333M490.6667 620C631.4667 620 746.6667 504.8 746.6667 364S631.4667 108 490.6667 108 234.6667 223.2 234.6667 364 349.8667 620 490.6667 620ZM661.3333 193.3333L832 22.6667"  horiz-adv-x="1024" vert-adv-y="1024"  />

      
      <glyph glyph-name="zhankai-bukecaozuo" unicode="&#xE0D1;" d="M158.336 348H862.336V220H158.336ZM574.336 572H862.336V444H574.336ZM158.336 124H862.336V-4H158.336ZM318.336 412L158.336 604H478.336L318.336 412Z"  horiz-adv-x="1024" vert-adv-y="1024"  />

      
      <glyph glyph-name="zhankai-1" unicode="&#xE0D2;" d="M160 351.2H864V223.2H160ZM576 568.8H864V440.8H576ZM160 120.8H864V-7.2H160ZM320 415.2L160 607.2H480L320 415.2Z"  horiz-adv-x="1024" vert-adv-y="1024"  />

      
      <glyph glyph-name="tongzhishuaxin" unicode="&#xE0D3;" d="M503.4667-212C230.4-212 0 18.4 0 300 0 402.4 34.1333 504.8 85.3333 581.6L238.9333 308.5333H93.8667V300C93.8667 69.6 281.6-118.1333 512-126.6667 614.4-126.6667 716.8-84 802.1333-15.7333L844.8-92.5333C750.9333-169.3333 631.4667-212 503.4667-212ZM785.0667 291.4667H930.1333V300C930.1333 530.4 742.4 718.1333 512 718.1333 409.6 718.1333 307.2 675.4667 230.4 607.2L187.7333 692.5333C401.0667 871.7333 716.8 854.6667 904.5333 641.3333 1058.1333 470.6667 1066.6667 214.6667 938.6667 26.9333L785.0667 291.4667Z"  horiz-adv-x="1024" vert-adv-y="1024"  />

      
      <glyph glyph-name="chehui" unicode="&#xE0D5;" d="M66.56 300H128V-84H66.56ZM896 300H957.44V-84H896ZM66.56-17.44H962.56V-78.88H66.56ZM501.76 269.28L158.72 545.76 199.68 596.96 506.88 351.2 875.52 658.4 916.48 607.2 501.76 269.28ZM199.68 474.08L199.68 474.08 148.48 412.64 66.56 668.64 332.8 632.8 276.48 566.24 276.48 566.24 199.68 474.08Z"  horiz-adv-x="1024" vert-adv-y="1024"  />

      
      <glyph glyph-name="cheshuqingshan" unicode="&#xE0D7;" d="M634.88 745.44H128V407.52C128 407.52 128 402.4 133.12 402.4 153.6 376.8 174.08 356.32 194.56 335.84V684H609.28L834.56 458.72V-84H471.04L414.72-135.2 404.48-145.44H901.12V484.32L634.88 745.44ZM128 494.56H189.44V-145.44H128ZM128-84H768V-145.44H128ZM532.48 453.6L742.4 243.68 634.88 136.16 558.08 212.96 348.16 3.04 271.36 79.84 481.28 289.76 348.16 422.88 373.76 453.6 399.36 428 424.96 453.6 450.56 428 476.16 453.6 501.76 428 532.48 453.6 532.48 453.6ZM558.08 146.4L547.84 110.56 629.76 110.56 558.08 146.4ZM747.52 131.04L732.16 172 650.24 120.8 747.52 131.04ZM890.88 458.72H609.28V740.32L890.88 458.72Z"  horiz-adv-x="1024" vert-adv-y="1024"  />

      
      <glyph glyph-name="chengluofenbi" unicode="&#xE0D8;" d="M97.28 714.72V-114.72H926.72V714.72H97.28ZM870.4-58.4H153.6V658.4H870.4L870.4-58.4 870.4-58.4ZM450.56 535.52H276.48V356.32H455.68L450.56 535.52 450.56 535.52ZM747.52 238.56H568.32V59.36H747.52L747.52 238.56 747.52 238.56ZM747.52 535.52H568.32V356.32H747.52L747.52 535.52 747.52 535.52ZM450.56 238.56H276.48V59.36H455.68L450.56 238.56 450.56 238.56Z"  horiz-adv-x="1024" vert-adv-y="1024"  />

      
      <glyph glyph-name="likuwuliaopipei" unicode="&#xE0D9;" d="M911.36 515.04L522.24 274.4 153.6 484.32 563.2 735.2 486.4 781.28 51.2 530.4V95.2L517.12-176.16 972.8 84.96V479.2L911.36 515.04ZM476.16-53.28L143.36 146.4V397.28L225.28 346.08 476.16 202.72V-53.28ZM896 146.4L563.2-53.28V202.72L890.88 412.64V146.4ZM665.6 617.44L757.76 668.64C762.88 668.64 762.88 673.76 757.76 678.88 757.76 678.88 757.76 678.88 757.76 678.88 757.76 678.88 757.76 678.88 752.64 678.88L634.88 735.2C634.88 735.2 629.76 735.2 629.76 735.2L609.28 724.96C604.16 719.84 599.04 714.72 604.16 704.48L624.64 673.76C629.76 668.64 624.64 658.4 619.52 658.4 619.52 658.4 619.52 658.4 619.52 658.4L619.52 658.4 414.72 535.52C409.6 530.4 409.6 530.4 409.6 525.28L409.6 525.28 430.08 484.32C430.08 479.2 435.2 479.2 440.32 484.32L665.6 617.44ZM788.48 617.44L481.28 433.12C476.16 433.12 476.16 428 476.16 422.88 476.16 422.88 476.16 417.76 481.28 417.76L593.92 361.44C599.04 361.44 604.16 361.44 609.28 361.44L624.64 371.68C629.76 376.8 634.88 381.92 629.76 392.16L609.28 428C604.16 433.12 609.28 438.24 614.4 443.36L614.4 443.36 819.2 566.24C824.32 566.24 824.32 571.36 819.2 576.48L798.72 617.44C798.72 617.44 793.6 617.44 788.48 617.44L788.48 617.44Z"  horiz-adv-x="1024" vert-adv-y="1024"  />

      
      <glyph glyph-name="xieyikucunwuliaopipei" unicode="&#xE0DB;" d="M102.4 735.2H307.2V131.04H102.4V735.2ZM716.8 468.96H921.6V-135.2H716.8V468.96ZM102.4 735.2H650.24V668.64H102.4V735.2ZM102.4 197.6H650.24V131.04H102.4V197.6ZM373.76-68.64H921.6V-135.2H373.76V-68.64ZM373.76 468.96H921.6V402.4H373.76V468.96Z"  horiz-adv-x="1024" vert-adv-y="1024"  />

      
      <glyph glyph-name="wuliaotongji" unicode="&#xE0DC;" d="M240.64 44H399.36V-84H240.64ZM240.64 202.72H399.36V74.72H240.64ZM240.64 361.44H399.36V233.44H240.64ZM430.08 44H588.8V-84H430.08ZM430.08 202.72H588.8V74.72H430.08ZM624.64 202.72H783.36V74.72H624.64V202.72ZM624.64 44H783.36V-84H624.64ZM133.12-114.72V453.6L512 673.76 890.88 453.6V-114.72H952.32V489.44L506.88 745.44 61.44 489.44V-114.72H133.12Z"  horiz-adv-x="1024" vert-adv-y="1024"  />

      
      <glyph glyph-name="xiangmucenshu" unicode="&#xE0DD;" d="M64 748H125.44V-81.44H64ZM893.44 748H954.88V297.44H893.44ZM64-50.72H381.44V-112.16H64ZM64 748H960V686.56H64ZM64 507.36H960V445.92H64ZM821.76 297.44L960 56.8 821.76-183.84H545.28L407.04 56.8 545.28 297.44 821.76 297.44ZM775.68 220.64H591.36L499.2 61.92 591.36-96.8H775.68L867.84 61.92 775.68 220.64ZM683.52 123.36A61.44 61.44 0 1 1 683.52 0.48 61.44 61.44 0 1 1 683.52 123.36ZM770.56 620H832V558.56H770.56ZM637.44 620H698.88V558.56H637.44ZM514.56 620H576V558.56H514.56Z"  horiz-adv-x="1024" vert-adv-y="1024"  />

      
      <glyph glyph-name="guanxu" unicode="&#xE0DF;" d="M768-53.28L721.92 8.16 762.88 49.12C829.44 115.68 865.28 202.72 865.28 300 865.28 494.56 706.56 653.28 512 653.28 317.44 653.28 158.72 494.56 158.72 300 158.72 105.44 317.44-53.28 512-53.28H768M896-114.72H512C281.6-114.72 97.28 69.6 97.28 300 97.28 530.4 281.6 714.72 512 714.72 742.4 714.72 926.72 530.4 926.72 300 926.72 182.24 880.64 79.84 803.84 3.04L896-114.72ZM609.28 146.4C522.24 69.6 547.84 202.72 552.96 223.2 558.08 243.68 614.4 351.2 573.44 371.68 532.48 392.16 404.48 294.88 404.48 294.88S384 279.52 384 274.4C399.36 253.92 460.8 294.88 460.8 294.88S481.28 310.24 481.28 294.88C460.8 223.2 445.44 146.4 440.32 69.6 450.56 18.4 527.36 38.88 588.8 105.44S609.28 146.4 609.28 146.4ZM558.08 428C593.92 428 624.64 453.6 624.64 489.44S599.04 556 563.2 556 496.64 530.4 496.64 494.56C496.64 484.32 496.64 474.08 501.76 463.84 512 443.36 532.48 428 558.08 428"  horiz-adv-x="1024" vert-adv-y="1024"  />

      
      <glyph glyph-name="gengxinshuimeng" unicode="&#xE0E0;" d="M128 714.72H189.44V-114.72H128ZM829.44 714.72H890.88V397.28H829.44ZM686.08 238.56H783.36V110.56H686.08ZM686.08 74.72H783.36V-22.56H686.08ZM686.08-53.28H783.36V-114.72H686.08ZM128 714.72H896V653.28H128ZM128-53.28H578.56V-114.72H128ZM317.44 535.52H701.44V458.72H317.44ZM317.44 346.08H512V269.28H317.44ZM737.28 361.44L896 166.88H578.56L737.28 361.44Z"  horiz-adv-x="1024" vert-adv-y="1024"  />

      
      <glyph glyph-name="yonghufankui" unicode="&#xE0E1;" d="M97.28 617.44H481.28V556H97.28ZM225.28 361.44H419.84V284.64H225.28ZM225.28 172H481.28V95.2H225.28ZM97.28-84H865.28V-145.44H97.28ZM97.28 617.44H158.72V-89.12H97.28ZM865.28 617.44H926.72V-150.56H865.28ZM798.72 617.44H926.72V556H798.72ZM647.68 684C627.2 684 606.72 668.64 606.72 653.28V259.04L647.68 212.96 688.64 259.04V653.28C683.52 668.64 668.16 684 647.68 684M647.68 750.56C704 750.56 750.08 709.6 750.08 653.28V238.56L647.68 110.56 545.28 238.56V653.28C545.28 704.48 591.36 750.56 647.68 750.56Z"  horiz-adv-x="1024" vert-adv-y="1024"  />

      
      <glyph glyph-name="shangzhuanrizhi" unicode="&#xE0E2;" d="M97.28 443.36H926.72V381.92H97.28ZM286.72 684H348.16V556H286.72ZM97.28 637.92H158.72V-130.08H97.28ZM865.28 637.92H926.72V-130.08H865.28ZM481.28 187.36H542.72V-130.08H481.28ZM670.72 684H732.16V556H670.72ZM97.28 637.92H225.28V576.48H97.28ZM798.72 637.92H926.72V576.48H798.72ZM414.72 637.92H609.28V576.48H414.72ZM97.28-68.64H481.28V-130.08H97.28ZM670.72-68.64H926.72V-130.08H670.72ZM512 300L670.72 105.44H353.28L512 300Z"  horiz-adv-x="1024" vert-adv-y="1024"  />

      
      <glyph glyph-name="shejijiaoyan" unicode="&#xE0E5;" d="M737.28 172H496.64C506.88 192.48 517.12 279.52 527.36 300H609.28V617.44H97.28V233.44H296.96C307.2 212.96 317.44 192.48 327.68 172H35.84V684H742.4V172ZM993.28 428H737.28V366.56H931.84V-17.44H419.84V300H491.52C501.76 320.48 512 407.52 522.24 428H291.84V-84H998.4V428Z"  horiz-adv-x="1024" vert-adv-y="1024"  />

      
      <glyph glyph-name="shujudiaoyong" unicode="&#xE0E6;" d="M527.36 100.32C522.24 100.32 517.12 100.32 512 100.32L245.76 187.36 593.92 402.4 517.12 422.88C491.52 428 476.16 453.6 486.4 474.08 491.52 499.68 512 515.04 537.6 504.8L537.6 504.8 814.08 433.12 455.68 212.96 542.72 182.24C568.32 172 578.56 151.52 568.32 125.92 563.2 110.56 542.72 100.32 527.36 100.32ZM931.84-63.52L634.88 13.28 650.24 74.72 870.4 18.4V596.96L414.72 709.6V361.44H348.16V791.52L931.84 648.16V-63.52ZM675.84-191.52L92.16-48.16V663.52L389.12 586.72 373.76 525.28 158.72 581.6V3.04L609.28-109.6V238.56H675.84L675.84-191.52Z"  horiz-adv-x="1024" vert-adv-y="1024"  />

      
      <glyph glyph-name="shujujiaoyan" unicode="&#xE0E7;" d="M256 264.16V361.44H512V264.16H256ZM256 69.6V166.88H640V69.6H256ZM256 453.6V550.88H768V453.6H256ZM680.96 653.28H865.28V468.96H926.72V714.72H675.84V653.28ZM158.72 463.84V653.28H343.04V714.72H97.28V463.84H158.72ZM348.16-53.28H158.72V131.04H97.28V-119.84H348.16V-53.28ZM865.28 136.16V-48.16H680.96V-109.6H931.84V141.28H865.28Z"  horiz-adv-x="1024" vert-adv-y="1024"  />

      
      <glyph glyph-name="shizhi-04" unicode="&#xE0E8;" d="M618.0571-175.4286C610.7429-175.4286 603.4286-173.6 597.9429-168.1143L440.6857-45.6H250.5143C171.8857-43.7714 107.8857 23.8857 109.7143 102.5143V329.2571H177.3714V102.5143C175.5429 60.4571 208.4571 25.7143 250.5143 23.8857H455.3143C464.4571 23.8857 473.6 20.2286 479.0857 12.9143L586.9714-71.2V-10.8571C586.9714 7.4286 601.6 23.8857 619.8857 23.8857H775.3143C817.3714 25.7143 850.2857 60.4571 848.4571 102.5143V329.2571H914.2857V102.5143C916.1143 23.8857 853.9429-43.7714 773.4857-45.6H650.9714V-140.6857C650.9714-153.4857 643.6571-166.2857 632.6857-171.7714 629.0286-173.6 623.5429-175.4286 618.0571-175.4286ZM846.6286 413.3714V554.1714C848.4571 596.2286 815.5429 630.9714 773.4857 632.8H250.5143C208.4571 630.9714 175.5429 596.2286 177.3714 554.1714V413.3714H109.7143V554.1714C107.8857 632.8 170.0571 700.4571 250.5143 702.2857H775.3143C853.9429 700.4571 917.9429 632.8 916.1143 554.1714V413.3714H846.6286ZM433.3714 464.5714C415.0857 464.5714 400.4571 449.9429 400.4571 431.6571 400.4571 431.6571 400.4571 431.6571 400.4571 431.6571V398.7429C400.4571 380.4571 415.0857 364 433.3714 364S468.1143 378.6286 468.1143 396.9143C468.1143 396.9143 468.1143 398.7429 468.1143 398.7429V431.6571C466.2857 449.9429 451.6571 464.5714 433.3714 464.5714ZM694.8571 464.5714C676.5714 464.5714 661.9429 449.9429 661.9429 431.6571 661.9429 431.6571 661.9429 431.6571 661.9429 431.6571V398.7429C661.9429 380.4571 676.5714 364 694.8571 364S729.6 378.6286 729.6 396.9143C729.6 396.9143 729.6 398.7429 729.6 398.7429V431.6571C727.7714 449.9429 713.1429 464.5714 694.8571 464.5714 694.8571 464.5714 694.8571 464.5714 694.8571 464.5714L694.8571 464.5714ZM493.7143 300H640C660.1143 300 676.5714 283.5429 676.5714 263.4286L676.5714 263.4286C676.5714 243.3143 660.1143 226.8571 640 226.8571H493.7143C473.6 226.8571 457.1429 243.3143 457.1429 263.4286L457.1429 263.4286C457.1429 283.5429 473.6 300 493.7143 300Z"  horiz-adv-x="1024" vert-adv-y="1024"  />

      
      <glyph glyph-name="shizhi-03" unicode="&#xE0E9;" d="M618.0571-175.4286C610.7429-175.4286 603.4286-173.6 597.9429-168.1143L440.6857-45.6H250.5143C171.8857-43.7714 107.8857 23.8857 109.7143 102.5143V329.2571H177.3714V102.5143C175.5429 60.4571 208.4571 25.7143 250.5143 23.8857H455.3143C464.4571 23.8857 473.6 20.2286 479.0857 12.9143L586.9714-71.2V-10.8571C586.9714 7.4286 601.6 23.8857 619.8857 23.8857H775.3143C817.3714 25.7143 850.2857 60.4571 848.4571 102.5143V329.2571H914.2857V102.5143C916.1143 23.8857 853.9429-43.7714 773.4857-45.6H650.9714V-140.6857C650.9714-153.4857 643.6571-166.2857 632.6857-171.7714 629.0286-173.6 623.5429-175.4286 618.0571-175.4286ZM846.6286 413.3714V554.1714C848.4571 596.2286 815.5429 630.9714 773.4857 632.8H250.5143C208.4571 630.9714 175.5429 596.2286 177.3714 554.1714V413.3714H109.7143V554.1714C107.8857 632.8 170.0571 700.4571 250.5143 702.2857H775.3143C853.9429 700.4571 917.9429 632.8 916.1143 554.1714V413.3714H846.6286ZM647.3143 219.5429C632.6857 210.4 610.7429 214.0571 601.6 228.6857 592.4571 241.4857 579.6571 248.8 565.0286 250.6286 550.4 248.8 537.6 241.4857 528.4571 230.5143 519.3143 214.0571 497.3714 210.4 482.7429 219.5429 466.2857 228.6857 462.6286 250.6286 471.7714 265.2571 491.8857 296.3429 526.6286 316.4571 565.0286 318.2857 603.4286 316.4571 638.1714 298.1714 658.2857 267.0857 667.4286 250.6286 661.9429 230.5143 647.3143 219.5429ZM433.3714 464.5714C415.0857 464.5714 400.4571 449.9429 400.4571 431.6571 400.4571 431.6571 400.4571 431.6571 400.4571 431.6571V398.7429C400.4571 380.4571 415.0857 364 433.3714 364S468.1143 378.6286 468.1143 396.9143C468.1143 396.9143 468.1143 398.7429 468.1143 398.7429V431.6571C466.2857 449.9429 451.6571 464.5714 433.3714 464.5714ZM694.8571 464.5714C676.5714 464.5714 661.9429 449.9429 661.9429 431.6571 661.9429 431.6571 661.9429 431.6571 661.9429 431.6571V398.7429C661.9429 380.4571 676.5714 364 694.8571 364S729.6 378.6286 729.6 396.9143C729.6 396.9143 729.6 398.7429 729.6 398.7429V431.6571C727.7714 449.9429 713.1429 464.5714 694.8571 464.5714 694.8571 464.5714 694.8571 464.5714 694.8571 464.5714L694.8571 464.5714Z"  horiz-adv-x="1024" vert-adv-y="1024"  />

      
      <glyph glyph-name="shizhi-01" unicode="&#xE0EA;" d="M468.1143 120.8H554.0571V33.0286H468.1143ZM539.4286 175.6571H484.5714L468.1143 449.9429H555.8857L539.4286 175.6571ZM976.4571-10.8571L795.4286 303.6571 731.4286 267.0857 914.2857-47.4286 914.2857-49.2571C914.2857-51.0857 912.4571-51.0857 912.4571-51.0857L548.5714-51.0857V-124.2286H912.4571C954.5143-124.2286 987.4286-89.4857 987.4286-49.2571 987.4286-34.6286 983.7714-21.8286 976.4571-10.8571ZM327.3143 331.0857L510.1714 651.0857C510.1714 651.0857 510.1714 651.0857 512 651.0857 512 651.0857 513.8286 651.0857 513.8286 649.2571L696.6857 331.0857 760.6857 367.6571 577.8286 685.8286C557.7143 722.4 512 735.2 475.4286 713.2571 464.4571 705.9429 453.4857 696.8 448 685.8286L265.1429 367.6571 327.3143 331.0857ZM109.7143-45.6L290.7429 267.0857 226.7429 303.6571 47.5429-9.0286C25.6-45.6 38.4-91.3143 74.9714-113.2571 85.9429-120.5714 100.5714-124.2286 113.3714-124.2286H475.4286V-51.0857L111.5429-51.0857C109.7143-49.2571 109.7143-47.4286 109.7143-45.6Z"  horiz-adv-x="1024" vert-adv-y="1024"  />

      
      <glyph glyph-name="shizhi-02" unicode="&#xE0EB;" d="M618.0571-175.4286C610.7429-175.4286 603.4286-173.6 597.9429-168.1143L440.6857-45.6H250.5143C171.8857-43.7714 107.8857 23.8857 109.7143 102.5143V329.2571H177.3714V102.5143C175.5429 60.4571 208.4571 25.7143 250.5143 23.8857H455.3143C464.4571 23.8857 473.6 20.2286 479.0857 12.9143L586.9714-71.2V-10.8571C586.9714 7.4286 601.6 23.8857 619.8857 23.8857H775.3143C817.3714 25.7143 850.2857 60.4571 848.4571 102.5143V329.2571H914.2857V102.5143C916.1143 23.8857 853.9429-43.7714 773.4857-45.6H650.9714V-140.6857C650.9714-153.4857 643.6571-166.2857 632.6857-171.7714 629.0286-173.6 623.5429-175.4286 618.0571-175.4286ZM846.6286 413.3714V554.1714C848.4571 596.2286 815.5429 630.9714 773.4857 632.8H250.5143C208.4571 630.9714 175.5429 596.2286 177.3714 554.1714V413.3714H109.7143V554.1714C107.8857 632.8 170.0571 700.4571 250.5143 702.2857H775.3143C853.9429 700.4571 917.9429 632.8 916.1143 554.1714V413.3714H846.6286ZM433.3714 464.5714C415.0857 464.5714 400.4571 449.9429 400.4571 431.6571 400.4571 431.6571 400.4571 431.6571 400.4571 431.6571V398.7429C400.4571 380.4571 415.0857 364 433.3714 364S468.1143 378.6286 468.1143 396.9143C468.1143 396.9143 468.1143 398.7429 468.1143 398.7429V431.6571C466.2857 449.9429 451.6571 464.5714 433.3714 464.5714ZM694.8571 464.5714C676.5714 464.5714 661.9429 449.9429 661.9429 431.6571 661.9429 431.6571 661.9429 431.6571 661.9429 431.6571V398.7429C661.9429 380.4571 676.5714 364 694.8571 364S729.6 378.6286 729.6 396.9143C729.6 396.9143 729.6 398.7429 729.6 398.7429V431.6571C727.7714 449.9429 713.1429 464.5714 694.8571 464.5714 694.8571 464.5714 694.8571 464.5714 694.8571 464.5714L694.8571 464.5714ZM647.3143 312.8C632.6857 321.9429 610.7429 318.2857 601.6 303.6571 592.4571 290.8571 579.6571 283.5429 565.0286 281.7143 550.4 283.5429 537.6 290.8571 528.4571 301.8286 519.3143 318.2857 497.3714 321.9429 482.7429 312.8 466.2857 303.6571 462.6286 281.7143 471.7714 267.0857L471.7714 267.0857C491.8857 236 526.6286 215.8857 565.0286 214.0571 603.4286 215.8857 638.1714 234.1714 658.2857 265.2571 667.4286 281.7143 661.9429 301.8286 647.3143 312.8L647.3143 312.8Z"  horiz-adv-x="1024" vert-adv-y="1024"  />

      
      <glyph glyph-name="shizhi-05" unicode="&#xE0EC;" d="M468.1143 241.4857H544.9143V162.8571H468.1143ZM469.9429 278.0571V300C468.1143 331.0857 486.4 360.3429 513.8286 374.9714 535.7714 391.4286 557.7143 411.5429 557.7143 431.6571 555.8857 457.2571 543.0857 470.0571 515.6571 470.0571 479.0857 470.0571 464.4571 433.4857 460.8 409.7143H394.9714C398.6286 433.4857 418.7429 530.4 517.4857 530.4 570.5143 530.4 632.6857 513.9429 632.6857 435.3143 632.6857 402.4 614.4 373.1429 577.8286 345.7143 559.5429 334.7429 548.5714 316.4571 544.9143 294.5143V278.0571H469.9429ZM621.7143-153.4857C614.4-153.4857 607.0857-151.6571 601.6-146.1714L440.6857-23.6571H241.3714C160.9143-21.8286 96.9143 44 96.9143 124.4571V349.3714H166.4V122.6286C164.5714 80.5714 199.3143 45.8286 241.3714 44 241.3714 44 241.3714 44 241.3714 44H451.6571C460.8 44 469.9429 40.3429 477.2571 33.0286L588.8-51.0857V7.4286C588.8 27.5429 603.4286 42.1714 623.5429 42.1714H784.4571C826.5143 44 861.2571 78.7429 859.4286 120.8 859.4286 120.8 859.4286 120.8 859.4286 120.8V349.3714H928.9143V122.6286C930.7429 42.1714 864.9143-23.6571 784.4571-25.4857 784.4571-25.4857 784.4571-25.4857 784.4571-25.4857H658.2857V-120.5714C656.4571-138.8571 641.8286-153.4857 621.7143-153.4857 621.7143-153.4857 621.7143-153.4857 621.7143-153.4857L621.7143-153.4857ZM857.6 433.4857V574.2857C859.4286 616.3429 824.6857 651.0857 782.6286 652.9143 782.6286 652.9143 782.6286 652.9143 782.6286 652.9143H241.3714C199.3143 651.0857 164.5714 616.3429 166.4 574.2857 166.4 574.2857 166.4 574.2857 166.4 574.2857V433.4857H96.9143V574.2857C95.0857 654.7429 160.9143 720.5714 241.3714 722.4H782.6286C863.0857 720.5714 927.0857 654.7429 927.0857 574.2857V433.4857H857.6Z"  horiz-adv-x="1024" vert-adv-y="1024"  />

      
      <glyph glyph-name="shizhi-06" unicode="&#xE0ED;" d="M54.8571 592.5714H128V-47.4286H54.8571ZM877.7143 482.8571H950.8571V-47.4286H877.7143ZM384 592.5714H457.1429V482.8571H384ZM658.2857 592.5714H731.4286V482.8571H658.2857ZM73.1429 7.4286H932.5714V-65.7143H73.1429ZM128 665.7143H384V592.5714H128ZM457.1429 665.7143H658.2857V592.5714H457.1429ZM274.2857 135.4286H347.4286V98.8571H274.2857ZM585.1429 135.4286H658.2857V98.8571H585.1429ZM658.2857 98.8571H749.7143V62.2857H658.2857ZM347.4286 172H585.1429V135.4286H347.4286ZM402.2857 556H877.7143V482.8571H402.2857ZM329.1429 263.4286V300H292.5714V336.5714H329.1429V300H365.7143V263.4286H329.1429ZM256 263.4286V300H292.5714V263.4286H256ZM329.1429 336.5714V373.1429H365.7143V336.5714H329.1429ZM256 336.5714V373.1429H292.5714V336.5714H256ZM694.8571 263.4286V300H658.2857V336.5714H694.8571V300H731.4286V263.4286H694.8571ZM621.7143 263.4286V300H658.2857V263.4286H621.7143ZM694.8571 336.5714V373.1429H731.4286V336.5714H694.8571ZM621.7143 336.5714V373.1429H658.2857V336.5714H621.7143Z"  horiz-adv-x="1024" vert-adv-y="1024"  />

      
      <glyph glyph-name="icon-jingzhi" unicode="&#xE0EE;" d="M1024 294.3111C1018.3111 9.8667 790.7556-212 506.3111-212 221.8667-206.3111 0 21.2444 0 305.6889 5.6889 584.4444 227.5556 806.3111 506.3111 812 790.7556 817.6889 1018.3111 590.1333 1024 305.6889 1024 300 1024 300 1024 294.3111ZM489.2444 556C472.1778 556 460.8 544.6222 460.8 527.5556 460.8 527.5556 460.8 527.5556 460.8 527.5556L477.8667 197.6H546.1333L563.2 527.5556C563.2 544.6222 551.8222 556 540.4444 556 540.4444 556 540.4444 556 540.4444 556H489.2444ZM512 44C540.4444 44 563.2 66.7556 563.2 95.2S540.4444 146.4 512 146.4C483.5556 146.4 460.8 123.6444 460.8 95.2 460.8 95.2 460.8 95.2 460.8 95.2 460.8 66.7556 483.5556 44 512 44Z"  horiz-adv-x="1024" vert-adv-y="1024"  />

      
      <glyph glyph-name="icon-cuowu" unicode="&#xE0EF;" d="M512 812C796.4444 812 1024 584.4444 1024 300S796.4444-212 512-212C227.5556-212 0 15.5556 0 300 0 436.5333 51.2 567.3778 147.9111 664.0889 244.6222 755.1111 375.4667 812 512 812ZM512 362.5778L392.5333 482.0444C386.8444 487.7333 375.4667 493.4222 364.0889 493.4222 341.3333 493.4222 318.5778 476.3556 318.5778 447.9111 318.5778 436.5333 324.2667 425.1556 329.9556 413.7778L449.4222 300 329.9556 180.5333C318.5778 174.8444 318.5778 163.4667 318.5778 146.4 318.5778 123.6444 335.6444 100.8889 364.0889 100.8889 375.4667 100.8889 386.8444 106.5778 398.2222 112.2667L512 237.4222 631.4667 117.9556C642.8444 106.5778 659.9111 100.8889 671.2889 106.5778 688.3556 112.2667 699.7333 123.6444 699.7333 135.0222 705.4222 152.0889 699.7333 163.4667 688.3556 174.8444L574.5778 300 694.0444 419.4667C705.4222 425.1556 705.4222 436.5333 705.4222 453.6 705.4222 476.3556 682.6667 499.1111 659.9111 499.1111 648.5333 499.1111 637.1556 493.4222 625.7778 487.7333L512 362.5778Z"  horiz-adv-x="1024" vert-adv-y="1024"  />

      
      <glyph glyph-name="icon-chenggong" unicode="&#xE0F0;" d="M512 812C796.4444 812 1024 584.4444 1024 300S796.4444-212 512-212C227.5556-212 0 15.5556 0 300 0 436.5333 51.2 567.3778 147.9111 664.0889 244.6222 755.1111 375.4667 812 512 812ZM449.4222 197.6L335.6444 311.3778C324.2667 322.7556 312.8889 322.7556 301.5111 322.7556 290.1333 322.7556 278.7556 317.0667 273.0667 311.3778 261.6889 305.6889 261.6889 294.3111 261.6889 282.9333 261.6889 271.5556 267.3778 260.1778 273.0667 254.4889L420.9778 106.5778C438.0444 89.5111 466.4889 89.5111 483.5556 106.5778L785.0667 408.0889C796.4444 419.4667 802.1333 436.5333 796.4444 447.9111 790.7556 464.9778 779.3778 476.3556 768 476.3556 750.9333 482.0444 739.5556 476.3556 728.1778 464.9778L449.4222 197.6Z"  horiz-adv-x="1024" vert-adv-y="1024"  />

      
      <glyph glyph-name="shizhi-yibai" unicode="&#xE0F1;" d="M512 812A512 512 0 1 1 512-212 512 512 0 1 1 512 812ZM512 799.2A499.2 499.2 0 1 1 512-199.2 499.2 499.2 0 1 1 512 799.2ZM716.8 151.52L660.48 100.32 514.56 297.44C458.24 236 407.04 169.44 366.08 97.76L307.2 143.84C337.92 177.12 366.08 210.4 396.8 243.68 419.84 269.28 442.88 292.32 465.92 317.92 476.16 328.16 473.6 335.84 465.92 343.52 414.72 389.6 363.52 438.24 314.88 484.32 332.8 509.92 337.92 509.92 363.52 492 412.16 456.16 458.24 420.32 504.32 384.48 517.12 374.24 524.8 374.24 537.6 384.48 586.24 430.56 640 468.96 698.88 499.68L709.12 481.76 555.52 343.52 716.8 151.52Z"  horiz-adv-x="1024" vert-adv-y="1024"  />

      
      <glyph glyph-name="shizhi-chenggong" unicode="&#xE0F2;" d="M512 812A512 512 0 1 1 512-212 512 512 0 1 1 512 812ZM512 799.2A499.2 499.2 0 1 1 512-199.2 499.2 499.2 0 1 1 512 799.2ZM752.64 517.6C634.88 443.36 529.92 351.2 437.76 246.24L309.76 343.52 256 300 468.48 82.4C540.16 238.56 640 376.8 768 492L752.64 517.6Z"  horiz-adv-x="1024" vert-adv-y="1024"  />

      
      <glyph glyph-name="shizhi-jinggao" unicode="&#xE0F3;" d="M512 812C230.4 812 0 581.6 0 300S230.4-212 512-212 1024 18.4 1024 300 793.6 812 512 812ZM512 799.2C235.52 799.2 12.8 576.48 12.8 300S235.52-199.2 512-199.2 1011.2 23.52 1011.2 300 788.48 799.2 512 799.2ZM542.72 177.12L555.52 532.96H473.6L486.4 177.12H542.72ZM512 148.96C488.96 148.96 471.04 133.6 471.04 110.56V108C471.04 87.52 486.4 69.6 506.88 67.04H509.44C529.92 67.04 550.4 82.4 550.4 102.88V105.44C550.4 125.92 535.04 146.4 514.56 146.4 514.56 148.96 512 148.96 512 148.96Z"  horiz-adv-x="1024" vert-adv-y="1024"  />

      
      <glyph glyph-name="detuyuan" unicode="&#xE0F5;" d="M526.6286-109.6C468.1143-109.6 402.2857-94.9714 351.0857-65.7143L351.0857-65.7143 343.7714-65.7143C321.8286-73.0286 292.5714-73.0286 270.6286-80.3429 248.6857-80.3429 226.7429-87.6571 204.8-87.6571 131.6571-94.9714 65.8286-65.7143 21.9429-7.2-21.9429 65.9429 7.3143 168.3429 109.7143 278.0571L117.0286 278.0571 124.3429 285.3714C109.7143 519.4286 292.5714 709.6 519.3143 709.6 519.3143 709.6 519.3143 709.6 526.6286 709.6 607.0857 709.6 694.8571 680.3429 760.6857 636.4571L768 629.1429 775.3143 629.1429C782.6286 629.1429 782.6286 636.4571 789.9429 636.4571 804.5714 636.4571 811.8857 636.4571 826.5143 636.4571 899.6571 643.7714 965.4857 614.5143 1009.3714 556 1045.9429 490.1714 1024 402.4 950.8571 300L950.8571 300 943.5429 285.3714C928.9143 65.9429 746.0571-109.6 526.6286-109.6M819.2 175.6571C760.6857 131.7714 702.1714 87.8857 643.6571 51.3143 599.7714 22.0571 548.5714 0.1143 504.6857-21.8286L504.6857-43.7714C512-43.7714 519.3143-43.7714 526.6286-43.7714 658.2857-43.7714 782.6286 36.6857 841.1429 161.0286L819.2 175.6571ZM117.0286 175.6571C73.1429 109.8286 65.8286 58.6286 80.4571 29.3714 95.0857 0.1143 138.9714-14.5143 204.8-14.5143 212.1143-14.5143 226.7429-14.5143 234.0571-14.5143L256-14.5143 241.3714 0.1143C190.1714 44 153.6 102.5143 131.6571 168.3429L124.3429 197.6 117.0286 175.6571ZM526.6286 636.4571C336.4571 636.4571 190.1714 490.1714 190.1714 300 190.1714 182.9714 256 73.2571 351.0857 7.4286L358.4 7.4286 365.7143 7.4286C453.4857 29.3714 533.9429 65.9429 614.4 117.1429 709.4857 168.3429 797.2571 241.4857 870.4 321.9429L870.4 321.9429 870.4 329.2571C848.4571 504.8 702.1714 636.4571 526.6286 636.4571M848.4571 548.6857C877.7143 512.1143 899.6571 468.2286 914.2857 424.3429L921.6 395.0857 936.2286 424.3429C950.8571 453.6 958.1714 490.1714 943.5429 519.4286 921.6 548.6857 892.3429 563.3143 863.0857 563.3143L833.8286 563.3143 848.4571 548.6857Z"  horiz-adv-x="1024" vert-adv-y="1024"  />

      
      <glyph glyph-name="zidingyidiaoyong" unicode="&#xE0F6;" d="M96 140H160V-116H96ZM672 268H736V-52H672ZM352 652H416V-52H352ZM96 716H160V460H96ZM864 140H928V-116H864ZM864 716H928V460H864ZM160-52H928V-116H160ZM160 716H928V652H160ZM96 332H928V268H96Z"  horiz-adv-x="1024" vert-adv-y="1024"  />

      
      <glyph glyph-name="kanchashujudiaoyong" unicode="&#xE0F7;" d="M384 428H64V748H384V428ZM128 492H320V684H128V492ZM384-148H64V172H384V-148ZM128-84H320V108H128V-84ZM960-148H640V172H960V-148ZM704-84H896V108H704V-84ZM352 620H672V556H352ZM352 44H672V-20H352ZM768 332H832V140H768ZM192 460H256V140H192ZM800 709.6C729.6 709.6 672 652 672 575.2 672 536.8 684.8 504.8 710.4 479.2L800 389.6 889.6 479.2C915.2 504.8 928 536.8 928 575.2 928 652 870.4 709.6 800 709.6M800 773.6C908.8 773.6 992 684 992 575.2 992 524 972.8 472.8 934.4 434.4L800 300 665.6 440.8C627.2 472.8 608 524 608 575.2 608 684 691.2 773.6 800 773.6ZM800 524C774.4 524 748.8 543.2 748.8 575.2S774.4 620 800 620 851.2 600.8 851.2 568.8 825.6 524 800 524ZM800 588C793.6 588 787.2 581.6 787.2 575.2 787.2 556 819.2 556 819.2 575.2 819.2 581.6 806.4 588 800 588Z"  horiz-adv-x="1024" vert-adv-y="1024"  />

      
      <glyph glyph-name="shejishujudiaoyong" unicode="&#xE0F9;" d="M480 812H544V620H480ZM83.3485-150.3667L392.1997 108.8102 433.3389 59.7862 124.4877-199.3907ZM595.488 55.1718L636.6272 104.1958 945.4784-154.9811 904.3392-204.0051ZM960 44H64V684H960V44ZM128 108H896V620H128V108ZM800 204H736C736 325.6 633.6 428 512 428S288 325.6 288 204H224C224 364 352 492 512 492S800 364 800 204ZM448 524H576V396H448Z"  horiz-adv-x="1024" vert-adv-y="1024"  />

      
      <glyph glyph-name="guanlianxiangmushezhi" unicode="&#xE0FA;" d="M460.8 24.8V280.8L684.8 408.8 908.8 280.8V24.8L684.8-103.2 460.8 24.8ZM396.8 319.2V-13.6L684.8-180 972.8-13.6V319.2L684.8 485.6 396.8 319.2ZM115.2 24.8V280.8L339.2 408.8 563.2 280.8V24.8L339.2-103.2 115.2 24.8ZM51.2 319.2V-13.6L339.2-180 627.2-13.6V319.2L339.2 485.6 51.2 319.2ZM288 319.2V575.2L512 703.2 736 575.2V319.2L512 191.2 288 319.2ZM512 780L224 613.6V280.8L512 114.4 800 280.8V613.6L512 780Z"  horiz-adv-x="1024" vert-adv-y="1024"  />

      
      <glyph glyph-name="censhushezhi" unicode="&#xE0FB;" d="M448-52V140H512V76H896V12H512V-52H448ZM128 12V76H384V12H128ZM256 204V268H128V332H256V396H320V204H256ZM384 268V332H896V268H384ZM640 460V652H704V588H896V524H704V460H640ZM128 524V588H576V524H128Z"  horiz-adv-x="1024" vert-adv-y="1024"  />

      
      <glyph glyph-name="shanshu" unicode="&#xE0FC;" d="M832 556V-148H192V556H64V620H960V556H832ZM768 492H256V-84H768V492ZM448 12H384V396H448V12ZM640 12H576V396H640V12ZM320 748H704V684H320V748Z"  horiz-adv-x="1024" vert-adv-y="1024"  />

      
      <glyph glyph-name="dakaichengluomulu" unicode="&#xE0FD;" d="M256 492L64-20H832L1024 492H256ZM524.8 255.2L569.6 383.2H870.4L825.6 255.2H524.8ZM812.8 460L556.8 652H64V-20H128V588H531.2L723.2 460H812.8Z"  horiz-adv-x="1024" vert-adv-y="1024"  />

      
      <glyph glyph-name="shejishuimeng" unicode="&#xE0FE;" d="M665.6 479.2C652.8 492 627.2 492 614.4 479.2L505.6 370.4 390.4 479.2C390.4 479.2 390.4 479.2 390.4 479.2 377.6 492 352 492 339.2 479.2L268.8 408.8C268.8 408.8 268.8 408.8 268.8 408.8 256 396 256 370.4 268.8 357.6L384 242.4 294.4 152.8 300.8 146.4 294.4 146.4 268.8 44C262.4 31.2 268.8 12 281.6-0.8 288-7.2 300.8-13.6 313.6-13.6 320-13.6 320-13.6 326.4-7.2L441.6 31.2 441.6 31.2C448 31.2 454.4 37.6 460.8 37.6L524.8 101.6 640-13.6C646.4-20 652.8-20 665.6-20 672-20 678.4-20 684.8-13.6L768 69.6 774.4 76C774.4 76 774.4 76 774.4 76L774.4 76V76C774.4 76 780.8 82.4 780.8 88.8S780.8 95.2 774.4 101.6V108L646.4 236 755.2 344.8C755.2 344.8 755.2 344.8 755.2 344.8 768 357.6 768 383.2 755.2 396L665.6 479.2C665.6 479.2 665.6 479.2 665.6 479.2ZM371.2 376.8L352 351.2 320 383.2 364.8 428 467.2 325.6 422.4 280.8 390.4 312.8 409.6 332 371.2 376.8ZM326.4 50.4L339.2 108 377.6 69.6 326.4 50.4ZM428.8 95.2L371.2 152.8 576 351.2 633.6 293.6 428.8 95.2ZM704 88.8L659.2 44 640 63.2 659.2 82.4 620.8 120.8 601.6 108 563.2 146.4 608 191.2 704 88.8ZM672 338.4L614.4 396 646.4 428 704 364 672 338.4ZM832 684H704V748H320V684H192 128V620-84-148H192 832 896V-84 620 684H832ZM384 684H640V620H384V684ZM832-84H192V620H320V556H704V620H832V-84Z"  horiz-adv-x="1024" vert-adv-y="1024"  />

      
      <glyph glyph-name="shigongshuimeng" unicode="&#xE0FF;" d="M832 620V-84H192V620H832M896 684H128V-148H896V684ZM320 492H384V428H320V492ZM448 492H704V428H448V492ZM320 300H384V236H320V300ZM448 300H704V236H448V300ZM320 108H384V44H320V108ZM448 108H704V44H448V108Z"  horiz-adv-x="1024" vert-adv-y="1024"  />

      
      <glyph glyph-name="xincengziji" unicode="&#xE100;" d="M320-148V44H128V498.4C38.4 511.2-12.8 594.4 6.4 684 19.2 773.6 102.4 824.8 192 805.6 281.6 792.8 332.8 709.6 313.6 620 300.8 556 256 511.2 192 498.4V300H320V492H960V-148H320ZM320 236H192V108H320V236ZM896 428H384V-84H896V428ZM614.4 325.6H678.4V197.6H806.4V133.6H678.4V5.6H614.4V133.6H486.4V197.6H614.4V325.6Z"  horiz-adv-x="1024" vert-adv-y="1024"  />

      
      <glyph glyph-name="tucengguanli_xuanfuqiu" unicode="&#xE102;" d="M935.232 332.384L512.832 127.584 84.032 338.784C64.832 345.184 45.632 338.784 39.232 325.984 32.832 313.184 39.232 293.984 52.032 287.584 52.032 287.584 52.032 287.584 52.032 287.584L500.032 69.984C506.432 69.984 512.832 63.584 519.232 63.584 525.632 63.584 532.032 63.584 532.032 69.984L973.632 281.184C986.432 287.584 999.232 306.784 986.432 319.584 986.432 319.584 986.432 319.584 986.432 319.584 973.632 338.784 954.432 345.184 935.232 332.384ZM935.232 140.384L512.832-64.416 84.032 146.784C64.832 153.184 45.632 146.784 39.232 133.984 32.832 121.184 39.232 101.984 52.032 95.584 52.032 95.584 52.032 95.584 52.032 95.584L500.032-122.016C506.432-122.016 512.832-128.416 519.232-128.416 525.632-128.416 532.032-128.416 532.032-122.016L973.632 89.184C986.432 95.584 999.232 114.784 986.432 127.584 986.432 127.584 986.432 127.584 986.432 127.584 973.632 146.784 948.032 153.184 935.232 140.384M52.032 466.784L500.032 274.784C506.432 268.384 519.232 268.384 532.032 274.784L973.632 466.784C986.432 473.184 999.232 492.384 992.832 505.184 992.832 511.584 986.432 517.984 973.632 524.384L532.032 722.784C525.632 729.184 512.832 729.184 500.032 722.784L52.032 524.384C39.232 517.984 26.432 498.784 32.832 485.984 39.232 479.584 45.632 473.184 52.032 466.784"  horiz-adv-x="1024" vert-adv-y="1024"  />

      
      <glyph glyph-name="tucengguanli_zhaibianlan" unicode="&#xE103;" d="M51.2 466.4L499.2 274.4C505.6 268 518.4 268 531.2 274.4L972.8 466.4C985.6 472.8 998.4 492 992 504.8 992 511.2 985.6 517.6 972.8 524L531.2 722.4C524.8 728.8 512 728.8 499.2 722.4L51.2 524C38.4 517.6 25.6 498.4 32 485.6 38.4 479.2 44.8 472.8 51.2 466.4M512 664.8L876.8 498.4 512 344.8 147.2 498.4 512 664.8ZM934.4 332L512 127.2 83.2 338.4C64 344.8 44.8 338.4 38.4 325.6 32 312.8 38.4 293.6 51.2 287.2L51.2 287.2 499.2 69.6C505.6 69.6 512 63.2 518.4 63.2S531.2 63.2 531.2 69.6L972.8 280.8C985.6 287.2 998.4 306.4 985.6 319.2L985.6 319.2C972.8 338.4 953.6 344.8 934.4 332ZM934.4 140L512-64.8 83.2 146.4C64 152.8 44.8 146.4 38.4 133.6 32 120.8 38.4 101.6 51.2 95.2L51.2 95.2 499.2-122.4C505.6-122.4 512-128.8 518.4-128.8S531.2-128.8 531.2-122.4L972.8 88.8C985.6 95.2 998.4 114.4 985.6 127.2L985.6 127.2C972.8 146.4 947.2 152.8 934.4 140"  horiz-adv-x="1024" vert-adv-y="1024"  />

      
      <glyph glyph-name="yewuzhuxing" unicode="&#xE104;" d="M435.2 415.2H582.4C601.6 415.2 620.8 434.4 620.8 453.6 620.8 472.8 601.6 485.6 582.4 492H435.2C416 492 396.8 472.8 396.8 453.6 403.2 428 416 415.2 435.2 415.2M697.6 338.4H326.4C307.2 338.4 288 319.2 288 300V300C288 280.8 307.2 261.6 326.4 261.6H704C723.2 261.6 742.4 280.8 742.4 300V300C736 319.2 716.8 338.4 697.6 338.4M588.8 184.8H435.2C416 184.8 396.8 165.6 396.8 146.4 396.8 127.2 416 114.4 435.2 108H582.4C601.6 108 620.8 127.2 620.8 146.4 620.8 172 608 184.8 588.8 184.8M512-154.4C486.4-154.4 460.8-148 441.6-128.8L83.2 229.6C44.8 268 44.8 325.6 83.2 364L448 728.8C486.4 767.2 544 767.2 582.4 728.8L947.2 364C985.6 325.6 985.6 268 947.2 229.6L582.4-135.2C563.2-148 537.6-154.4 512-154.4ZM512 696.8C505.6 696.8 492.8 696.8 486.4 690.4L128 325.6C115.2 312.8 115.2 287.2 128 280.8L486.4-84C499.2-96.8 518.4-96.8 531.2-84L896 280.8C908.8 293.6 908.8 312.8 896 325.6L537.6 684C531.2 690.4 518.4 696.8 512 696.8Z"  horiz-adv-x="1024" vert-adv-y="1024"  />

      
      <glyph glyph-name="hebing" unicode="&#xE105;" d="M864-52V428H640V652H160V172H384V-52H864M928-116H320V108H96V716H704V492H928V-116ZM384 178.4H320V236H384V178.4ZM384 300H320V364H384V300ZM640 428H576V492H640V428ZM512 428H448V492H512V428ZM384 428L320 428V492H384V428ZM704 108H640V172L704 172V108ZM576 108H512V172H576V108ZM448 108H384V172H448V108ZM704 236H640V300H704V236ZM704 364H640V428H704V364Z"  horiz-adv-x="1024" vert-adv-y="1024"  />

      
      <glyph glyph-name="chefen" unicode="&#xE106;" d="M384-20L192-20 192 620 384 620 384 492 448 492 448 620 448 684 384 684 192 684 128 684 128 620 128-20 128-84 384-84 448-84 448-20 448 108 384 108ZM832 684L640 684 576 684 576 620 576 492 640 492 640 620 832 620 832-20 640-20 640 108 576 108 576-20 576-84 640-84 896-84 896-20 896 620 896 684ZM281.6 268C275.2 268 275.2 268 275.2 261.6 275.2 261.6 275.2 255.2 275.2 255.2L352 146.4C352 140 358.4 140 364.8 140H384C390.4 140 396.8 146.4 396.8 152.8L396.8 191.2C396.8 197.6 403.2 204 409.6 204 409.6 204 409.6 204 409.6 204H601.6C608 204 608 204 608 210.4 608 210.4 608 210.4 608 210.4V261.6C608 268 608 268 601.6 268V268L281.6 268ZM736 332C742.4 332 742.4 332 742.4 338.4 742.4 338.4 742.4 338.4 742.4 338.4 742.4 338.4 742.4 338.4 742.4 344.8L665.6 460C665.6 460 659.2 466.4 659.2 460L633.6 460C627.2 460 620.8 453.6 620.8 447.2V408.8C620.8 402.4 614.4 396 608 396H416C409.6 396 409.6 396 409.6 389.6L409.6 344.8C409.6 338.4 409.6 338.4 416 338.4L627.2 338.4H736Z"  horiz-adv-x="1024" vert-adv-y="1024"  />

      
      <glyph glyph-name="sanjiaoxing" unicode="&#xE107;" d="M512 588L140.8-52H876.8L512 588M512 716L992-116H32L512 716ZM435.2 780H595.2V620H435.2ZM0 12H160V-148H0ZM864 12H1024V-148H864Z"  horiz-adv-x="1024" vert-adv-y="1024"  />

      
      <glyph glyph-name="chexiao-1" unicode="&#xE108;" d="M608-84H288V-20H608C748.8-20 864 95.2 864 236S748.8 492 608 492H288V556H608C787.2 556 928 415.2 928 236S787.2-84 608-84ZM352 460L352 460 352 364 96 524 352 684V594.4H352V460Z"  horiz-adv-x="1024" vert-adv-y="1024"  />

      
      <glyph glyph-name="haiyuanbanben" unicode="&#xE109;" d="M556.8-173.6C544-173.6 537.6-173.6 524.8-173.6 435.2-167.2 352-135.2 281.6-84L326.4-20C499.2-148 742.4-109.6 870.4 69.6 928 146.4 953.6 248.8 940.8 344.8 915.2 556 723.2 709.6 505.6 677.6 326.4 652 185.6 511.2 166.4 325.6L166.4 312.8H256L128 140 0 312.8H89.6L89.6 325.6C108.8 568.8 307.2 760.8 556.8 760.8 569.6 760.8 576 760.8 588.8 760.8 844.8 741.6 1036.8 517.6 1024 261.6 1004.8 18.4 806.4-173.6 556.8-173.6L556.8-173.6ZM588.8 293.6L774.4 140 729.6 88.8 524.8 261.6H524.8V536.8H595.2V293.6Z"  horiz-adv-x="1024" vert-adv-y="1024"  />

      
      <glyph glyph-name="juxing" unicode="&#xE10A;" d="M960-20H64V620H960V-20ZM128 44H896V556H128V44ZM0 684H160V524H0ZM864 76H1024V-84H864Z"  horiz-adv-x="1024" vert-adv-y="1024"  />

      
      <glyph glyph-name="jiantou" unicode="&#xE10B;" d="M210.2172 554.3276L255.4721 599.5824 961.4475-106.393 916.1926-151.6478ZM89.6 722.4L416 671.2 147.2 396 89.6 722.4Z"  horiz-adv-x="1024" vert-adv-y="1024"  />

      
      <glyph glyph-name="jianju" unicode="&#xE10C;" d="M435.2 300L224 140V460L435.2 300ZM864 748H960V-148H864ZM64 748H160V-148H64ZM595.2 300L806.4 140V460L595.2 300Z"  horiz-adv-x="1024" vert-adv-y="1024"  />

      
      <glyph glyph-name="huifu-1" unicode="&#xE10D;" d="M96 236C96 415.2 236.8 556 416 556H736V492H416C275.2 492 160 376.8 160 236S275.2-20 416-20H736V-84H416C236.8-84 96 56.8 96 236ZM672 594.4L672 594.4 672 684 928 524 672 364V460H672V594.4Z"  horiz-adv-x="1024" vert-adv-y="1024"  />

      
      <glyph glyph-name="tuoputu" unicode="&#xE10E;" d="M642.8444 726.6667C648.5333 726.6667 659.9111 720.9778 665.6 715.2889L870.4 510.4889C876.0889 504.8 881.7778 499.1111 881.7778 487.7333V-98.2222C881.7778-115.2889 870.4-126.6667 853.3333-126.6667 853.3333-126.6667 853.3333-126.6667 853.3333-126.6667H170.6667C164.9778-126.6667 153.6-120.9778 147.9111-115.2889 142.2222-109.6 136.5333-103.9111 136.5333-92.5333V698.2222C136.5333 715.2889 147.9111 726.6667 164.9778 726.6667L642.8444 726.6667ZM711.1111 726.6667V556H881.7778L711.1111 726.6667ZM477.8667 4.1778V527.5556H534.7556V4.1778H477.8667ZM540.4444 66.7556H483.5556V100.8889C483.5556 117.9556 438.0444 146.4 409.6 163.4667 358.4 197.6 307.2 231.7333 307.2 277.2444V351.2H364.0889V277.2444C364.0889 260.1778 409.6 231.7333 438.0444 208.9778 489.2444 174.8444 540.4444 140.7111 540.4444 95.2V66.7556ZM540.4444 55.3778H483.5556C483.5556 100.8889 534.7556 135.0222 585.9556 169.1556 614.4 186.2222 665.6 220.3556 665.6 237.4222V311.3778H722.4889V237.4222C722.4889 191.9111 671.2889 157.7778 614.4 123.6444 585.9556 100.8889 540.4444 66.7556 540.4444 55.3778ZM506.3111 556A68.2667 68.2667 0 1 1 506.3111 419.4667 68.2667 68.2667 0 1 1 506.3111 556ZM512 413.7778C472.1778 413.7778 438.0444 447.9111 438.0444 487.7333S472.1778 556 512 556 580.2667 521.8667 580.2667 487.7333 546.1333 413.7778 512 413.7778ZM512 499.1111C506.3111 499.1111 500.6222 493.4222 500.6222 487.7333 500.6222 470.6667 529.0667 470.6667 529.0667 487.7333 523.3778 493.4222 517.6889 499.1111 512 499.1111ZM329.9556 470.6667A68.2667 68.2667 0 1 1 329.9556 334.1333 68.2667 68.2667 0 1 1 329.9556 470.6667ZM329.9556 328.4444C290.1333 328.4444 261.6889 362.5778 261.6889 396.7111S290.1333 470.6667 329.9556 470.6667 398.2222 436.5333 398.2222 402.4 369.7778 328.4444 329.9556 328.4444ZM329.9556 413.7778C324.2667 413.7778 318.5778 408.0889 318.5778 402.4 318.5778 385.3333 347.0222 385.3333 347.0222 402.4 347.0222 408.0889 341.3333 413.7778 329.9556 413.7778ZM694.0444 442.2222A68.2667 68.2667 0 1 1 694.0444 305.6889 68.2667 68.2667 0 1 1 694.0444 442.2222ZM694.0444 300C654.2222 300 625.7778 334.1333 625.7778 368.2667S659.9111 436.5333 694.0444 436.5333 762.3111 402.4 762.3111 368.2667 733.8667 300 694.0444 300ZM694.0444 385.3333C688.3556 385.3333 682.6667 379.6444 682.6667 373.9556 682.6667 356.8889 711.1111 356.8889 711.1111 373.9556 705.4222 379.6444 699.7333 385.3333 694.0444 385.3333ZM426.6667 44H597.3333V-12.8889H426.6667V44Z"  horiz-adv-x="1024" vert-adv-y="1024"  />

      
      <glyph glyph-name="wenben" unicode="&#xE10F;" d="M166.4 684H857.6V447.2H825.6C825.6 447.2 768 594.4 697.6 607.2 659.2 613.6 620.8 613.6 582.4 613.6L582.4 5.6C582.4 5.6 601.6-32.8 633.6-39.2H704V-84H320L320-39.2 384-39.2C384-39.2 428.8-26.4 428.8 12S428.8 607.2 428.8 607.2C390.4 613.6 352 613.6 313.6 607.2 249.6 581.6 204.8 524 192 453.6L160 453.6V684Z"  horiz-adv-x="1024" vert-adv-y="1024"  />

      
      <glyph glyph-name="tuodong" unicode="&#xE110;" d="M448 524L448 524 352 524 512 780 672 524H582.4V524H448ZM448 76L448 76 352 76 512-180 672 76H582.4V76H448ZM736 364L736 364 736 460 992 300 736 140V229.6H736V364ZM480 524H544V76H480V524ZM288 332H736V268H288V332ZM288 364L288 364 288 460 32 300 288 140V229.6H288V364Z"  horiz-adv-x="1024" vert-adv-y="1024"  />

      
      <glyph glyph-name="tukuang" unicode="&#xE111;" d="M928-116V325.6L793.6 460H352V-116H928M1024-212H256V556H832L1024 364V-212ZM736 556L1024 268H736V556ZM256 812H384V620H256ZM0 556H192V428H0Z"  horiz-adv-x="1024" vert-adv-y="1024"  />

      
      <glyph glyph-name="xianzhishezhi" unicode="&#xE112;" d="M0 684H96V-20H0ZM928 684H1024V-20H928ZM0 684H1024V588H0ZM0 76H320V-20H0ZM704 76H1024V-20H704ZM512 44L704-148H320L512 44ZM768 319.2C710.4 460 556.8 530.4 416 479.2 339.2 447.2 281.6 389.6 256 319.2L256 319.2 256 319.2 256 319.2C307.2 178.4 467.2 108 608 159.2 684.8 184.8 742.4 242.4 768 319.2L768 319.2 768 319.2ZM512 242.4C473.6 242.4 441.6 274.4 441.6 312.8S473.6 389.6 512 389.6 582.4 357.6 582.4 319.2 550.4 242.4 512 242.4Z"  horiz-adv-x="1024" vert-adv-y="1024"  />

      
      <glyph glyph-name="zhixian" unicode="&#xE113;" d="M82.0407 684.6725L127.2955 729.9273 941.8825-84.6597 896.6277-129.9145ZM844.8-32.8H1004.8V-192.8H844.8ZM19.2 792.8H179.2V632.8H19.2Z"  horiz-adv-x="1024" vert-adv-y="1024"  />

      
      <glyph glyph-name="yuanxing" unicode="&#xE114;" d="M512-180C249.6-180 32 37.6 32 300S249.6 780 512 780 992 562.4 992 300 774.4-180 512-180ZM512 716C281.6 716 96 530.4 96 300S281.6-116 512-116 928 69.6 928 300 742.4 716 512 716ZM435.2 376.8H595.2V216.8H435.2ZM864 376.8H1024V216.8H864ZM576 332H640V268H576ZM704 332H768V268H704ZM832 332H896V268H832Z"  horiz-adv-x="1024" vert-adv-y="1024"  />

      
      <glyph glyph-name="baocun-1" unicode="&#xE115;" d="M288 364H736V300H288ZM672 172H736V44H672ZM544 172H608V44H544ZM416 172H480V44H416ZM288 172H352V44H288ZM96 748V18.4L262.4-148H928V748H96ZM864-84H288L160 44V492H864V-84Z"  horiz-adv-x="1024" vert-adv-y="1024"  />

      
      <glyph glyph-name="xuxian" unicode="&#xE116;" d="M80.1408 685.021L125.3957 730.2758 469.3324 386.339 424.0776 341.0842ZM19.9996 751.0272L65.2544 796.282 105.9838 755.5527 60.729 710.2978ZM921.9145-152.5248L967.1693-107.27 1007.8987-147.9993 962.6438-193.2542ZM551.1021 211.4587L596.357 256.7135 935.7682-82.6978 890.5134-127.9526ZM940.8 31.2V-128.8H780.8L940.8 31.2ZM83.2 728.8H243.2L83.2 568.8V728.8ZM512 364A64 64 0 1 1 512 236 64 64 0 1 1 512 364Z"  horiz-adv-x="1024" vert-adv-y="1024"  />

      
      <glyph glyph-name="xianluozhuanjiaojiaozheng" unicode="&#xE117;" d="M851.2 280.8A38.4 38.4 0 1 1 851.2 204 38.4 38.4 0 1 1 851.2 280.8ZM851.2 76C755.2 76 678.4 152.8 678.4 248.8 678.4 344.8 755.2 421.6 851.2 421.6S1024 338.4 1024 242.4C1024 152.8 947.2 76 851.2 76ZM851.2 319.2C812.8 319.2 774.4 287.2 774.4 242.4 774.4 204 806.4 165.6 851.2 165.6S928 197.6 928 242.4C928 287.2 889.6 319.2 851.2 319.2ZM185.6 383.2A38.4 38.4 0 1 1 185.6 306.4 38.4 38.4 0 1 1 185.6 383.2ZM185.6 165.6C83.2 165.6 0 242.4 0 344.8S83.2 530.4 185.6 530.4 371.2 447.2 371.2 344.8 288 165.6 185.6 165.6ZM185.6 421.6C140.8 421.6 108.8 389.6 108.8 344.8S140.8 268 185.6 268 262.4 300 262.4 344.8 230.4 421.6 185.6 421.6ZM460.8 543.2C416 543.2 377.6 575.2 364.8 620 364.8 645.6 371.2 671.2 384 690.4 396.8 709.6 422.4 722.4 441.6 728.8 467.2 735.2 492.8 728.8 512 716 531.2 703.2 544 677.6 550.4 658.4L550.4 658.4C556.8 600.8 524.8 556 473.6 543.2 467.2 543.2 460.8 543.2 460.8 543.2ZM460.8 664.8C454.4 664.8 454.4 664.8 460.8 664.8 448 658.4 441.6 658.4 435.2 652 428.8 645.6 428.8 639.2 428.8 632.8 428.8 620 448 607.2 460.8 607.2 473.6 607.2 486.4 626.4 486.4 639.2 486.4 645.6 480 652 473.6 658.4 467.2 658.4 460.8 664.8 460.8 664.8ZM524.8-128.8C473.6-128.8 435.2-90.4 435.2-39.2S473.6 50.4 524.8 50.4 614.4 12 614.4-39.2 576-128.8 524.8-128.8ZM524.8-7.2C512-7.2 499.2-20 499.2-32.8 499.2-45.6 512-58.4 524.8-58.4S550.4-45.6 550.4-32.8C550.4-20 537.6-7.2 524.8-7.2ZM588.8 18.4H556.8V351.2C556.8 376.8 576 389.6 595.2 389.6H614.4C640 389.6 652.8 370.4 652.8 351.2V242.4L710.4 242.4V210.4H652.8C633.6 210.4 620.8 223.2 620.8 242.4V351.2C627.2 357.6 620.8 364 614.4 364H595.2C588.8 364 588.8 357.6 588.8 351.2V18.4ZM473.6 575.2H505.6V18.4H473.6ZM384 332H339.2V364H384C390.4 364 390.4 364 390.4 370.4V588H422.4V370.4C422.4 344.8 409.6 332 384 332ZM435.2 127.2L492.8 197.6 537.6 127.2ZM460.8 485.6L409.6 421.6 358.4 485.6Z"  horiz-adv-x="1024" vert-adv-y="1024"  />

      
      <glyph glyph-name="zhushangbianyaqi" unicode="&#xE118;" d="M92.8 72.8C-32 197.6-32 402.4 92.8 527.2 217.6 652 422.4 652 547.2 527.2 672 402.4 672 200.8 547.2 76 483.2 12 403.2-20 320-20 236.8-20 156.8 12 92.8 72.8ZM137.6 482.4C38.4 383.2 38.4 220 137.6 120.8 236.8 21.6 400 21.6 499.2 120.8 598.4 220 598.4 383.2 499.2 482.4 451.2 530.4 384 556 320 556 256 556 188.8 530.4 137.6 482.4ZM476.8 72.8C416 133.6 384 213.6 384 300S416 466.4 476.8 527.2C601.6 652 806.4 652 931.2 527.2 1056 402.4 1056 200.8 931.2 76 867.2 12 787.2-20 704-20 620.8-20 540.8 12 476.8 72.8ZM521.6 482.4C473.6 431.2 448 367.2 448 300S473.6 168.8 521.6 117.6C620.8 18.4 784 18.4 883.2 117.6 982.4 216.8 982.4 380 883.2 479.2 835.2 530.4 768 556 704 556 640 556 572.8 530.4 521.6 482.4ZM720 271.2C716.8 280.8 704 300 694.4 312.8V172H675.2V303.2C665.6 274.4 652.8 245.6 640 226.4 636.8 232.8 633.6 242.4 630.4 245.6 649.6 268 665.6 312.8 675.2 351.2H636.8V370.4H678.4V428H697.6V373.6H732.8V354.4H697.6V338.4C707.2 325.6 729.6 293.6 736 287.2L720 271.2ZM886.4 200.8V181.6H726.4V200.8H800V274.4H742.4V293.6H800V357.6H736V376.8H880V357.6H819.2V293.6H873.6V274.4H819.2V200.8H886.4ZM806.4 376.8C803.2 389.6 793.6 405.6 787.2 421.6L806.4 428C816 415.2 822.4 396 828.8 383.2L806.4 376.8Z"  horiz-adv-x="1024" vert-adv-y="1024"  />

      
      <glyph glyph-name="ganta" unicode="&#xE119;" d="M0 812H1024V-212H0ZM512-212C230.4-212 0 18.4 0 300S230.4 812 512 812 1024 581.6 1024 300C1024 18.4 793.6-212 512-212M512 748C265.6 748 64 546.4 64 300S265.6-148 512-148 960 53.6 960 300C960 546.4 758.4 748 512 748M512-4C345.6-4 208 133.6 208 300S345.6 604 512 604 816 466.4 816 300C816 133.6 678.4-4 512-4M512 572C361.6 572 240 450.4 240 300S361.6 28 512 28 784 149.6 784 300C784 450.4 662.4 572 512 572"  horiz-adv-x="1024" vert-adv-y="1024"  />

      
      <glyph glyph-name="fengdian" unicode="&#xE11A;" d="M928 620C947.2 620 960 607.2 960 588V12C960-7.2 947.2-20 928-20H96C76.8-20 64-7.2 64 12V588C64 607.2 76.8 620 96 620H928M928 684H96C41.6 684 0 642.4 0 588V12C0-42.4 41.6-84 96-84H928C982.4-84 1024-42.4 1024 12V588C1024 642.4 982.4 684 928 684L928 684ZM51.2 312.8L972.8 312.8M608 655.2L947.2-39.2M614.4-39.2L960 658.4M707.2 453.6L857.6 453.6M656 556L905.6 556M716.8 168.8L848 168.8M665.6 63.2L899.2 63.2"  horiz-adv-x="1024" vert-adv-y="1024"  />

      
      </font>
</defs>
</svg>
