<svg xmlns="http://www.w3.org/2000/svg" width="58.787" height="58.788" viewBox="0 0 58.787 58.788">
  <defs>
    <style>
      .cls-1, .cls-2 {
        fill: #fff;
      }

      .cls-1 {
        stroke: #4da944;
      }

      .cls-3, .cls-4 {
        fill: #4da944;
      }

      .cls-3 {
        font-size: 13px;
        font-family: PingFangSC-Regular, PingFang SC;
      }

      .cls-5, .cls-7 {
        stroke: none;
      }

      .cls-6 {
        fill: none;
      }

      .cls-7 {
        fill: #4da944;
      }
    </style>
  </defs>
  <g id="已完成" transform="matrix(0.966, 0.259, -0.259, 0.966, -6636.566, -7157.78)">
    <g id="椭圆_44" data-name="椭圆 44" class="cls-1" transform="translate(8275 5193)">
      <circle class="cls-5" cx="24" cy="24" r="24"/>
      <circle class="cls-6" cx="24" cy="24" r="23.5"/>
    </g>
    <g id="椭圆_45" data-name="椭圆 45" class="cls-1" transform="translate(8282 5200)">
      <circle class="cls-5" cx="17" cy="17" r="17"/>
      <circle class="cls-6" cx="17" cy="17" r="16.5"/>
    </g>
    <g id="路径_557" data-name="路径 557" class="cls-2" transform="translate(8272 5209)">
      <path class="cls-5" d="M 53.5 16.5 L 0.5 16.5 L 0.5 0.5 L 53.5 0.5 L 53.5 16.5 Z"/>
      <path class="cls-7" d="M 1 1 L 1 16 L 53 16 L 53 1 L 1 1 M 0 0 L 54 0 L 54 17 L 0 17 L 0 0 Z"/>
    </g>
    <text id="已完成-2" data-name="已完成" class="cls-3" transform="translate(8279 5222)"><tspan x="0" y="0">已完成</tspan></text>
    <circle id="椭圆_46" data-name="椭圆 46" class="cls-4" cx="1" cy="1" r="1" transform="translate(8298 5196)"/>
    <circle id="椭圆_47" data-name="椭圆 47" class="cls-4" cx="1" cy="1" r="1" transform="translate(8283 5203)"/>
    <circle id="椭圆_48" data-name="椭圆 48" class="cls-4" cx="1" cy="1" r="1" transform="translate(8313 5203)"/>
    <circle id="椭圆_49" data-name="椭圆 49" class="cls-4" cx="1" cy="1" r="1" transform="translate(8313 5229)"/>
    <circle id="椭圆_50" data-name="椭圆 50" class="cls-4" cx="1" cy="1" r="1" transform="translate(8298 5236)"/>
    <circle id="椭圆_51" data-name="椭圆 51" class="cls-4" cx="1" cy="1" r="1" transform="translate(8283 5229)"/>
  </g>
</svg>
