<svg xmlns="http://www.w3.org/2000/svg" width="58.787" height="58.788" viewBox="0 0 58.787 58.788">
  <defs>
    <style>
      .cls-1 {
        fill: #fff;
        stroke: #c1c1c1;
      }

      .cls-2, .cls-3 {
        fill: #c1c1c1;
      }

      .cls-2 {
        font-size: 13px;
        font-family: PingFangSC-Regular, PingFang SC;
      }

      .cls-4 {
        stroke: none;
      }

      .cls-5 {
        fill: none;
      }
    </style>
  </defs>
  <g id="未开始" transform="matrix(0.966, 0.259, -0.259, 0.966, -6636.566, -7157.78)">
    <g id="椭圆_44" data-name="椭圆 44" class="cls-1" transform="translate(8275 5193)">
      <circle class="cls-4" cx="24" cy="24" r="24"/>
      <circle class="cls-5" cx="24" cy="24" r="23.5"/>
    </g>
    <g id="椭圆_45" data-name="椭圆 45" class="cls-1" transform="translate(8282 5200)">
      <circle class="cls-4" cx="17" cy="17" r="17"/>
      <circle class="cls-5" cx="17" cy="17" r="16.5"/>
    </g>
    <g id="矩形_818" data-name="矩形 818" class="cls-1" transform="translate(8272 5209)">
      <rect class="cls-4" width="54" height="17"/>
      <rect class="cls-5" x="0.5" y="0.5" width="53" height="16"/>
    </g>
    <text id="未开始-2" data-name="未开始" class="cls-2" transform="translate(8279 5222)"><tspan x="0" y="0">未开始</tspan></text>
    <circle id="椭圆_46" data-name="椭圆 46" class="cls-3" cx="1" cy="1" r="1" transform="translate(8298 5196)"/>
    <circle id="椭圆_47" data-name="椭圆 47" class="cls-3" cx="1" cy="1" r="1" transform="translate(8283 5203)"/>
    <circle id="椭圆_48" data-name="椭圆 48" class="cls-3" cx="1" cy="1" r="1" transform="translate(8313 5203)"/>
    <circle id="椭圆_49" data-name="椭圆 49" class="cls-3" cx="1" cy="1" r="1" transform="translate(8313 5229)"/>
    <circle id="椭圆_50" data-name="椭圆 50" class="cls-3" cx="1" cy="1" r="1" transform="translate(8298 5236)"/>
    <circle id="椭圆_51" data-name="椭圆 51" class="cls-3" cx="1" cy="1" r="1" transform="translate(8283 5229)"/>
  </g>
</svg>
