<svg xmlns="http://www.w3.org/2000/svg" xmlns:xlink="http://www.w3.org/1999/xlink" width="22" height="22" viewBox="0 0 22 22">
  <defs>
    <style>
      .cls-1, .cls-3, .cls-4 {
        fill: #fff;
      }

      .cls-1 {
        stroke: #8c8c8c;
      }

      .cls-2 {
        clip-path: url(#clip-path);
      }

      .cls-5 {
        fill: #8c8c8c;
      }

      .cls-6, .cls-7 {
        stroke: none;
      }

      .cls-7 {
        fill: #8c8c8c;
      }

      .cls-8 {
        fill: none;
      }
    </style>
    <clipPath id="clip-path">
      <rect id="矩形_882" data-name="矩形 882" class="cls-1" width="22" height="22" transform="translate(8 8)"/>
    </clipPath>
  </defs>
  <g id="导入" class="cls-2" transform="translate(-8 -8)">
    <g id="路径_687" data-name="路径 687" class="cls-3" transform="translate(9.916 16)">
      <path class="cls-6" d="M 17.17715644836426 10.97070217132568 L 1.073576211929321 10.97070217132568 C 0.7573062181472778 10.97070217132568 0.4999962151050568 10.72721195220947 0.4999962151050568 10.42791175842285 L 0.4999962151050568 1.042792081832886 C 0.4999962151050568 0.743492066860199 0.7573062181472778 0.5000020265579224 1.073576211929321 0.5000020265579224 L 6.310346126556396 0.5000020265579224 L 10.27553653717041 0.5000020265579224 L 14.2746057510376 0.5000020265579224 L 17.17715644836426 0.5000020265579224 C 17.4934253692627 0.5000020265579224 17.75073623657227 0.743492066860199 17.75073623657227 1.042792081832886 L 17.75073623657227 10.42791175842285 C 17.75073623657227 10.72721195220947 17.4934253692627 10.97070217132568 17.17715644836426 10.97070217132568 Z"/>
      <path class="cls-7" d="M 1.073575973510742 1.000001907348633 C 1.025026321411133 1.000001907348633 0.9999961853027344 1.02999210357666 0.9999961853027344 1.042792320251465 L 0.9999961853027344 10.42791175842285 C 0.9999961853027344 10.44071197509766 1.025026321411133 10.47070217132568 1.073575973510742 10.47070217132568 L 17.17715644836426 10.47070217132568 C 17.22570610046387 10.47070217132568 17.25073623657227 10.44071197509766 17.25073623657227 10.42791175842285 L 17.25073623657227 1.042792320251465 C 17.25073623657227 1.02999210357666 17.22570610046387 1.000001907348633 17.17715644836426 1.000001907348633 L 14.27460670471191 1.000001907348633 L 10.27553558349609 1.000001907348633 L 6.310346603393555 1.000001907348633 L 1.073575973510742 1.000001907348633 M 1.073575973510742 1.9073486328125e-06 L 6.310346603393555 1.9073486328125e-06 L 10.27553558349609 1.9073486328125e-06 L 14.27460670471191 1.9073486328125e-06 L 17.17715644836426 1.9073486328125e-06 C 17.77007675170898 1.9073486328125e-06 18.25073623657227 0.4668722152709961 18.25073623657227 1.042792320251465 L 18.25073623657227 10.42791175842285 C 18.25073623657227 11.00383186340332 17.77007675170898 11.47070217132568 17.17715644836426 11.47070217132568 L 1.073575973510742 11.47070217132568 C 0.4806556701660156 11.47070217132568 -3.814697265625e-06 11.00383186340332 -3.814697265625e-06 10.42791175842285 L -3.814697265625e-06 1.042792320251465 C -3.814697265625e-06 0.4668722152709961 0.4806556701660156 1.9073486328125e-06 1.073575973510742 1.9073486328125e-06 Z"/>
    </g>
    <rect id="矩形_1004" data-name="矩形 1004" class="cls-4" width="12" height="5" transform="translate(13 15)"/>
    <g id="矩形_1003" data-name="矩形 1003" class="cls-1" transform="translate(19 15)">
      <rect class="cls-6" width="1" height="10"/>
      <rect class="cls-8" x="0.5" y="0.5" height="9"/>
    </g>
    <path id="路径_688" data-name="路径 688" class="cls-5" d="M4.5,0,9,5H0Z" transform="translate(15 10)"/>
  </g>
</svg>
