<svg xmlns="http://www.w3.org/2000/svg" xmlns:xlink="http://www.w3.org/1999/xlink" width="16" height="16" viewBox="0 0 16 16">
  <defs>
    <style>
      .cls-1 {
        fill: #fff;
        stroke: #707070;
      }

      .cls-2 {
        clip-path: url(#clip-path);
      }

      .cls-3 {
        fill: #505050;
      }
    </style>
    <clipPath id="clip-path">
      <rect id="矩形_1056" data-name="矩形 1056" class="cls-1" width="16" height="16" transform="translate(1066 199)"/>
    </clipPath>
  </defs>
  <g id="user" class="cls-2" transform="translate(-1066 -199)">
    <path id="路径_753" data-name="路径 753" class="cls-3" d="M133,132.722a2.361,2.361,0,1,1,2.361-2.361A2.361,2.361,0,0,1,133,132.722Zm-5,4.722v-.278a3.889,3.889,0,0,1,3.889-3.889h2.222A3.889,3.889,0,0,1,138,137.167v.278a.556.556,0,0,1-.556.556h-8.889A.556.556,0,0,1,128,137.444Z" transform="translate(941 74)"/>
  </g>
</svg>
