<svg id="图层_1" data-name="图层 1"
    xmlns="http://www.w3.org/2000/svg"
    xmlns:xlink="http://www.w3.org/1999/xlink" viewBox="0 0 25 25">
    <defs>
        <style>.cls-1{fill:none;}.cls-2{clip-path:url(#clip-path);}.cls-3{fill:#fff;}.cls-4{fill:#707070;}.cls-5{fill:#4da944;}.cls-6{isolation:isolate;}</style>
        <clipPath id="clip-path">
            <rect class="cls-1" x="-0.21" y="0.12" width="25" height="25"/>
        </clipPath>
    </defs>
    <g class="cls-2">
        <g id="exel">
            <g id="组_1103" data-name="组 1103">
                <g id="路径_836-3" data-name="路径 836-3">
                    <path class="cls-3" d="M19.29,21.3h-15V3.93H16.07L19.29,7Z"/>
                    <path class="cls-4" d="M4.79,4.43V20.8h14V7.25L15.87,4.43H4.79m-1-1H16.28l3.51,3.4v15h-16Z"/>
                </g>
                <g id="矩形_1198-3" data-name="矩形 1198-3">
                    <rect class="cls-5" x="3.79" y="9.11" width="16" height="8"/>
                    <path class="cls-4" d="M19.79,17.11h-16v-8h16Zm-15-1h14v-6h-14Z"/>
                </g>
                <g id="X" class="cls-6">
                    <g class="cls-6">
                        <path class="cls-3" d="M11.65,12.84,10.46,10.7h.78l.53,1,.34.67h0a7.31,7.31,0,0,1,.3-.67l.52-1h.73L12.5,12.87l1.27,2.25H13L12.42,14c-.12-.22-.23-.45-.37-.72h0l-.34.72-.57,1.1h-.74Z"/>
                    </g>
                </g>
            </g>
        </g>
    </g>
</svg>