<svg id="图层_1" data-name="图层 1"
    xmlns="http://www.w3.org/2000/svg"
    xmlns:xlink="http://www.w3.org/1999/xlink" viewBox="0 0 25 25">
    <defs>
        <style>.cls-1,.cls-6{fill:none;}.cls-2{clip-path:url(#clip-path);}.cls-3{fill:#fff;}.cls-4{fill:#707070;}.cls-5{fill:#505050;}.cls-6{stroke:#707070;}.cls-7{isolation:isolate;}</style>
        <clipPath id="clip-path">
            <rect class="cls-1" x="-0.21" y="0.12" width="25" height="25"/>
        </clipPath>
    </defs>
    <g class="cls-2">
        <g id="jpg">
            <g id="组_1098" data-name="组 1098">
                <g id="路径_836-2" data-name="路径 836-2">
                    <path class="cls-3" d="M19.79,21.8h-15V4.43H16.57l3.22,3.11Z"/>
                    <path class="cls-4" d="M5.29,4.93V21.3h14V7.75L16.37,4.93H5.29m-1-1H16.78l3.51,3.4v15h-16Z"/>
                </g>
                <g id="矩形_1198-2" data-name="矩形 1198-2">
                    <rect class="cls-5" x="4.29" y="9.61" width="16" height="8"/>
                    <rect class="cls-6" x="4.79" y="10.11" width="15" height="7"/>
                </g>
                <g id="_.JPG" data-name=" .JPG" class="cls-7">
                    <g class="cls-7">
                        <path class="cls-3" d="M6.22,15.21a.46.46,0,1,1,.92,0,.46.46,0,1,1-.92,0Z"/>
                        <path class="cls-3" d="M7.76,15l.48-.36a.79.79,0,0,0,.72.49c.44,0,.66-.24.66-.89v-3h.7v3.06c0,.8-.39,1.43-1.29,1.43A1.35,1.35,0,0,1,7.76,15Z"/>
                        <path class="cls-3" d="M11.46,11.2H12.8c1,0,1.68.33,1.68,1.33s-.7,1.41-1.66,1.41h-.67v1.67h-.69Zm1.29,2.18c.71,0,1.05-.27,1.05-.85s-.37-.77-1.07-.77h-.58v1.62Z"/>
                        <path class="cls-3" d="M15.1,13.42a2.07,2.07,0,0,1,2.06-2.3,1.76,1.76,0,0,1,1.31.55l-.38.45a1.18,1.18,0,0,0-.91-.4c-.82,0-1.37.64-1.37,1.67s.49,1.7,1.4,1.7a1.1,1.1,0,0,0,.7-.22v-1H17v-.57h1.51v1.92a2.08,2.08,0,0,1-3.44-1.76Z"/>
                    </g>
                </g>
            </g>
        </g>
    </g>
</svg>