<svg xmlns="http://www.w3.org/2000/svg"
    xmlns:xlink="http://www.w3.org/1999/xlink" width="25" height="25" viewBox="0 0 25 25">
    <defs>
        <style>
      .cls-1 {
        fill: #939393;
      }

      .cls-2 {
        clip-path: url(#clip-path);
      }

      .cls-3, .cls-5 {
        fill: #fff;
      }

      .cls-4 {
        fill: #e34e3a;
        stroke: #707070;
      }

      .cls-6, .cls-7 {
        stroke: none;
      }

      .cls-7 {
        fill: #707070;
      }

      .cls-8 {
        fill: none;
      }
        </style>
        <clipPath id="clip-path">
            <rect id="矩形_1205" data-name="矩形 1205" class="cls-1" width="25" height="25" transform="translate(826 296)"/>
        </clipPath>
    </defs>
    <g id="pdf" class="cls-2" transform="translate(-826 -296)">
        <g id="组_1104" data-name="组 1104" transform="translate(136.502 -1.686)">
            <g id="路径_836" data-name="路径 836" class="cls-3" transform="translate(695 301)">
                <path class="cls-6" d="M 15.5 17.87037467956543 L 0.5 17.87037467956543 L 0.5 0.4999954402446747 L 12.28494453430176 0.4999954402446747 L 15.5 3.611242532730103 L 15.5 17.87037467956543 Z"/>
                <path class="cls-7" d="M 1 0.9999961853027344 L 1 17.37037467956543 L 15 17.37037467956543 L 15 3.823160171508789 L 12.08263874053955 0.9999961853027344 L 1 0.9999961853027344 M 0 -3.814697265625e-06 L 12.48727035522461 -3.814697265625e-06 L 16 3.39930534362793 L 16 18.37037467956543 L 0 18.37037467956543 L 0 -3.814697265625e-06 Z"/>
            </g>
            <g id="矩形_1198" data-name="矩形 1198" class="cls-4" transform="translate(695 306.685)">
                <rect class="cls-6" width="16" height="8"/>
                <rect class="cls-8" x="0.5" y="0.5" width="15" height="7"/>
            </g>
        </g>
        <path id="路径_840" data-name="路径 840" class="cls-5" d="M349.649,348.589a1.481,1.481,0,0,0-.346.028,1.17,1.17,0,0,0,.393.1.617.617,0,0,0,.262-.028c.009-.037-.047-.1-.309-.1m-1.8-.7-.009.028-.009-.009a9.653,9.653,0,0,1-.393.895l.028-.009v.028a6.519,6.519,0,0,1,.9-.261l-.009-.009h.037a4.83,4.83,0,0,1-.543-.662m-.093-1.91h-.037c-.009,0-.038,0-.047.009a1.175,1.175,0,0,0,.075.671,1.127,1.127,0,0,0,.009-.68m-1.758,3.951.037-.009a.93.93,0,0,0,.44-.363,1,1,0,0,0-.477.373m3.7-.811a1.789,1.789,0,0,1-.973-.391,8.344,8.344,0,0,0-1.571.5c-.4.727-.795,1.1-1.122,1.1a.393.393,0,0,1-.206-.047.384.384,0,0,1-.224-.354c0-.112.028-.457,1.281-.988a8.979,8.979,0,0,0,.692-1.64c-.168-.317-.5-1.1-.262-1.491a.447.447,0,0,1,.739-.037c.178.242.168.745-.066,1.472a4.322,4.322,0,0,0,.823,1.062,5.034,5.034,0,0,1,.832-.084c.617.009.711.308.692.475.028.419-.4.419-.636.419" transform="translate(491.535 -38.967)"/>
    </g>
</svg>
