<?xml version="1.0" standalone="no"?>
<!DOCTYPE svg PUBLIC "-//W3C//DTD SVG 1.1//EN" "http://www.w3.org/Graphics/SVG/1.1/DTD/svg11.dtd" >
<!--
2013-9-30: Created.
-->
<svg>
<metadata>
Created by iconfont
</metadata>
<defs>

<font id="iconfont" horiz-adv-x="1024" >
  <font-face
    font-family="iconfont"
    font-weight="500"
    font-stretch="normal"
    units-per-em="1024"
    ascent="896"
    descent="-128"
  />
    <missing-glyph />
    
    <glyph glyph-name="xinjianguzhangzhishiqi" unicode="&#59533;" d="M956.8 131.2c41.6 73.6 67.2 160 67.2 252.8C1024 656 812.8 876.8 544 892.8c-9.6 3.2-22.4 3.2-32 3.2s-22.4 0-32-3.2C211.2 876.8 0 656 0 384c0-92.8 25.6-179.2 67.2-252.8 6.4-9.6 12.8-19.2 16-28.8C176-38.4 332.8-128 512-128c179.2 0 336 89.6 425.6 230.4 6.4 6.4 12.8 16 19.2 28.8zM960 384c0-70.4-16-137.6-44.8-195.2L544 403.2V828.8c233.6-16 416-208 416-444.8zM480 828.8v-428.8L108.8 188.8C80 246.4 64 313.6 64 384 64 620.8 246.4 812.8 480 828.8zM512-64c-153.6 0-291.2 76.8-371.2 198.4L512 345.6l371.2-214.4C803.2 12.8 665.6-64 512-64zM124.8 400h25.6c6.4 0 12.8 3.2 16 9.6l16 41.6c0 3.2 6.4 6.4 9.6 6.4h89.6c3.2 0 9.6-3.2 9.6-6.4l16-41.6c3.2-6.4 9.6-9.6 16-9.6h28.8c12.8 0 19.2 12.8 16 22.4L275.2 659.2c0 6.4-3.2 9.6-9.6 9.6H208c-3.2 0-9.6-3.2-9.6-6.4l-89.6-240c-3.2-12.8 3.2-22.4 16-22.4zM201.6 512l19.2 54.4c6.4 16 25.6 16 32 0l19.2-54.4c3.2-6.4-3.2-16-9.6-16H214.4c-9.6 3.2-12.8 9.6-12.8 16zM662.4 400h115.2c70.4-3.2 102.4 25.6 102.4 76.8 0 22.4-9.6 38.4-28.8 51.2-9.6 6.4-9.6 19.2 0 25.6 12.8 12.8 19.2 28.8 19.2 48 0 44.8-28.8 64-86.4 67.2h-118.4c-9.6 0-16-6.4-16-16V416c-3.2-9.6 3.2-16 12.8-16z m44.8 214.4c0 9.6 6.4 16 16 16h41.6c28.8 0 41.6-12.8 41.6-35.2 0-25.6-12.8-35.2-41.6-35.2h-44.8c-9.6 0-16 6.4-16 16V614.4z m0-118.4c0 9.6 6.4 16 16 16h51.2c28.8 0 44.8-12.8 44.8-41.6 0-25.6-12.8-38.4-44.8-38.4h-51.2c-9.6 0-16 6.4-16 16v48zM384 96c3.2-89.6 48-134.4 131.2-137.6 35.2 0 64 6.4 86.4 22.4 16 9.6 22.4 28.8 22.4 48v25.6c-28.8-41.6-60.8-60.8-96-60.8-54.4 3.2-83.2 35.2-83.2 99.2 0 67.2 25.6 102.4 70.4 102.4 25.6 0 41.6-12.8 51.2-38.4 3.2-6.4 9.6-12.8 16-12.8h25.6c12.8 0 19.2 12.8 16 22.4-19.2 41.6-54.4 64-112 64-83.2 0-124.8-48-128-134.4z"  horiz-adv-x="1024" />

    
    <glyph glyph-name="yuanyouguzhangzhishiqi" unicode="&#59534;" d="M544 403.2l425.6-246.4C1004.8 224 1024 304 1024 384 1024 656 812.8 880 544 896v-492.8z m118.4 265.6h118.4c57.6 0 86.4-22.4 86.4-67.2 0-19.2-6.4-35.2-19.2-48-6.4-6.4-6.4-19.2 0-25.6 19.2-12.8 28.8-28.8 28.8-51.2 3.2-54.4-32-80-102.4-76.8h-115.2c-9.6 0-16 6.4-16 16V652.8c3.2 6.4 9.6 16 19.2 16zM723.2 435.2h51.2c32 0 44.8 12.8 44.8 38.4 0 28.8-16 41.6-44.8 41.6h-51.2c-9.6 0-16-6.4-16-16v-48c0-9.6 6.4-16 16-16zM723.2 560H768c28.8 0 41.6 12.8 41.6 35.2 0 22.4-12.8 35.2-41.6 35.2h-41.6c-9.6 0-16-6.4-16-16V576c-3.2-9.6 3.2-16 12.8-16zM214.4 499.2h48c6.4 0 12.8 6.4 9.6 16l-19.2 54.4c-6.4 16-25.6 16-32 0l-19.2-54.4c0-9.6 3.2-16 12.8-16zM480 403.2V896C211.2 880 0 656 0 384c0-83.2 19.2-160 54.4-227.2L480 403.2zM198.4 662.4c3.2 3.2 6.4 6.4 9.6 6.4h57.6c3.2 0 9.6-3.2 9.6-6.4l89.6-240c3.2-9.6-3.2-22.4-16-22.4h-25.6c-6.4 0-12.8 3.2-16 9.6l-16 41.6c0 3.2-6.4 6.4-9.6 6.4H192c-3.2 0-9.6-3.2-9.6-6.4l-16-41.6c-3.2-6.4-9.6-9.6-16-9.6h-25.6c-12.8 0-19.2 12.8-16 22.4l89.6 240zM512 348.8L86.4 102.4C176-35.2 332.8-128 512-128c179.2 0 336 89.6 425.6 230.4L512 348.8z m16-355.2c35.2-3.2 67.2 19.2 96 60.8v-25.6c0-19.2-6.4-38.4-22.4-48-22.4-16-51.2-22.4-86.4-22.4-83.2 3.2-128 51.2-131.2 137.6 3.2 86.4 48 134.4 128 137.6 57.6 0 92.8-22.4 112-64 3.2-9.6-3.2-22.4-16-22.4h-22.4c-6.4 0-12.8 6.4-16 12.8-9.6 25.6-25.6 38.4-51.2 38.4-48-3.2-70.4-35.2-70.4-102.4-3.2-64 25.6-99.2 80-102.4z"  horiz-adv-x="1024" />

    
    <glyph glyph-name="lijiuguzhangzhishiqi" unicode="&#59535;" d="M512 345.6L86.4 102.4C176-38.4 332.8-128 512-128c179.2 0 336 89.6 425.6 230.4L512 345.6z m16-352c35.2-3.2 67.2 19.2 96 60.8v-25.6c0-19.2-6.4-38.4-22.4-48-22.4-16-51.2-22.4-86.4-22.4-83.2 3.2-128 51.2-131.2 137.6 3.2 86.4 48 134.4 128 137.6 57.6 0 92.8-22.4 112-64 3.2-9.6-3.2-22.4-16-22.4h-22.4c-6.4 0-12.8 6.4-16 12.8-9.6 25.6-25.6 38.4-51.2 38.4-48-3.2-70.4-35.2-70.4-102.4-3.2-67.2 25.6-99.2 80-102.4zM512 832c246.4 0 448-201.6 448-448s-201.6-448-448-448S64 137.6 64 384 265.6 832 512 832m0 64C230.4 896 0 665.6 0 384s230.4-512 512-512 512 230.4 512 512S793.6 896 512 896zM86.4 102.4L512 345.6l425.6-246.4c12.8 19.2 22.4 35.2 32 54.4L544 403.2V892.8c-9.6 3.2-22.4 3.2-32 3.2s-22.4 0-32-3.2v-492.8L54.4 156.8c9.6-19.2 19.2-38.4 32-54.4zM352 400h-25.6c-6.4 0-12.8 3.2-16 9.6l-16 41.6c0 3.2-6.4 6.4-9.6 6.4H192c-3.2 0-9.6-3.2-9.6-6.4l-16-41.6c-3.2-6.4-9.6-9.6-16-9.6h-25.6c-12.8 0-19.2 12.8-16 22.4l89.6 240c3.2 3.2 6.4 6.4 9.6 6.4h57.6c3.2 0 9.6-3.2 9.6-6.4l89.6-240c6.4-12.8-3.2-22.4-12.8-22.4z m-131.2 166.4L201.6 512c-3.2-6.4 3.2-16 9.6-16h48c6.4 0 12.8 6.4 9.6 16l-19.2 54.4c-3.2 16-22.4 16-28.8 0zM777.6 400h-115.2c-9.6 0-16 6.4-16 16V649.6c0 9.6 6.4 16 16 16h118.4c57.6 0 86.4-22.4 86.4-67.2 0-19.2-6.4-35.2-19.2-48-6.4-6.4-6.4-19.2 0-25.6 19.2-12.8 28.8-28.8 28.8-51.2 6.4-51.2-28.8-76.8-99.2-73.6z m-12.8 230.4h-41.6c-9.6 0-16-6.4-16-16V576c0-9.6 6.4-16 16-16H768c28.8 0 41.6 12.8 41.6 35.2-3.2 22.4-16 35.2-44.8 35.2z m9.6-115.2h-51.2c-9.6 0-16-6.4-16-16v-48c0-9.6 6.4-16 16-16h51.2c32 0 44.8 12.8 44.8 38.4 0 25.6-16 41.6-44.8 41.6z"  horiz-adv-x="1024" />

    
    <glyph glyph-name="dianlanzhongjiantou" unicode="&#59529;" d="M512 180c-6.1 0-12.2 1.1-18 3.2l-409.6 153c-20 7.5-33.2 26.5-33.2 47.8 0 21.3 13.3 40.3 33.2 47.8l409.6 153c11.6 4.3 24.4 4.3 36 0l409.6-153c20-7.5 33.2-26.5 33.2-47.8 0-21.3-13.3-40.3-33.2-47.8L530 183.2c-5.8-2.2-11.9-3.2-18-3.2zM248.4 384L512 285.5 775.6 384 512 482.5 248.4 384z"  horiz-adv-x="1024" />

    
    <glyph glyph-name="dianlanzhongjiantoubg" unicode="&#59530;" d="M957.5 479.6L548 632.6c-23.2 8.7-48.7 8.7-71.9 0l-409.6-153C26.7 464.7 0 426.3 0 384s26.7-80.7 66.5-95.6l409.6-153c11.5-4.3 23.6-6.5 36-6.5 12.3 0 24.4 2.2 36 6.5l409.6 153c39.7 14.9 66.4 53.3 66.4 95.6-0.1 42.3-26.8 80.7-66.6 95.6zM512 428l117.7-44L512 340l-117.7 44L512 428z"  horiz-adv-x="1024" />

    
    <glyph glyph-name="dianlanzhongduan" unicode="&#59531;" d="M170.7 42.4c10.1 0 20.3 1.8 30 5.4L883.3 304c33.3 12.5 55.4 44.4 55.4 80s-22.1 67.5-55.4 80L200.7 720.2c-26.2 9.8-55.6 6.1-78.6-9.8-23-15.9-36.7-42.2-36.7-70.2v-512.3c0-28 13.7-54.3 36.7-70.2 14.5-10.1 31.5-15.3 48.6-15.3zM610.1 384l-354-132.9V516.9l354-132.9z"  horiz-adv-x="1024" />

    
    <glyph glyph-name="dianlanzhongduanbg" unicode="&#59532;" d="M73.6 780.7c46.1 31.9 104.8 39.1 157.1 19.5L913.3 544c66.2-24.9 110.7-89.2 110.7-160s-44.5-135.1-110.8-160.1L230.5-32.2c-19.2-7.2-39.3-10.8-59.8-10.8-34.9 0-68.5 10.5-97.2 30.4C27.5 19.2 0 71.8 0 127.9V640.2c0 56.1 27.5 108.6 73.6 140.5z m267.8-387.1v-19.1l25.5 9.6-25.5 9.5z"  horiz-adv-x="1024" />

    
    <glyph glyph-name="biaoxiangweixuanxing" unicode="&#59528;" d="M928 768H96c-6.4 0-12.8 0-19.2-3.2C32 758.4 0 716.8 0 672v-576c0-54.4 41.6-96 96-96h832c54.4 0 96 41.6 96 96V672c0 54.4-41.6 96-96 96zM294.4 160H192v99.2h102.4V160z m25.6 214.4c-19.2-16-25.6-32-25.6-48v-28.8H195.2v35.2c-3.2 35.2 9.6 67.2 44.8 92.8 22.4 16 35.2 35.2 35.2 54.4 0 25.6-12.8 28.8-28.8 32-35.2 0-48-22.4-51.2-54.4l-3.2-16H96l3.2 16C112 547.2 156.8 608 252.8 608c92.8 0 128-67.2 131.2-124.8 3.2-38.4-19.2-73.6-64-108.8zM960 96c0-19.2-12.8-32-32-32H473.6c3.2 9.6 6.4 19.2 6.4 32V672c0 12.8-3.2 22.4-6.4 32H928c19.2 0 32-12.8 32-32v-576z"  horiz-adv-x="1024" />

    
    <glyph glyph-name="dianyadengji" unicode="&#59527;" d="M982.4 704L1024 633.6 41.6 64 0 134.4 982.4 704z"  horiz-adv-x="1024" />

    
    <glyph glyph-name="380vdianya" unicode="&#59525;" d="M1014.1 462l-228-131.6L762 442.5l4.1 2.3-9.9 17.2-228-131.6-24 112.1 4.1 2.3-9.9 17.2-228.1-131.6-24 112.1 4.1 2.3-9.9 17.2L0 323.2 9.9 306l227.6 131.4 24-112.1-3.6-2.1 9.9-17.2 227.5 131.4 24.1-112.1-3.7-2.1 9.9-17.2 227.6 131.4 24-112.1-3.6-2.1 9.9-17.2L1024 444.8z"  horiz-adv-x="1024" />

    
    <glyph glyph-name="220vdianya" unicode="&#59526;" d="M1004 541.2L544.6 275.9l-48.4 225.9 8.3 4.8-20 34.6L0 261.4l20-34.6 458.4 264.7 48.4-225.8-7.3-4.3 20-34.6L1024 506.6z"  horiz-adv-x="1024" />

    
    <glyph glyph-name="yuanyoulaxian_2" unicode="&#59524;" d="M170.666667 76.8h682.666666v-136.533333H170.666667v136.533333zM443.733333 827.733333h136.533334v-887.466666H443.733333V827.733333z"  horiz-adv-x="1024" />

    
    <glyph glyph-name="yuanyouchenggan_2" unicode="&#59519;" d="M580.266667 465.92L853.333333 827.733333H170.666667l273.066666-361.813333V349.866667H238.933333v-136.533334h204.8v-273.066666h136.533334v273.066666h204.8V349.866667H580.266667V465.92zM580.266667 691.2L512 602.453333 443.733333 691.2h136.533334z"  horiz-adv-x="1024" />

    
    <glyph glyph-name="xinjianTxingjing" unicode="&#59456;" d="M512 896C229.76 896 0 666.24 0 384s229.76-512 512-512 512 229.76 512 512S794.24 896 512 896z m0-64zM64 384z m480-446.4V0h-64v-62.4C258.56-46.72 81.28 130.56 65.6 352H128v64H65.6C81.28 637.44 258.56 814.72 480 830.4V768h64V830.4c221.44-15.68 398.72-192.96 414.4-414.4H896v-64h62.4c-15.68-221.44-192.96-398.72-414.4-414.4zM198.4 320H166.08c26.24-143.04 138.88-256 281.92-282.24V70.4c-125.44 25.6-224 124.16-249.6 249.6zM576 70.72v-32.64c143.04 26.24 255.68 139.2 281.92 282.24H825.6a319.776 319.776 0 0 0-249.6-249.6zM576 730.24V697.6c125.44-25.6 224-124.16 249.6-249.28h32.32c-26.24 142.72-138.88 255.36-281.92 281.92zM166.08 448H198.4c25.6 125.44 124.16 224 249.6 249.28V730.24C304.96 703.68 192.32 591.04 166.08 448zM560 167.04h-96v133.12a139.424 139.424 0 0 1-122.24 122.88H304v96h416v-96h-38.08c-64-7.68-114.56-57.92-121.92-122.24v-133.76z"  horiz-adv-x="1024" />

    
    <glyph glyph-name="lijiusanxiangbiaoxiang" unicode="&#59457;" d="M960 384v-288c0-17.6-14.4-32-32-32H474.24c3.52 9.92 5.76 20.8 5.76 32v288h-84.16c2.56-3.2 4.8-6.08 6.72-9.6 9.6-15.68 14.08-33.28 14.08-52.8 0-22.72-6.4-43.84-18.88-63.04-12.48-19.2-30.4-33.92-52.8-43.84-22.72-9.92-51.2-15.04-85.76-15.04-60.48 0-102.4 11.52-125.76 34.88-23.04 23.68-36.48 53.44-39.36 89.28l104.64 6.4c2.24-16.96 6.72-30.08 13.76-38.72 11.2-14.4 27.52-21.76 48.64-21.76 15.68 0 27.84 3.52 36.16 11.2 8.64 7.36 12.8 16 12.8 25.6 0 9.28-4.16 17.6-12.16 24.64s-26.88 14.4-56.32 20.8c-37.76 8.64-66.56 19.2-87.36 32H0v-288a96.096 96.096 0 0 1 96-96h832c53.12 0 96 42.88 96 96v288h-64zM247.68 501.76c15.68 0 27.84-3.52 36.48-10.88 8.96-7.36 14.72-18.88 17.28-34.88l103.68 6.08c-4.48 36.8-18.88 63.68-42.56 80.64-24 16.96-58.56 25.28-104 25.28-37.12 0-66.24-4.8-87.36-14.08-21.44-9.28-37.12-22.08-47.68-38.4-10.56-16.32-16-33.6-16-51.84 0-27.84 10.24-50.88 31.04-68.8 4.48-3.84 9.92-7.68 15.68-11.2h241.6c-9.28 11.52-22.08 21.44-38.72 30.08-20.8 10.56-55.36 21.12-103.36 31.36-19.52 4.16-31.68 8.32-36.8 13.12-5.44 4.48-8 9.6-8 15.36 0 7.68 3.2 14.4 9.6 19.84 6.72 5.44 16.32 8.32 29.12 8.32zM928 768H96C42.88 768 0 725.12 0 672v-288h64V672c0 17.6 14.4 32 32 32h343.04c5.44-9.6 8.96-20.16 8.96-32v-288h32V672c0 11.2-2.24 22.08-5.76 32H928c17.6 0 32-14.4 32-32v-288h64V672c0 53.12-42.88 96-96 96z"  horiz-adv-x="1024" />

    
    <glyph glyph-name="xinjianbiandianzhan" unicode="&#59458;" d="M512 832c246.4 0 448-201.6 448-448s-201.6-448-448-448S64 137.60000000000002 64 384 265.6 832 512 832m0 64C230.4 896 0 665.6 0 384s230.4-512 512-512 512 230.4 512 512S793.6 896 512 896zM166.4 160V608h182.4c22.4 0 44.8-3.2 67.2-9.6 19.2-6.4 35.2-12.8 51.2-25.6 25.6-22.4 35.2-48 35.2-80 0-22.4-6.4-44.8-22.4-64-12.8-16-28.8-28.8-51.2-32v-3.2c12.8-3.2 25.6-9.6 38.4-16 12.8-6.4 22.4-16 28.8-25.6 12.8-19.2 22.4-41.6 22.4-67.2 0-16-3.2-28.8-6.4-44.8-6.4-16-16-32-28.8-44.8-16-12.8-32-22.4-48-25.6-22.4-6.4-44.8-9.6-67.2-9.6H166.4z m169.6 265.6c16 0 28.8 3.2 38.4 12.8 9.6 9.6 12.8 19.2 12.8 32s-6.4 22.4-12.8 32c-12.8 9.6-25.6 12.8-38.4 12.8H262.4v-89.6h73.6z m16-176c12.8 0 25.6 3.2 38.4 12.8 12.8 9.6 19.2 22.4 19.2 38.4s-6.4 28.8-19.2 38.4c-12.8 9.6-25.6 12.8-41.6 12.8H262.4v-102.4H352zM547.2 160V608h147.2c25.6 0 51.2-3.2 76.8-9.6 16-3.2 28.8-9.6 41.6-16s25.6-16 35.2-25.6c9.6-9.6 19.2-19.2 25.6-32 6.4-12.8 16-25.6 19.2-41.6 6.4-16 9.6-32 12.8-48 3.2-19.2 3.2-35.2 3.2-54.4 0-25.6-3.2-54.4-9.6-80-3.2-16-9.6-28.8-16-44.8-6.4-12.8-16-25.6-22.4-35.2-9.6-9.6-19.2-19.2-32-28.8l-38.4-19.2c-16-6.4-32-9.6-44.8-12.8-19.2-3.2-35.2-3.2-54.4-3.2h-144z m169.6 96c12.8 0 22.4 3.2 35.2 9.6 9.6 6.4 19.2 16 28.8 28.8 6.4 12.8 12.8 28.8 16 44.8 3.2 12.8 3.2 28.8 3.2 44.8 0 16-3.2 28.8-3.2 44.8-3.2 16-9.6 32-16 44.8-6.4 12.8-16 22.4-28.8 28.8-9.6 6.4-22.4 9.6-35.2 9.6h-73.6v-256h73.6z"  horiz-adv-x="1024" />

    
    <glyph glyph-name="xinjianbianyaqi" unicode="&#59459;" d="M704 64c-81.92 0-163.84 31.04-226.24 93.44-124.8 124.8-124.8 327.68 0 452.48 124.8 124.8 327.68 124.8 452.48 0 124.8-124.8 124.8-327.68 0-452.48A320.128 320.128 0 0 0 704 64zM320 64c-81.92 0-163.84 31.04-226.24 93.44-124.8 124.8-124.8 327.68 0 452.48 124.8 124.8 327.68 124.8 452.48 0C606.72 549.76 640 469.44 640 384s-33.28-165.76-93.76-226.24A319.136 319.136 0 0 0 320 64z m0 576c-65.6 0-131.2-24.96-181.12-74.88-99.84-99.84-99.84-262.08 0-361.92 99.84-99.84 262.4-99.84 361.92 0C549.44 251.2 576 315.52 576 384s-26.56 132.8-74.88 181.12A255.36 255.36 0 0 1 320 640zM227.84 355.52c-4.48 9.6-15.36 28.16-24.64 42.88v-141.44h-20.16v132.16c-9.28-29.76-21.44-58.24-33.92-75.84-1.92 5.76-7.36 14.72-11.2 19.84 18.24 22.72 35.52 66.88 44.16 104.64H143.04v19.52h40v53.76h20.16v-53.76h35.2v-19.52h-35.2v-14.72c9.28-11.84 32.32-44.16 37.44-52.48l-12.8-15.04z m166.08-71.36v-19.2H234.88v19.2h72v72.64H249.6v18.56h56.96v63.36H244.16v19.2h145.28v-19.2h-61.12v-63.36h53.76v-18.56h-53.76v-72.64h65.6z m-78.72 175.68c-3.2 11.52-11.52 30.4-19.52 44.16l18.56 6.4c8.64-13.76 17.28-31.68 20.8-43.52l-19.84-7.04z"  horiz-adv-x="1024" />

    
    <glyph glyph-name="lijiushuinishuanggan" unicode="&#59460;" d="M428.48 384c0 37.12-14.4 71.68-40.32 97.92a135.936 135.936 0 0 1-97.6 40.64c-36.8 0-71.36-14.4-97.28-40.64-27.52-27.52-40.64-64-40-100.16h-32a169.28 169.28 0 0 0 49.6 122.88c32 32.32 74.88 49.92 120 49.92 45.44 0 88-17.6 120-49.92s49.6-75.2 49.6-120.64c0-0.64-0.32-1.6-0.32-2.24h-32c0 0.64 0.32 1.6 0.32 2.24z m408.32 97.92c-25.92 26.24-60.8 40.64-97.6 40.64s-71.36-14.4-97.28-40.64A138.24 138.24 0 0 1 601.6 384c0-0.64 0.32-1.6 0.32-2.24h-32c0 0.64-0.32 1.6-0.32 2.24 0 45.44 17.6 88.32 49.92 120.64 32 32.32 74.56 49.92 120 49.92s88-17.6 120-49.92a171.904 171.904 0 0 0 49.6-122.88h-32a140.48 140.48 0 0 1-40.32 100.16z m186.88-100.16H963.2c0.64 58.56-21.12 117.12-65.28 161.6a221.856 221.856 0 0 1-158.72 65.92c-59.84 0-116.16-23.36-158.72-65.92-13.76-13.76-25.6-30.4-37.44-52.48l-28.16-52.16-28.16 52.16c-11.84 22.08-23.68 38.72-37.44 52.48a221.856 221.856 0 0 1-158.72 65.92c-59.84 0-116.16-23.36-158.72-65.92-44.48-44.48-65.92-103.04-65.28-161.6h-64c-0.64 74.88 27.2 150.08 84.16 207.36a285.888 285.888 0 0 0 203.84 84.8c77.12 0 149.44-30.08 203.84-84.8 7.36-7.36 14.08-15.04 20.48-23.36 6.4 8.32 13.12 16 20.48 23.36a285.888 285.888 0 0 0 203.84 84.8c77.12 0 149.44-30.08 203.84-84.8 46.08-46.08 72-104.32 80.32-164.16v-43.2zM288 229.44a153.376 153.376 0 0 0-153.6 152h307.2A153.376 153.376 0 0 0 288 229.44z m448.96 0a153.376 153.376 0 0 0-153.6 152h307.2a153.376 153.376 0 0 0-153.6-152zM102.72 381.76a186.88 186.88 0 0 1 54.08-129.6c35.2-35.2 81.92-54.72 131.52-54.72s96.32 19.52 131.52 54.72a183.936 183.936 0 0 1 54.08 129.6h77.44a186.88 186.88 0 0 1 54.08-129.6 184.96 184.96 0 0 1 131.52-54.72c49.6 0 96.32 19.52 131.52 54.72a183.936 183.936 0 0 1 54.08 129.6h101.12v17.28c4.16-79.04-22.72-159.68-82.88-219.84a285.888 285.888 0 0 0-203.84-84.8c-77.12 0-149.44 30.08-203.84 84.8-7.36 7.36-14.08 15.04-20.48 22.72-6.4-8-13.12-15.68-20.48-22.72a285.888 285.888 0 0 0-203.84-84.8c-77.12 0-149.44 30.08-203.84 84.8A287.968 287.968 0 0 0 0 381.76h102.72z"  horiz-adv-x="1024" />

    
    <glyph glyph-name="lijiushuinidangan" unicode="&#59461;" d="M512 96.96a288 288 0 0 1 288 288H224c0-159.36 128.96-288 288-288zM1.6 416H0v-64h1.6C18.24 84.48 240.64-128 512-128s493.76 212.48 510.4 480H1024v64h-1.6C1005.76 683.52 783.36 896 512 896S18.24 683.52 1.6 416z m957.12 0H832v-31.04c0-176.32-143.68-320-320-320s-320 143.68-320 320V416H65.28C81.6 648 275.84 832 512 832s430.4-184 446.72-416zM209.92 416.96h32.32c16.32 134.4 130.88 239.04 269.76 239.04s253.44-104.64 269.76-239.04h32.32C797.76 568.96 668.48 688 512 688s-285.76-119.04-302.08-271.04z"  horiz-adv-x="1024" />

    
    <glyph glyph-name="lijiuzhushangduanluqi" unicode="&#59462;" d="M704 864H288c-35.2 0-64-28.8-64-64v-832c0-35.2 28.8-64 64-64h416c52.8 0 96 43.2 96 96V768c0 52.8-43.2 96-96 96z m32-864c0-17.6-14.4-32-32-32h-160v234.88l-32 41.28V-64h-32v245.12l-185.28 247.36 50.56 39.36L512 244.16V576h-14.4l-133.76-98.88-34.56 49.28 131.84 97.6-131.84 97.6 34.56 49.28L480 685.12V832h32v-256h14.4l133.76-98.88 34.56 49.28-132.16 97.6 132.16 97.6-34.56 49.28L544 685.12V800h160c17.6 0 32-14.4 32-32v-768z"  horiz-adv-x="1024" />

    
    <glyph glyph-name="lijiuzhuanjiaojing" unicode="&#59463;" d="M576 730.24V697.6c125.44-25.6 224-124.16 249.6-249.28h32.32c-26.24 142.72-138.88 255.36-281.92 281.92zM166.08 448H198.4c25.6 125.44 124.16 224 249.6 249.28V730.24C304.96 703.68 192.32 591.04 166.08 448zM512 896C230.4 896 1.28 667.52 0 386.24h128V416H65.6C81.28 637.44 258.56 814.72 480 830.4V768h64V830.4c221.44-15.68 398.72-192.96 414.4-414.4H896v-29.76h128C1022.72 667.52 793.6 896 512 896z m0-64zM560 432h-192v-45.76h288V592h-96zM960 386.24V352h-64v34.24h-240v-50.24h-192v-160h-96v210.24H128V352H64v34.24H0V384c0-282.24 229.76-512 512-512s512 229.76 512 512v2.24h-64zM448 37.76C304.96 64 192.32 176.96 166.08 320H198.4c25.6-125.44 124.16-224 249.6-249.28v-32.96zM544-64h-64v64h64v-64z m32 101.76V70.4c125.44 25.6 224 124.16 249.6 249.28h32.32c-26.24-142.72-138.88-255.68-281.92-281.92z"  horiz-adv-x="1024" />

    
    <glyph glyph-name="xinjiandiyafenzhixiang" unicode="&#59464;" d="M438.4 585.6c-25.6 9.6-60.8 12.8-105.6 12.8H144V160h188.8c41.6 0 70.4 3.2 89.6 6.4 19.2 3.2 38.4 9.6 57.6 22.4 25.6 16 48 44.8 57.6 80 9.6 35.2 16 70.4 16 108.8 0 38.4-6.4 76.8-16 112-19.2 48-51.2 80-99.2 96z m-179.2-80h73.6c32 0 54.4-6.4 70.4-19.2 9.6-9.6 19.2-22.4 22.4-41.6 6.4-19.2 9.6-41.6 9.6-64s-3.2-41.6-9.6-60.8c-6.4-19.2-12.8-32-19.2-41.6-12.8-16-38.4-22.4-73.6-22.4H259.2v249.6zM896 515.2V608h-313.6v-448h105.6v182.4h179.2v92.8h-179.2v80zM512 832c246.4 0 448-201.6 448-448s-201.6-448-448-448S64 137.60000000000002 64 384 265.6 832 512 832m0 64C230.4 896 0 665.6 0 384s230.4-512 512-512 512 230.4 512 512S793.6 896 512 896z"  horiz-adv-x="1024" />

    
    <glyph glyph-name="xinjiangangguangan" unicode="&#59465;" d="M512 832c3.52 0 6.72-0.64 9.92-1.92l298.56-123.52c6.4-2.56 11.52-7.68 14.08-14.08l123.52-298.56c2.56-6.4 2.56-13.44 0-19.84l-123.52-298.56c-2.56-6.4-7.68-11.52-14.08-14.08l-298.56-123.52a26.08 26.08 0 0 0-19.84 0l-298.56 123.52a25.344 25.344 0 0 0-14.08 14.08l-123.52 298.56a26.56 26.56 0 0 0 0 19.84l123.52 298.56c2.56 6.4 7.68 11.52 14.08 14.08l298.56 123.52c3.2 1.28 6.4 1.92 9.92 1.92m0 64c-11.84 0-23.36-2.24-34.56-6.72L179.2 765.44c-22.08-8.96-39.68-26.56-48.64-48.64L7.04 418.24c-9.28-22.08-9.28-46.72 0-68.8l123.52-298.56c9.28-22.08 26.56-39.68 48.64-48.64l298.56-123.52c10.88-4.48 22.4-6.72 34.24-6.72 11.84 0 23.36 2.24 34.56 6.72l298.56 123.52c22.08 9.28 39.68 26.56 48.64 48.64l123.52 298.56c9.28 22.08 9.28 46.72 0 68.8L893.44 716.8c-9.28 22.08-26.56 39.68-48.64 48.64L546.24 888.96C535.36 893.76 523.84 896 512 896zM512 96c-14.08 0-27.84 2.56-41.28 8.32l-127.68 52.8c-26.56 10.88-47.36 31.68-58.24 58.24l-52.8 127.68a108.48 108.48 0 0 0 0 82.56l52.8 127.68c10.88 26.56 31.68 47.36 58.24 58.24l127.68 52.8a108.48 108.48 0 0 0 82.56 0l127.68-52.8c26.56-10.88 47.36-31.68 58.24-58.24l52.8-127.68c10.88-26.56 10.88-56 0-82.56l-52.8-127.68c-10.88-26.56-31.68-47.36-58.24-58.24l-127.68-52.8c-13.44-5.76-27.2-8.32-41.28-8.32z m0 512c-5.76 0-11.2-1.28-16.64-3.2l-127.68-52.8c-10.56-4.48-19.2-13.12-23.68-23.68L291.2 400.64c-4.48-10.88-4.48-22.72 0-33.6l52.8-127.68c4.48-10.56 13.12-19.2 23.68-23.68l127.68-52.8c10.88-4.48 22.72-4.48 33.6 0l127.68 52.8c10.56 4.48 19.2 13.12 23.68 23.68l52.8 127.68c4.48 10.88 4.48 22.72 0 33.6l-52.8 127.68c-4.48 10.56-13.12 19.2-23.68 23.68l-128 52.8c-5.44 2.24-10.88 3.2-16.64 3.2z"  horiz-adv-x="1024" />

    
    <glyph glyph-name="xinjianfanggan" unicode="&#59466;" d="M864 768c17.6 0 32-14.4 32-32v-704c0-17.6-14.4-32-32-32H160c-17.6 0-32 14.4-32 32V736c0 17.6 14.4 32 32 32h704m0 64H160C106.88 832 64 789.12 64 736v-704c0-53.12 42.88-96 96-96h704c53.12 0 96 42.88 96 96V736c0 53.12-42.88 96-96 96zM704 160H320c-17.6 0-32 14.4-32 32V576c0 17.6 14.4 32 32 32h384c17.6 0 32-14.4 32-32v-384c0-17.6-14.4-32-32-32z m0 384c0 17.6-14.4 32-32 32H352c-17.6 0-32-14.4-32-32v-320c0-17.6 14.4-32 32-32h320c17.6 0 32 14.4 32 32V544z"  horiz-adv-x="1024" />

    
    <glyph glyph-name="lijiuzhushanggelikaiguan" unicode="&#59467;" d="M224 800v-832c0-35.2 28.8-64 64-64h224v32h-32v244.8l-184.96 279.36 49.92 40L512 248.64V576h-160V640h128V832h32V864H288c-35.2 0-64-28.8-64-64zM704 864h-192v-288h160V640h-128V800h160c17.6 0 32-14.4 32-32v-768c0-17.6-14.4-32-32-32h-160v235.2l-32 45.44V-96h192c52.8 0 96 43.2 96 96V768c0 52.8-43.2 96-96 96z"  horiz-adv-x="1024" />

    
    <glyph glyph-name="poumiantubiao" unicode="&#59468;" d="M656.32 74.56L367.68-128v113.92l128 88.96h-77.44l-9.6-10.88H368V704.32h40.96l9.6-10.88h77.44l-128 88.96V896l288.32-202.56v-81.92h-165.76l5.76-6.4v-442.24l-5.76-6.4h165.76v-81.92z"  horiz-adv-x="1024" />

    
    <glyph glyph-name="xinjianhuanwangshi" unicode="&#59469;" d="M512 832c246.4 0 448-201.6 448-448s-201.6-448-448-448S64 137.60000000000002 64 384 265.6 832 512 832m0 64C230.4 896 0 665.6 0 384s230.4-512 512-512 512 230.4 512 512S793.6 896 512 896zM163.2 592h99.2V448h140.8V592h99.2v-416h-99.2v169.6H259.2v-169.6h-96v416zM553.6 592h211.2c41.6 0 70.4-9.6 92.8-28.8 22.4-19.2 32-44.8 32-73.6 0-25.6-6.4-44.8-22.4-64-9.6-12.8-25.6-22.4-44.8-28.8 28.8-6.4 51.2-19.2 67.2-38.4 12.8-16 22.4-38.4 22.4-67.2 0-22.4-6.4-41.6-16-57.6s-22.4-32-41.6-41.6c-9.6-6.4-25.6-9.6-48-12.8-28.8-3.2-48-6.4-57.6-6.4h-192V592z m99.2-163.2h67.2c19.2 0 35.2 3.2 41.6 9.6 6.4 6.4 12.8 16 12.8 28.8s-3.2 22.4-12.8 28.8c-6.4 6.4-22.4 9.6-41.6 9.6h-70.4v-76.8z m0-163.2h80c22.4 0 38.4 3.2 48 12.8 9.6 6.4 12.8 19.2 12.8 32s-3.2 22.4-12.8 28.8c-9.6 6.4-25.6 12.8-48 12.8h-76.8v-86.4z"  horiz-adv-x="1024" />

    
    <glyph glyph-name="xinjianmenxingzhijia" unicode="&#59470;" d="M800 672V896H224v-1024h576v224H480V672h320z m-64 160v-96H480V832h256zM288 832h128v-96H288V832z m0-896v96h128v-96H288z m448 96v-96H480v96h256zM416 96H288V672h128v-576z"  horiz-adv-x="1024" />

    
    <glyph glyph-name="xinjianshuinidangan" unicode="&#59471;" d="M512-128C229.76-128 0 101.76 0 384S229.76 896 512 896s512-229.76 512-512-229.76-512-512-512z m0 960C264.96 832 64 631.04 64 384s200.96-448 448-448 448 200.96 448 448S759.04 832 512 832zM512 80c-167.68 0-304 136.32-304 304s136.32 304 304 304 304-136.32 304-304-136.32-304-304-304z m0 576c-150.08 0-272-121.92-272-272 0-150.08 121.92-272 272-272s272 121.92 272 272c0 150.08-121.92 272-272 272z"  horiz-adv-x="1024" />

    
    <glyph glyph-name="xinjiandanxiangbiaoxiang" unicode="&#59472;" d="M928 768H96C42.88 768 0 725.12 0 672v-576c0-53.12 42.88-96 96-96h832c53.12 0 96 42.88 96 96V672c0 53.12-42.88 96-96 96zM448 672v-576c0-11.84-3.52-22.4-8.96-32H96c-17.6 0-32 14.4-32 32V672c0 17.6 14.4 32 32 32h343.04c5.44-9.6 8.96-20.16 8.96-32z m512-576c0-17.6-14.4-32-32-32H474.24c3.52 9.92 5.76 20.8 5.76 32V672c0 11.2-2.24 22.08-5.76 32H928c17.6 0 32-14.4 32-32v-576zM103.36 568h134.4c33.28 0 60.16-4.48 80.64-13.44 20.48-8.96 37.44-22.08 50.88-39.04 13.44-16.96 23.04-36.48 29.12-58.88 6.08-22.4 8.96-46.08 8.96-71.36 0-39.36-4.48-69.76-13.44-91.52-8.96-21.76-21.44-39.68-37.44-54.4-16-14.72-32.96-24.32-51.2-29.12-24.96-6.72-47.68-9.92-67.84-9.92h-134.4V568z m86.08-83.2v-200.96h27.84c23.68 0 54.4 2.56 64.32 8 9.92 5.12 17.92 14.4 23.68 27.52 5.76 13.12 8.64 34.56 8.64 64 0 39.04-6.4 65.6-19.2 80s-33.92 21.44-63.36 21.44H189.44z"  horiz-adv-x="1024" />

    
    <glyph glyph-name="xinjiankaiguanzhan" unicode="&#59473;" d="M294.4 672H448v-227.2l163.2 188.8h169.6l-147.2-188.8 156.8-313.6h-156.8l-105.6 208-76.8-83.2v-160H294.4V672zM512 832c246.4 0 448-201.6 448-448s-201.6-448-448-448S64 137.60000000000002 64 384 265.6 832 512 832m0 64C230.4 896 0 665.6 0 384s230.4-512 512-512 512 230.4 512 512S793.6 896 512 896z"  horiz-adv-x="1024" />

    
    <glyph glyph-name="xinjianhuanwangxiang" unicode="&#59474;" d="M512 832c246.4 0 448-201.6 448-448s-201.6-448-448-448S64 137.60000000000002 64 384 265.6 832 512 832m0 64C230.4 896 0 665.6 0 384s230.4-512 512-512 512 230.4 512 512S793.6 896 512 896zM496 188.79999999999995h-99.2v166.4H256v-166.4H156.8v416H256v-147.2h140.8V604.8h99.2zM790.4 604.8h-140.8l-124.8-416h99.2l19.2 67.2h147.2l22.4-67.2h105.6l-128 416zM672 345.6l44.8 150.4 44.8-150.4H672z"  horiz-adv-x="1024" />

    
    <glyph glyph-name="xinjianpeidianshi" unicode="&#59475;" d="M512 832c246.4 0 448-201.6 448-448s-201.6-448-448-448S64 137.60000000000002 64 384 265.6 832 512 832m0 64C230.4 896 0 665.6 0 384s230.4-512 512-512 512 230.4 512 512S793.6 896 512 896zM323.2 678.4h275.2c67.2 0 118.4-16 153.6-51.2 35.2-35.2 51.2-86.4 51.2-150.4 0-67.2-19.2-118.4-54.4-156.8-38.4-38.4-92.8-57.6-169.6-57.6h-102.4v-214.4h-150.4V678.4z m150.4-281.6h54.4c35.2 0 60.8 6.4 76.8 19.2 16 12.8 22.4 32 22.4 51.2 0 19.2-6.4 38.4-19.2 51.2-12.8 16-35.2 22.4-70.4 22.4h-64v-144z"  horiz-adv-x="1024" />

    
    <glyph glyph-name="xinjiansanxiangbiaoxiang" unicode="&#59476;" d="M928 768H96C42.88 768 0 725.12 0 672v-576c0-33.28 16.64-62.4 42.24-79.68 5.12-3.52 10.56-6.4 16.32-8.96 11.52-4.8 24-7.36 37.44-7.36h832c53.12 0 96 42.88 96 96V672c0 53.12-42.88 96-96 96zM448 672v-576c0-11.84-3.52-22.4-8.96-32H96c-17.6 0-32 14.4-32 32V672c0 17.6 14.4 32 32 32h343.04c5.44-9.6 8.96-20.16 8.96-32z m512-576c0-17.6-14.4-32-32-32H474.24c3.52 9.92 5.76 20.8 5.76 32V672c0 11.2-2.24 22.08-5.76 32H928c17.6 0 32-14.4 32-32v-576zM94.08 323.84l104.64 6.4c2.24-16.96 6.72-30.08 13.76-38.72 11.2-14.4 27.52-21.76 48.64-21.76 15.68 0 27.84 3.52 36.16 11.2 8.32 7.36 12.8 16 12.8 25.6 0 9.28-4.16 17.6-12.16 24.64-8 7.36-26.88 14.4-56.32 20.8-48.32 10.88-82.56 25.28-103.04 43.2-20.8 17.92-31.04 40.96-31.04 68.8 0 18.24 5.44 35.52 16 51.84 10.56 16.32 26.56 29.12 47.68 38.4 21.12 9.28 50.56 14.08 87.36 14.08 45.44 0 80-8.32 104-25.28s38.08-43.84 42.56-80.64l-103.68-6.08c-2.88 16-8.64 27.52-17.28 34.88-8.96 7.36-21.12 10.88-36.48 10.88-12.8 0-22.4-2.56-28.8-8-6.4-5.44-9.6-12.16-9.6-19.84 0-5.76 2.56-10.88 8-15.36 5.12-4.8 17.6-8.96 36.8-13.12 48-10.24 82.56-20.8 103.36-31.36 20.8-10.56 35.84-23.68 45.44-39.36 9.6-15.68 14.08-33.28 14.08-52.8 0-22.72-6.4-43.84-18.88-63.04-12.48-19.2-30.4-33.92-52.8-43.84-22.72-9.92-51.2-15.04-85.76-15.04-60.48 0-102.4 11.52-125.76 34.88-23.36 23.04-36.8 52.8-39.68 88.64z"  horiz-adv-x="1024" />

    
    <glyph glyph-name="lijiugangguangan" unicode="&#59477;" d="M256.32 382.72c0.64-8.32 1.92-16.64 5.44-24.64l52.8-128c7.68-18.56 22.4-33.28 40.96-41.28l127.68-53.12c18.56-7.68 39.36-7.68 57.92 0l127.68 53.12c18.56 7.68 33.28 22.4 40.96 41.28l52.8 128c3.2 8 4.8 16.32 5.44 24.64h256c-0.64-10.24-2.56-20.48-6.4-30.08l-123.52-299.52c-9.28-22.08-26.56-39.68-48.64-48.96l-298.56-124.16c-22.08-9.28-46.72-9.28-68.8 0L179.2 4.16c-22.08 9.28-39.68 26.88-48.64 48.96L7.04 352.64c-3.84 9.6-5.76 19.84-6.4 30.08h255.68zM284.8 550.08c10.88 26.56 31.68 47.36 58.24 58.56l127.68 53.12c26.56 11.2 56 11.2 82.56 0l127.68-53.12c26.56-11.2 47.36-31.68 58.24-58.56l52.8-128c5.12-12.8 7.68-25.92 8-39.36h-64.32c-0.32 5.12-0.96 9.92-2.88 14.72l-52.8 128c-4.48 10.56-13.12 19.2-23.68 23.68l-127.68 53.12c-5.44 2.24-11.2 3.2-16.64 3.2-5.76 0-11.2-1.28-16.64-3.2l-127.68-53.12c-10.56-4.48-19.2-13.12-23.68-23.68l-52.8-128c-1.92-4.8-2.56-9.6-2.88-14.72H224c0.32 13.44 2.88 26.56 8 39.36l52.8 128z m674.88-167.36c-0.32 2.56-0.64 5.44-1.6 8l-123.52 299.52a25.344 25.344 0 0 1-14.08 14.08l-298.56 124.16a26.08 26.08 0 0 1-19.84 0L203.52 704.32c-6.4-2.56-11.52-7.68-14.08-14.08l-123.52-299.52c-0.96-2.56-1.28-5.12-1.6-8H0c0.32 11.2 2.24 22.08 6.72 32.32l123.52 299.52c9.28 22.4 26.88 40 48.96 49.28L477.76 888a92.256 92.256 0 0 0 69.12 0l298.56-124.16c22.08-9.28 39.68-26.88 48.64-48.96l123.52-299.52c4.16-10.56 6.4-21.44 6.72-32.32h-64.64z"  horiz-adv-x="1024" />

    
    <glyph glyph-name="xinjianzhongjianzhijia" unicode="&#59478;" d="M384 896v-1024h256V896H384z m192-64v-96H448V832h128z m0-160v-576H448V672h128zM448-64v96h128v-96H448z"  horiz-adv-x="1024" />

    
    <glyph glyph-name="xinjiansitongjing" unicode="&#59479;" d="M512 896C229.76 896 0 666.24 0 384s229.76-512 512-512 512 229.76 512 512S794.24 896 512 896z m0-64zM64 384z m480-446.4V0h-64v-62.4C258.56-46.72 81.28 130.56 65.6 352H128v64H65.6C81.28 637.44 258.56 814.72 480 830.4V768h64V830.4c221.44-15.68 398.72-192.96 414.4-414.4H896v-64h62.4c-15.68-221.44-192.96-398.72-414.4-414.4zM198.4 320H166.08c26.24-143.04 138.88-256 281.92-282.24V70.4c-125.44 25.6-224 124.16-249.6 249.6zM576 70.72v-32.64c143.04 26.24 255.68 139.2 281.92 282.24H825.6a319.776 319.776 0 0 0-249.6-249.6zM576 730.24V697.6c125.44-25.6 224-124.16 249.6-249.28h32.32c-26.24 142.72-138.88 255.36-281.92 281.92zM166.08 448H198.4c25.6 125.44 124.16 224 249.6 249.28V730.24C304.96 703.68 192.32 591.04 166.08 448zM547.2 156.8h-70.4v5.44a213.76 213.76 0 0 1-186.56 186.56H284.8v70.4h5.44a213.44 213.44 0 0 1 186.56 186.56V611.2h70.4v-5.44a213.76 213.76 0 0 1 186.56-186.56h5.44v-70.4h-5.44a213.44 213.44 0 0 1-186.56-186.56v-5.44z"  horiz-adv-x="1024" />

    
    <glyph glyph-name="xinjiangaoyafenzhixiang" unicode="&#59480;" d="M230.4 579.2c-28.8-12.8-51.2-35.2-67.2-60.8-22.4-38.4-32-83.2-32-140.8 0-86.4 22.4-147.2 70.4-182.4 16-12.8 35.2-22.4 54.4-28.8 19.2-6.4 48-6.4 80-6.4h198.4v268.8h-224v-92.8h118.4V256h-70.4c-19.2 0-35.2 3.2-48 6.4-12.8 3.2-22.4 9.6-28.8 16-12.8 6.4-22.4 22.4-25.6 41.6-6.4 19.2-6.4 41.6-6.4 67.2 0 48 9.6 80 28.8 96 16 16 41.6 22.4 73.6 22.4h182.4V598.4h-192c-44.8 0-83.2-6.4-112-19.2zM889.6 515.2V608H576v-448h105.6v182.4h179.2v92.8h-179.2v80zM512 832c246.4 0 448-201.6 448-448s-201.6-448-448-448S64 137.60000000000002 64 384 265.6 832 512 832m0 64C230.4 896 0 665.6 0 384s230.4-512 512-512 512 230.4 512 512S793.6 896 512 896z"  horiz-adv-x="1024" />

    
    <glyph glyph-name="xinjianzhushangduanluqi" unicode="&#59481;" d="M704 864H320C267.2 864 224 820.8 224 768v-768c0-52.8 43.2-96 96-96h384c52.8 0 96 43.2 96 96V768c0 52.8-43.2 96-96 96z m32-864c0-17.6-14.4-32-32-32h-160v234.88l-198.72 264.64-50.56-39.36L480 181.12V-32h-160c-17.6 0-32 14.4-32 32V768c0 17.6 14.4 32 32 32h160v-114.88l-116.16 85.76-34.56-49.28 131.84-97.6-131.84-97.6 34.56-49.28L497.6 576h28.48l133.76-98.88 34.56 49.28-131.84 97.6 132.16 97.6-34.56 49.28L544 685.12V800h160c17.6 0 32-14.4 32-32v-768z"  horiz-adv-x="1024" />

    
    <glyph glyph-name="xinjiantieta" unicode="&#59482;" d="M864 832H160C106.88 832 64 789.12 64 736v-704c0-53.12 42.88-96 96-96h704c53.12 0 96 42.88 96 96V736c0 53.12-42.88 96-96 96z m-64-32v-82.88L690.88 608H333.12L224 717.12V800h576zM320 224V544c0 17.6 14.4 32 32 32h320c17.6 0 32-14.4 32-32v-320c0-17.6-14.4-32-32-32H352c-17.6 0-32 14.4-32 32zM96 672h82.88L288 562.88v-357.44L178.88 96H96V672z m128-704v82.88L333.12 160h357.44L800 50.88V-32H224z m704 128h-82.88L736 205.12V562.88L845.12 672H928v-576zM512 332.8l128-76.8-76.8 128 76.8 128-128-76.8-128 76.8 76.8-128-76.8-128z"  horiz-adv-x="1024" />

    
    <glyph glyph-name="xinjianshuinishuanggan" unicode="&#59483;" d="M736 96a286.144 286.144 0 0 0-224 107.52c-6.4-8.32-13.12-16-20.48-23.04A286.144 286.144 0 0 0 288 96c-76.8 0-149.12 30.08-203.52 84.48-112.32 112.32-112.32 295.04 0 407.36A286.624 286.624 0 0 0 288 672a285.6 285.6 0 0 0 224-107.52c6.4 8.32 13.12 16 20.48 23.04C586.88 641.92 659.2 672 736 672c76.8 0 149.44-30.08 203.52-84.48 112.32-112.32 112.32-295.04 0-407.36A286.624 286.624 0 0 0 736 96z m-224 233.6l28.16-51.84c11.84-21.76 23.68-38.4 37.44-52.16A222.72 222.72 0 0 1 736 160c59.84 0 116.16 23.36 158.4 65.6a224.224 224.224 0 0 1 0 316.8A222.72 222.72 0 0 1 736 608c-59.84 0-116.16-23.36-158.4-65.6-13.76-13.76-25.6-30.4-37.44-52.16L512 438.4l-28.16 51.84c-11.84 21.76-23.68 38.4-37.44 52.16A222.72 222.72 0 0 1 288 608c-59.84 0-116.16-23.36-158.4-65.6a224.224 224.224 0 0 1 0-316.8A222.72 222.72 0 0 1 288 160c59.84 0 116.16 23.36 158.4 65.6 13.76 13.76 25.6 30.4 37.44 52.16L512 329.6zM736 214.4c-45.44 0-88 17.6-120 49.6S566.4 338.56 566.4 384s17.6 88 49.6 120S690.56 553.6 736 553.6s88-17.6 120-49.6a169.76 169.76 0 0 0 0-240c-32-32-74.56-49.6-120-49.6z m0 307.2c-36.8 0-71.36-14.4-97.28-40.32S598.4 420.8 598.4 384s14.4-71.36 40.32-97.28S699.2 246.4 736 246.4s71.36 14.4 97.28 40.32a137.504 137.504 0 0 1 0 194.56A136.768 136.768 0 0 1 736 521.6zM288 214.4c-45.44 0-88 17.6-120 49.6a169.76 169.76 0 0 0 0 240c32 32 74.56 49.6 120 49.6s88-17.6 120-49.6S457.6 429.44 457.6 384s-17.6-88-49.6-120S333.12 214.4 288 214.4z m0 307.2c-36.8 0-71.36-14.4-97.28-40.32a137.504 137.504 0 0 1 0-194.56c25.92-25.92 60.48-40.32 97.28-40.32 36.8 0 71.36 14.4 97.28 40.32S425.6 347.2 425.6 384s-14.4 71.36-40.32 97.28A136.768 136.768 0 0 1 288 521.6z"  horiz-adv-x="1024" />

    
    <glyph glyph-name="xinjianzhushangrongduanqi" unicode="&#59484;" d="M736 864H288c-35.2 0-64-28.8-64-64v-832c0-35.2 28.8-64 64-64h448c35.2 0 64 28.8 64 64V800c0 35.2-28.8 64-64 64zM288 800h192v-128h-128v-576h128v-128H288V800z m192-640h-64V608h64v-448z m64 448h64v-448h-64V608z m192-640h-192v128h128V672h-128V800h192v-832z"  horiz-adv-x="1024" />

    
    <glyph glyph-name="xinjianzhushanggelikaiguan" unicode="&#59485;" d="M704 864H320C267.2 864 224 820.8 224 768v-768c0-52.8 43.2-96 96-96h384c52.8 0 96 43.2 96 96V768c0 52.8-43.2 96-96 96z m32-864c0-17.6-14.4-32-32-32h-160v235.2l-199.04 296.64-49.92-40L480 180.8V-32h-160c-17.6 0-32 14.4-32 32V768c0 17.6 14.4 32 32 32h160v-160h-128v-64h320V640h-128V800h160c17.6 0 32-14.4 32-32v-768z"  horiz-adv-x="1024" />

    
    <glyph glyph-name="yuanyouTxingjing" unicode="&#59486;" d="M512 896C229.76 896 0 666.24 0 384s229.76-512 512-512 512 229.76 512 512S794.24 896 512 896z m-32-64h64v-64h-64V832z m-32-101.76V697.6c-125.44-25.6-224-124.16-249.6-249.6H166.08C192.32 591.04 304.96 704 448 730.24zM128 352H64v64h64v-64z m320-314.24C304.96 64 192.32 176.96 166.08 320H198.4c25.6-125.44 124.16-224 249.6-249.28v-32.96zM544-64h-64v64h64v-64z m16 227.2h-96v133.12a139.424 139.424 0 0 1-122.24 122.88H304v96h416v-96h-38.08c-64-7.68-114.56-57.92-121.92-122.24v-133.76z m16-125.44V70.4c125.44 25.6 224 124.16 249.6 249.28h32.32c-26.24-142.72-138.88-255.68-281.92-281.92zM825.6 448c-25.6 125.44-124.16 224-249.6 249.28V730.24c143.04-26.24 255.68-139.2 281.92-282.24H825.6z m70.4-96v64h64v-64h-64z"  horiz-adv-x="1024" />

    
    <glyph glyph-name="xinjianxiangbian" unicode="&#59487;" d="M512 832c246.4 0 448-201.6 448-448s-201.6-448-448-448S64 137.60000000000002 64 384 265.6 832 512 832m0 64C230.4 896 0 665.6 0 384s230.4-512 512-512 512 230.4 512 512S793.6 896 512 896zM422.4 166.39999999999998l-83.2 160-83.2-160H134.4l124.8 220.8-112 214.4h115.2l73.6-150.4 73.6 150.4h115.2l-115.2-214.4 124.8-220.8h-112zM553.6 166.39999999999998V601.6h188.8c22.4 0 44.8-3.2 64-9.6 19.2-6.4 35.2-12.8 48-25.6 22.4-19.2 35.2-44.8 35.2-76.8 0-22.4-6.4-44.8-22.4-60.8-12.8-16-28.8-25.6-48-32v-3.2c12.8-3.2 25.6-9.6 38.4-16 9.6-6.4 19.2-16 28.8-25.6 12.8-19.2 19.2-41.6 19.2-64 0-16-3.2-28.8-6.4-41.6-6.4-16-16-32-28.8-44.8-12.8-12.8-28.8-19.2-48-25.6-22.4-6.4-41.6-9.6-64-9.6h-204.8z m179.2 259.2c16 0 28.8 3.2 38.4 12.8 9.6 9.6 12.8 19.2 12.8 32s-6.4 22.4-12.8 28.8c-9.6 9.6-22.4 12.8-38.4 12.8h-80v-89.6h80z m12.8-172.8c12.8 0 25.6 3.2 38.4 12.8 12.8 9.6 16 22.4 16 38.4s-6.4 25.6-19.2 35.2c-12.8 9.6-25.6 12.8-41.6 12.8h-86.4v-99.2h92.8z"  horiz-adv-x="1024" />

    
    <glyph glyph-name="yuanyoudiyafenzhixiang" unicode="&#59488;" d="M403.2 486.4c-12.8 12.8-38.4 19.2-70.4 19.2H259.2v-252.8h73.6c35.2 0 60.8 6.4 73.6 22.4 9.6 9.6 16 25.6 19.2 41.6 6.4 19.2 9.6 38.4 9.6 60.8s-3.2 44.8-9.6 64c-6.4 22.4-12.8 35.2-22.4 44.8zM512 896C230.4 896 0 665.6 0 384s230.4-512 512-512 512 230.4 512 512S793.6 896 512 896z m22.4-627.2c-12.8-35.2-32-64-57.6-80-16-9.6-35.2-19.2-57.6-22.4-19.2-3.2-48-6.4-89.6-6.4H144V598.4h188.8c44.8 0 80-3.2 105.6-12.8 48-16 80-51.2 96-96 12.8-35.2 16-70.4 16-112 3.2-38.4-3.2-73.6-16-108.8z m153.6 246.4v-83.2h179.2v-92.8h-179.2V160h-105.6V608H896v-92.8h-208z"  horiz-adv-x="1024" />

    
    <glyph glyph-name="xinjianzhilujing" unicode="&#59489;" d="M512 896C229.76 896 0 666.24 0 384s229.76-512 512-512 512 229.76 512 512S794.24 896 512 896z m0-64zM64 384z m480-446.4V0h-64v-62.4C258.56-46.72 81.28 130.56 65.6 352H128v64H65.6C81.28 637.44 258.56 814.72 480 830.4V768h64V830.4c221.44-15.68 398.72-192.96 414.4-414.4H896v-64h62.4c-15.68-221.44-192.96-398.72-414.4-414.4zM198.4 320H166.08c26.24-143.04 138.88-256 281.92-282.24V70.4c-125.44 25.6-224 124.16-249.6 249.6zM576 70.72v-32.64c143.04 26.24 255.68 139.2 281.92 282.24H825.6a319.776 319.776 0 0 0-249.6-249.6zM576 730.24V697.6c125.44-25.6 224-124.16 249.6-249.28h32.32c-26.24 142.72-138.88 255.36-281.92 281.92zM166.08 448H198.4c25.6 125.44 124.16 224 249.6 249.28V730.24C304.96 703.68 192.32 591.04 166.08 448zM464 560h96v-384h-96z"  horiz-adv-x="1024" />

    
    <glyph glyph-name="xinjianzhushangbileiqi" unicode="&#59490;" d="M800 128v-64H224v64h256v64H288V832h192V896h64v-64h192v-640h-192v-64h256z m-128 128V768h-128v-96h-64V768h-128v-512h320z m-160 32.32L416 671.68h191.68L512 288.32zM704-32H320v64h384v-64z m-96-96h-192v64h192v-64z"  horiz-adv-x="1024" />

    
    <glyph glyph-name="yuanyoufanggan" unicode="&#59491;" d="M864-64H160c-53.12 0-96 42.88-96 96V736c0 53.12 42.88 96 96 96h704c53.12 0 96-42.88 96-96v-704c0-53.12-42.88-96-96-96z m-128 640c0 17.6-14.4 32-32 32H320c-17.6 0-32-14.4-32-32v-384c0-17.6 14.4-32 32-32h384c17.6 0 32 14.4 32 32V576z m-64-384H352c-17.6 0-32 14.4-32 32V544c0 17.6 14.4 32 32 32h320c17.6 0 32-14.4 32-32v-320c0-17.6-14.4-32-32-32z"  horiz-adv-x="1024" />

    
    <glyph glyph-name="yuanyoubianyaqi" unicode="&#59492;" d="M704 64c-81.92 0-163.84 31.04-226.24 93.44-124.8 124.8-124.8 327.68 0 452.48 124.8 124.8 327.68 124.8 452.48 0 124.8-124.8 124.8-327.68 0-452.48A320.128 320.128 0 0 0 704 64z m0 576c-65.6 0-131.2-24.96-181.12-74.88-99.84-99.84-99.84-262.08 0-361.92 99.84-99.84 262.4-99.84 361.92 0 99.84 99.84 99.84 262.08 0 361.92A254.08 254.08 0 0 1 704 640zM320 64c-81.92 0-163.84 31.04-226.24 93.44-124.8 124.8-124.8 327.68 0 452.48 124.8 124.8 327.68 124.8 452.48 0C606.72 549.76 640 469.44 640 384s-33.28-165.76-93.76-226.24A319.136 319.136 0 0 0 320 64z m0 576c-65.6 0-131.2-24.96-181.12-74.88-99.84-99.84-99.84-262.08 0-361.92 99.84-99.84 262.4-99.84 361.92 0C549.44 251.2 576 315.52 576 384s-26.56 132.8-74.88 181.12A255.36 255.36 0 0 1 320 640zM227.84 355.52c-4.48 9.6-15.36 28.16-24.64 42.88v-141.44h-20.16v132.16c-9.28-29.76-21.44-58.24-33.92-75.84-1.92 5.76-7.36 14.72-11.2 19.84 18.24 22.72 35.52 66.88 44.16 104.64H143.04v19.52h40v53.76h20.16v-53.76h35.2v-19.52h-35.2v-14.72c9.28-11.84 32.32-44.16 37.44-52.48l-12.8-15.04z m166.08-71.36v-19.2H234.88v19.2h72v72.64H249.6v18.56h56.96v63.36H244.16v19.2h145.28v-19.2h-61.12v-63.36h53.76v-18.56h-53.76v-72.64h65.6z m-78.72 175.68c-3.2 11.52-11.52 30.4-19.52 44.16l18.56 6.4c8.64-13.76 17.28-31.68 20.8-43.52l-19.84-7.04z"  horiz-adv-x="1024" />

    
    <glyph glyph-name="yuanyoubiandianzhan" unicode="&#59493;" d="M377.6 441.6c9.6 9.6 12.8 19.2 12.8 32s-6.4 22.4-12.8 32c-12.8 9.6-25.6 12.8-38.4 12.8H262.4v-89.6h76.8c12.8-3.2 25.6 3.2 38.4 12.8zM387.2 339.20000000000005c-12.8 9.6-25.6 12.8-41.6 12.8H262.4v-102.4H352c12.8 0 25.6 3.2 38.4 12.8 12.8 9.6 19.2 22.4 19.2 38.4-3.2 16-9.6 28.8-22.4 38.4zM512 896C230.4 896 0 665.6 0 384s230.4-512 512-512 512 230.4 512 512S793.6 896 512 896z m0-656c-6.4-16-16-32-28.8-44.8-16-12.8-32-22.4-48-25.6-22.4-6.4-44.8-9.6-67.2-9.6H166.4V608h182.4c22.4 0 44.8-3.2 67.2-9.6 19.2-6.4 35.2-12.8 51.2-25.6 25.6-22.4 35.2-48 35.2-80 0-22.4-6.4-44.8-22.4-64-12.8-16-28.8-28.8-51.2-32v-3.2c12.8-3.2 25.6-9.6 38.4-16 12.8-6.4 22.4-16 28.8-25.6 12.8-19.2 22.4-41.6 22.4-67.2 3.2-16 0-28.8-6.4-44.8z m374.4 19.2c-6.4-12.8-16-25.6-22.4-35.2-9.6-9.6-19.2-19.2-32-28.8l-38.4-19.2c-16-6.4-32-9.6-44.8-12.8-19.2-3.2-35.2-3.2-54.4-3.2h-147.2V608h147.2c25.6 0 51.2-3.2 76.8-9.6 16-3.2 28.8-9.6 41.6-16s25.6-16 35.2-25.6c9.6-9.6 19.2-19.2 25.6-32 6.4-12.8 16-25.6 19.2-41.6 6.4-16 9.6-32 12.8-48 3.2-19.2 3.2-35.2 3.2-54.4 0-25.6-3.2-54.4-9.6-80 0-12.8-6.4-25.6-12.8-41.6zM780.8 470.4c-6.4 12.8-16 22.4-28.8 28.8-9.6 6.4-22.4 9.6-35.2 9.6h-73.6V256h73.6c12.8 0 22.4 3.2 35.2 9.6 9.6 6.4 19.2 16 28.8 28.8 6.4 12.8 12.8 28.8 16 44.8 3.2 12.8 3.2 28.8 3.2 44.8 0 16-3.2 28.8-3.2 44.8-3.2 12.8-9.6 28.8-16 41.6z"  horiz-adv-x="1024" />

    
    <glyph glyph-name="yuanyoukaiguanzhan" unicode="&#59494;" d="M512 896C230.4 896 0 665.6 0 384s230.4-512 512-512 512 230.4 512 512S793.6 896 512 896z m124.8-761.6l-105.6 208-80-86.4v-160H294.4V672H448v-227.2l163.2 188.8h169.6l-147.2-188.8 156.8-313.6h-153.6z"  horiz-adv-x="1024" />

    
    <glyph glyph-name="yuanyougaoyafenzhixiang" unicode="&#59495;" d="M512 896C230.4 896 0 665.6 0 384s230.4-512 512-512 512 230.4 512 512S793.6 896 512 896z m22.4-390.4H352c-35.2 0-60.8-6.4-73.6-22.4-19.2-16-28.8-51.2-28.8-96 0-25.6 3.2-48 6.4-67.2 6.4-19.2 12.8-32 19.2-41.6 6.4-9.6 16-12.8 28.8-16 12.8-3.2 28.8-6.4 48-6.4h70.4v80H310.4v92.8h224V160h-198.4c-32 0-60.8 3.2-80 6.4-19.2 6.4-38.4 12.8-54.4 28.8-44.8 35.2-70.4 96-70.4 182.4 0 54.4 9.6 102.4 32 140.8 16 28.8 38.4 48 67.2 60.8 28.8 12.8 64 19.2 108.8 19.2h192v-92.8z m150.4 9.6v-83.2H864v-92.8h-179.2V160h-105.6V608h313.6v-92.8h-208z"  horiz-adv-x="1024" />

    
    <glyph glyph-name="yuanyouhuanwangshi" unicode="&#59496;" d="M764.8 438.4c6.4 6.4 12.8 16 12.8 28.8s-3.2 22.4-12.8 28.8c-6.4 6.4-22.4 9.6-41.6 9.6h-70.4v-80h67.2c22.4 3.2 35.2 6.4 44.8 12.8zM732.8 348.79999999999995h-76.8v-83.2H736c22.4 0 38.4 3.2 48 12.8 9.6 6.4 12.8 19.2 12.8 32s-3.2 22.4-12.8 28.8c-12.8 6.4-28.8 9.6-51.2 9.6zM512 896C230.4 896 0 665.6 0 384s230.4-512 512-512 512 230.4 512 512S793.6 896 512 896z m-12.8-720h-99.2v169.6H259.2v-169.6h-96v416h99.2V448h140.8V592h99.2v-416z m352 19.2c-9.6-6.4-25.6-9.6-48-12.8-28.8-3.2-48-6.4-57.6-6.4h-192v416h211.2c41.6 0 70.4-9.6 92.8-28.8 22.4-19.2 32-44.8 32-73.6 0-25.6-6.4-44.8-22.4-64-9.6-12.8-25.6-22.4-44.8-28.8 28.8-6.4 51.2-19.2 67.2-38.4 12.8-16 22.4-38.4 22.4-67.2 0-22.4-6.4-41.6-16-57.6-12.8-16-25.6-28.8-44.8-38.4z"  horiz-adv-x="1024" />

    
    <glyph glyph-name="yuanyougangguangan" unicode="&#59497;" d="M1017.042431 349.56807l-123.491057-298.490041c-9.277826-22.074826-26.553776-39.670702-48.628603-48.628603l-298.490041-123.491057c-22.074826-9.277826-46.709053-9.277826-68.783879 0L179.15881 2.769351c-22.074826 9.277826-39.670702 26.553776-48.628603 48.628603L7.03915 349.887995c-9.277826 22.074826-9.277826 46.709053 0 68.783879L130.530207 716.84199c8.9579 22.074826 26.553776 39.670702 48.628603 48.628603L477.648851 888.96165c22.074826 9.277826 46.709053 9.277826 68.783879 0l298.490041-123.491057c22.074826-9.277826 39.670702-26.553776 48.628603-48.628603l123.491057-298.490041c8.9579-21.754901 8.9579-46.709053 0-68.783879z m-254.980239 63.665078l-52.787628 127.650082c-7.6782 18.555651-22.394751 33.272202-40.950402 40.950403L540.67408 634.621261c-18.555651 7.6782-39.350777 7.6782-57.906428 0L355.11757 581.833633c-18.555651-7.6782-33.272202-22.394751-40.950403-40.950403l-52.787628-127.650082c-7.6782-18.555651-7.6782-39.350777 0-57.906428l52.787628-127.650082c7.6782-18.555651 22.394751-33.272202 40.950403-40.950402l127.650082-52.787628c18.555651-7.6782 39.350777-7.6782 57.906428 0l127.650082 52.787628c18.555651 7.6782 33.272202 22.394751 40.950402 40.950402l52.787628 127.650082c7.6782 18.235726 7.6782 39.350777 0 57.906428z"  horiz-adv-x="1024" />

    
    <glyph glyph-name="xinjianzhuanjiaojing" unicode="&#59498;" d="M512 896C229.76 896 0 666.24 0 384s229.76-512 512-512 512 229.76 512 512S794.24 896 512 896z m0-64zM64 384z m480-446.4V0h-64v-62.4C258.56-46.72 81.28 130.56 65.6 352H128v64H65.6C81.28 637.44 258.56 814.72 480 830.4V768h64V830.4c221.44-15.68 398.72-192.96 414.4-414.4H896v-64h62.4c-15.68-221.44-192.96-398.72-414.4-414.4zM198.4 320H166.08c26.24-143.04 138.88-256 281.92-282.24V70.4c-125.44 25.6-224 124.16-249.6 249.6zM576 70.72v-32.64c143.04 26.24 255.68 139.2 281.92 282.24H825.6a319.776 319.776 0 0 0-249.6-249.6zM576 730.24V697.6c125.44-25.6 224-124.16 249.6-249.28h32.32c-26.24 142.72-138.88 255.36-281.92 281.92zM166.08 448H198.4c25.6 125.44 124.16 224 249.6 249.28V730.24C304.96 703.68 192.32 591.04 166.08 448zM464 176h-96v256h192v160h96v-256h-192z"  horiz-adv-x="1024" />

    
    <glyph glyph-name="yuanyoupeidianshi" unicode="&#59499;" d="M537.6 544h-64v-147.2h54.4c35.2 0 60.8 6.4 76.8 19.2 16 12.8 22.4 32 22.4 51.2 0 19.2-6.4 38.4-19.2 51.2-9.6 19.2-35.2 25.6-70.4 25.6zM512 896C230.4 896 0 665.6 0 384s230.4-512 512-512 512 230.4 512 512S793.6 896 512 896z m233.6-576c-38.4-38.4-92.8-57.6-169.6-57.6h-102.4v-214.4h-150.4V678.4h275.2c67.2 0 118.4-16 153.6-51.2 35.2-35.2 51.2-86.4 51.2-150.4 0-67.2-19.2-121.6-57.6-156.8z"  horiz-adv-x="1024" />

    
    <glyph glyph-name="yuanyousanxiangbiaoxiang" unicode="&#59500;" d="M928 704c17.6 0 32-14.4 32-32v-576c0-17.6-14.4-32-32-32H96c-17.6 0-32 14.4-32 32V672c0 17.6 14.4 32 32 32h832m0 64H96C42.88 768 0 725.12 0 672v-576c0-53.12 42.88-96 96-96h832c53.12 0 96 42.88 96 96V672c0 53.12-42.88 96-96 96zM384 768H96C42.88 768 0 725.12 0 672v-576c0-53.12 42.88-96 96-96h288c53.12 0 96 42.88 96 96V672c0 53.12-42.88 96-96 96z m13.76-509.12c-12.48-19.2-30.4-33.92-52.8-43.84-22.72-9.92-51.2-15.04-85.76-15.04-60.48 0-102.4 11.52-125.76 34.88-23.04 23.36-36.48 53.12-39.36 88.96l104.64 6.4c2.24-16.96 6.72-30.08 13.76-38.72 11.2-14.4 27.52-21.76 48.64-21.76 15.68 0 27.84 3.52 36.16 11.2 8.64 7.36 12.8 16 12.8 25.6 0 9.28-4.16 17.6-12.16 24.64s-26.88 14.4-56.32 20.8c-48.32 10.88-82.56 25.28-103.04 43.2-20.8 17.92-31.04 40.96-31.04 68.8 0 18.24 5.44 35.52 16 51.84 10.56 16.32 26.56 29.12 47.68 38.4 21.12 9.28 50.56 14.08 87.36 14.08 45.44 0 80-8.32 104-25.28s38.08-43.84 42.56-80.64l-103.68-6.08c-2.88 16-8.64 27.52-17.28 34.88-8.96 7.36-21.12 10.88-36.48 10.88-12.8 0-22.4-2.56-28.8-8-6.4-5.44-9.6-12.16-9.6-19.84 0-5.76 2.56-10.88 8-15.36 5.12-4.8 17.6-8.96 36.8-13.12 48-10.24 82.56-20.8 103.36-31.36 20.8-10.56 35.84-23.68 45.44-39.36 9.6-15.68 14.08-33.28 14.08-52.8 0-23.36-6.4-44.16-19.2-63.36z"  horiz-adv-x="1024" />

    
    <glyph glyph-name="yuanyoushuinidangan" unicode="&#59501;" d="M512 896C229.76 896 0 666.24 0 384s229.76-512 512-512 512 229.76 512 512S794.24 896 512 896z m0-832c-176.32 0-320 143.68-320 320S335.68 704 512 704s320-143.68 320-320-143.68-320-320-320zM512 672a288 288 0 1 1 0.032-576.032A288 288 0 0 1 512 672z"  horiz-adv-x="1024" />

    
    <glyph glyph-name="yuanyouhuanwangxiang" unicode="&#59502;" d="M672 345.6h89.6l-44.8 150.4zM512 896C230.4 896 0 665.6 0 384s230.4-512 512-512 512 230.4 512 512S793.6 896 512 896z m-16-707.2h-99.2v169.6H256v-169.6H156.8v416H256v-144h140.8V604.8h99.2v-416z m313.6 0l-19.2 67.2h-147.2l-19.2-67.2h-99.2l124.8 416h140.8l124.8-416h-105.6z"  horiz-adv-x="1024" />

    
    <glyph glyph-name="yuanyousitongjing" unicode="&#59503;" d="M512 896C229.76 896 0 666.24 0 384s229.76-512 512-512 512 229.76 512 512S794.24 896 512 896z m-32-64h64v-64h-64V832z m-32-101.76V697.6c-125.44-25.6-224-124.16-249.6-249.6H166.08C192.32 591.04 304.96 704 448 730.24zM128 352H64v64h64v-64z m320-314.24C304.96 64 192.32 176.96 166.08 320H198.4c25.6-125.44 124.16-224 249.6-249.28v-32.96zM544-64h-64v64h64v-64z m3.2 220.8h-70.4v5.44a213.76 213.76 0 0 1-186.56 186.56H284.8v70.4h5.44a213.44 213.44 0 0 1 186.56 186.56V611.2h70.4v-5.44a213.76 213.76 0 0 1 186.56-186.56h5.44v-70.4h-5.44a213.44 213.44 0 0 1-186.56-186.56v-5.44z m28.8-119.04V70.4c125.44 25.6 224 124.16 249.6 249.28h32.32c-26.24-142.72-138.88-255.68-281.92-281.92zM825.6 448c-25.6 125.44-124.16 224-249.6 249.28V730.24c143.04-26.24 255.68-139.2 281.92-282.24H825.6z m70.4-96v64h64v-64h-64z"  horiz-adv-x="1024" />

    
    <glyph glyph-name="yuanyoutieta" unicode="&#59504;" d="M864 832H160C106.88 832 64 789.12 64 736v-704c0-53.12 42.88-96 96-96h704c53.12 0 96 42.88 96 96V736c0 53.12-42.88 96-96 96z m64-160h-82.88L736 562.88v-357.44L845.12 96H928v-128h-128v82.88L690.88 160H333.12L224 50.88V-32H96v128h82.88L288 205.12V562.88L178.88 672H96V800h128v-82.88L333.12 608h357.44L800 717.12V800h128v-128zM672 576H352c-17.6 0-32-14.4-32-32v-320c0-17.6 14.4-32 32-32h320c17.6 0 32 14.4 32 32V544c0 17.6-14.4 32-32 32z m-32-320l-128 76.8-128-76.8 76.8 128-76.8 128 128-76.8 128 76.8-76.8-128 76.8-128z"  horiz-adv-x="1024" />

    
    <glyph glyph-name="yuanyoushuinishuanggan" unicode="&#59505;" d="M939.84 587.84c-112.32 112.32-295.04 112.32-407.36 0-7.36-7.36-14.08-15.04-20.48-22.72-6.4 7.68-13.12 15.36-20.48 22.72-112.32 112.32-295.04 112.32-407.36 0C30.08 533.44 0 461.12 0 384s30.08-149.12 84.48-203.52C138.88 126.08 211.2 96 288 96c76.8 0 149.12 30.08 203.52 84.48 7.36 7.36 14.08 14.72 20.48 22.72 6.4-7.68 13.12-15.36 20.48-22.72C586.88 126.08 659.2 96 736 96c76.8 0 149.12 30.08 203.52 84.48 112.64 112.32 112.64 295.04 0.32 407.36zM419.2 252.8c-35.2-35.2-81.6-54.4-131.2-54.4-49.6 0-96.32 19.2-131.2 54.4a185.792 185.792 0 0 0 0 262.4C192 550.4 238.4 569.6 288 569.6c49.6 0 96.32-19.2 131.2-54.4s54.4-81.6 54.4-131.2-19.2-96-54.4-131.2z m448 0c-35.2-35.2-81.6-54.4-131.2-54.4-49.6 0-96.32 19.2-131.2 54.4a185.792 185.792 0 0 0 0 262.4c35.2 35.2 81.6 54.4 131.2 54.4s96.32-19.2 131.2-54.4 54.4-81.6 54.4-131.2-19.2-96-54.4-131.2zM288 537.6c-39.36 0-78.72-15.04-108.48-45.12-59.84-59.84-59.84-157.12 0-217.28 29.76-29.76 69.12-44.8 108.48-44.8s78.72 15.04 108.48 45.12c59.84 59.84 59.84 157.12 0 217.28-29.76 29.76-69.12 44.8-108.48 44.8zM736 537.6c-39.36 0-78.72-15.04-108.48-45.12-59.84-59.84-59.84-157.12 0-217.28 30.08-30.08 69.44-45.12 108.48-45.12s78.72 15.04 108.48 45.12c59.84 59.84 59.84 157.12 0 217.28A152.128 152.128 0 0 1 736 537.6z"  horiz-adv-x="1024" />

    
    <glyph glyph-name="yuanyouzhongjianzhijia" unicode="&#59506;" d="M384 896v-1024h256V896H384z m192-960H448v128h128v-128zM576 704H448V832h128v-128z"  horiz-adv-x="1024" />

    
    <glyph glyph-name="yuanyouxiangbian" unicode="&#59507;" d="M780.8 339.20000000000005c-12.8 9.6-25.6 12.8-41.6 12.8h-86.4v-99.2h92.8c12.8 0 25.6 3.2 38.4 12.8 12.8 9.6 16 22.4 16 38.4s-6.4 28.8-19.2 35.2zM512 896C230.4 896 0 665.6 0 384s230.4-512 512-512 512 230.4 512 512S793.6 896 512 896z m-89.6-729.6l-83.2 160-83.2-160H134.4l124.8 220.8-112 214.4h115.2l73.6-150.4 73.6 150.4h115.2l-115.2-214.4 124.8-220.8h-112z m451.2 35.2c-12.8-12.8-28.8-19.2-48-25.6-22.4-6.4-41.6-9.6-64-9.6h-208V601.6h188.8c22.4 0 44.8-3.2 64-9.6 19.2-6.4 35.2-12.8 48-25.6 22.4-19.2 35.2-44.8 35.2-76.8 0-22.4-6.4-44.8-22.4-60.8-12.8-16-28.8-25.6-48-32v-3.2c12.8-3.2 25.6-9.6 38.4-16 9.6-6.4 19.2-16 28.8-25.6 12.8-19.2 19.2-41.6 19.2-64 0-16-3.2-28.8-6.4-41.6-3.2-19.2-12.8-32-25.6-44.8zM771.2 438.4c9.6 9.6 12.8 19.2 12.8 32s-6.4 22.4-12.8 28.8c-9.6 9.6-22.4 12.8-38.4 12.8h-80v-89.6h76.8c19.2 3.2 32 6.4 41.6 16z"  horiz-adv-x="1024" />

    
    <glyph glyph-name="yuanyouzhushangrongduanqi" unicode="&#59508;" d="M736 864H288c-35.2 0-64-28.8-64-64v-832c0-35.2 28.8-64 64-64h448c35.2 0 64 28.8 64 64V800c0 35.2-28.8 64-64 64z m-64-768h-128v-160h-64v160h-128V672h128V832h64v-160h128v-576zM544 608h64v-448h-64zM416 608h64v-448h-64z"  horiz-adv-x="1024" />

    
    <glyph glyph-name="yuanyouzhuanjiaojing" unicode="&#59509;" d="M512 896C229.76 896 0 666.24 0 384s229.76-512 512-512 512 229.76 512 512S794.24 896 512 896z m-32-64h64v-64h-64V832z m-32-101.76V697.6c-125.44-25.6-224-124.16-249.6-249.6H166.08C192.32 591.04 304.96 704 448 730.24zM128 352H64v64h64v-64z m320-314.24C304.96 64 192.32 176.96 166.08 320H198.4c25.6-125.44 124.16-224 249.6-249.28v-32.96z m16 138.24h-96v256h192v160h96v-256h-192v-160zM544-64h-64v64h64v-64z m32 101.76V70.4c125.44 25.6 224 124.16 249.6 249.28h32.32c-26.24-142.72-138.88-255.68-281.92-281.92zM825.6 448c-25.6 125.44-124.16 224-249.6 249.28V730.24c143.04-26.24 255.68-139.2 281.92-282.24H825.6z m70.4-96v64h64v-64h-64z"  horiz-adv-x="1024" />

    
    <glyph glyph-name="yuanyouzhilujing" unicode="&#59510;" d="M512 896C229.76 896 0 666.24 0 384s229.76-512 512-512 512 229.76 512 512S794.24 896 512 896zM128 352H64v64h64v-64zM480 832h64v-64h-64V832z m-32-794.24C304.96 64 192.32 176.96 166.08 320H198.4c25.6-125.44 124.16-224 249.6-249.28v-32.96z m0 659.52C322.56 672 224 573.44 198.4 448H166.08C192.32 591.04 304.96 704 448 730.24v-32.96zM544-64h-64v64h64v-64z m16 240h-96v384h96v-384z m16-138.24V70.4c125.44 25.6 224 124.16 249.6 249.28h32.32c-26.24-142.72-138.88-255.68-281.92-281.92zM825.6 448c-25.6 125.44-124.16 224-249.6 249.28V730.24c143.04-26.24 255.68-139.2 281.92-282.24H825.6z m70.4-96v64h64v-64h-64z"  horiz-adv-x="1024" />

    
    <glyph glyph-name="yuanyouzhushangbileiqi" unicode="&#59511;" d="M320 32h384v-64H320zM416-64h192v-64h-192zM480 896h64v-64h-64zM544 128v64h192V832h-192v-160.32h63.68L512 288.32 416 671.68h64V832H288v-640h192v-64H224v-64h576v64z"  horiz-adv-x="1024" />

    
    <glyph glyph-name="yuanyoudanxiangbiaoxiang" unicode="&#59512;" d="M928 704c17.6 0 32-14.4 32-32v-576c0-17.6-14.4-32-32-32H96c-17.6 0-32 14.4-32 32V672c0 17.6 14.4 32 32 32h832m0 64H96C42.88 768 0 725.12 0 672v-576c0-53.12 42.88-96 96-96h832c53.12 0 96 42.88 96 96V672c0 53.12-42.88 96-96 96zM231.36 484.8H189.44v-200.96h27.84c23.68 0 54.4 2.56 64.32 8 9.92 5.12 17.92 14.4 23.68 27.52 5.76 13.12 8.64 34.56 8.64 64 0 39.04-6.4 65.6-19.2 80-12.8 14.08-33.92 21.44-63.36 21.44zM384 768H96C42.88 768 0 725.12 0 672v-576c0-53.12 42.88-96 96-96h288c53.12 0 96 42.88 96 96V672c0 53.12-42.88 96-96 96z m10.24-474.24c-8.96-21.76-21.44-39.68-37.44-54.4-16-14.72-32.96-24.32-51.2-29.12-24.96-6.72-47.68-9.92-67.84-9.92h-134.4v368h134.4c33.28 0 60.16-4.48 80.64-13.44 20.48-8.96 37.44-22.08 50.88-39.04 13.44-16.96 23.04-36.48 29.12-58.88 6.08-22.4 8.96-46.08 8.96-71.36 0.32-39.68-4.16-70.08-13.12-91.84z"  horiz-adv-x="1024" />

    
    <glyph glyph-name="yuandi" unicode="&#59513;" d="M512 384m-512 0a512 512 0 1 1 1024 0 512 512 0 1 1-1024 0Z"  horiz-adv-x="1024" />

    
    <glyph glyph-name="yuanyouzhushangduanluqi" unicode="&#59514;" d="M736 864H288c-35.2 0-64-28.8-64-64v-832c0-35.2 28.8-64 64-64h448c35.2 0 64 28.8 64 64V800c0 35.2-28.8 64-64 64z m-192-928h-64v245.12l-185.28 247.36 50.56 39.36L544 202.88V-64z m150.72 590.4l-34.56-49.28L526.4 576h-28.8l-133.76-98.88-34.56 49.28 131.84 97.6-131.84 97.6 34.56 49.28L480 685.12V832h64v-146.88l116.16 85.76 34.56-49.28-132.16-97.6 132.16-97.6z"  horiz-adv-x="1024" />

    
    <glyph glyph-name="yuanyoumenxingzhijia" unicode="&#59515;" d="M800 640V896H224v-1024h576v256H480V640h320zM416-64H288v128h128v-128zM416 704H288V832h128v-128z"  horiz-adv-x="1024" />

    
    <glyph glyph-name="yuanyouzhushanggelikaiguan" unicode="&#59516;" d="M736 864H288c-35.2 0-64-28.8-64-64v-832c0-35.2 28.8-64 64-64h448c35.2 0 64 28.8 64 64V800c0 35.2-28.8 64-64 64z m-192-928h-64v244.8l-184.96 279.36 49.92 40L544 203.2V-64z m128 640H352V640h128V832h64v-192h128v-64z"  horiz-adv-x="1024" />

    
    <glyph glyph-name="icon_weixuanxingganta" unicode="&#59427;" d="M512-128C230.4-128 0 102.39999999999998 0 384S230.4 896 512 896s512-230.4 512-512-230.4-512-512-512z m0 960C265.6 832 64 630.4 64 384s201.6-448 448-448 448 201.6 448 448S758.4 832 512 832zM441.6 188.79999999999995h147.2v-144h-147.2zM627.2 355.20000000000005c-28.8-22.4-38.4-44.8-38.4-67.2v-41.6h-144v48c-3.2 51.2 12.8 96 67.2 131.2 32 25.6 51.2 51.2 51.2 76.8 0 38.4-19.2 41.6-41.6 44.8-51.2 0-67.2-28.8-76.8-76.8l-3.2-16H304l3.2 22.4c19.2 124.8 83.2 214.4 224 214.4 134.4 0 185.6-96 188.8-179.2 3.2-57.6-28.8-108.8-92.8-156.8z"  horiz-adv-x="1024" />

    
    <glyph glyph-name="icon_weixuanxingzhijia" unicode="&#59428;" d="M384 896v-1024h256V896h-256z m160-960h-64v64h64v-64z m0 832h-64V832h64v-64z"  horiz-adv-x="1024" />

    
    <glyph glyph-name="icon_weixuanxing" unicode="&#59429;" d="M512-128C230.4-128 0 102.39999999999998 0 384S230.4 896 512 896s512-230.4 512-512-230.4-512-512-512z m0 960C265.6 832 64 630.4 64 384s201.6-448 448-448 448 201.6 448 448S758.4 832 512 832zM752 672h-480C246.4 672 224 649.6 224 624v-480c0-25.6 22.4-48 48-48h480c25.6 0 48 22.4 48 48v480c0 25.6-22.4 48-48 48zM576 128h-118.4v115.2H576V128z m28.8 246.4c-22.4-19.2-28.8-38.4-28.8-54.4v-35.2h-115.2v38.4c-3.2 41.6 9.6 76.8 54.4 105.6 25.6 19.2 41.6 41.6 41.6 60.8 0 28.8-16 35.2-32 35.2-41.6 0-54.4-22.4-60.8-64l-3.2-12.8h-112l3.2 19.2c9.6 102.4 64 172.8 176 172.8 108.8 0 150.4-76.8 150.4-144 3.2-41.6-22.4-83.2-73.6-121.6z"  horiz-adv-x="1024" />

    
    <glyph glyph-name="icon_weixuanxingdianlanjing" unicode="&#59430;" d="M512 896C230.4 896 0 665.6 0 384s230.4-512 512-512 512 230.4 512 512S793.6 896 512 896zM128 352H64v64h64v-64zM480 832h64v-64h-64V832z m-32-102.4v-32c-124.8-25.6-224-124.8-249.6-249.6h-32C192 592 304 704 448 729.6z m0-691.2C304 64 192 176 166.4 320h32c25.6-124.8 124.8-224 249.6-249.6v-32z m96-102.4h-64v64h64v-64z m22.4 224h-102.4v99.2h102.4V160z m0 137.6h-102.4v35.2c-3.2 35.2 9.6 67.2 44.8 92.8 22.4 16 35.2 35.2 35.2 54.4 0 25.6-12.8 28.8-28.8 32-35.2 0-48-22.4-51.2-54.4l-3.2-12.8h-96l3.2 16c12.8 86.4 57.6 150.4 156.8 150.4 92.8 0 128-67.2 131.2-124.8 3.2-38.4-19.2-73.6-64-105.6-19.2-16-25.6-32-25.6-48v-35.2z m9.6-259.2v32c124.8 25.6 224 124.8 249.6 249.6h32c-25.6-144-137.6-256-281.6-281.6zM825.6 448c-25.6 124.8-124.8 224-249.6 249.6v32c144-25.6 256-137.6 281.6-281.6h-32z m70.4-96v64h64v-64h-64z"  horiz-adv-x="1024" />

    
    <glyph glyph-name="chaichuzhongjianzhijia" unicode="&#59431;" d="M777.92 748.48L273.92 3.2l-27.84 16L750.4 764.48l27.52-16zM273.6 764.8l504.32-745.28-27.84-16L246.08 748.8l27.52 16z"  horiz-adv-x="1024" />

    
    <glyph glyph-name="icon_weixuanxingzhushangwu" unicode="&#59432;" d="M704 832H320c-35.2 0-64-28.8-64-64v-768c0-35.2 28.8-64 64-64h384c35.2 0 64 28.8 64 64V768c0 35.2-28.8 64-64 64z m-137.6-672h-102.4v99.2h102.4V160z m25.6 214.4c-19.2-16-25.6-32-25.6-48v-28.8h-102.4v35.2c-3.2 35.2 9.6 67.2 44.8 92.8 22.4 16 35.2 35.2 35.2 54.4 0 25.6-12.8 28.8-28.8 32-35.2 0-48-22.4-51.2-54.4l-3.2-12.8h-96l3.2 16c12.8 86.4 57.6 150.4 156.8 150.4 92.8 0 128-67.2 131.2-124.8 3.2-41.6-19.2-76.8-64-112z"  horiz-adv-x="1024" />

    
    <glyph glyph-name="lijiubiandianzhan" unicode="&#59433;" d="M387.2 339.20000000000005c-12.8 9.6-25.6 12.8-41.6 12.8H262.4v-102.4H352c12.8 0 25.6 3.2 38.4 12.8 12.8 9.6 19.2 22.4 19.2 38.4-3.2 16-9.6 28.8-22.4 38.4zM912 396.8v-12.8c0-25.6-3.2-54.4-9.6-80-3.2-16-9.6-28.8-16-44.8-6.4-12.8-16-25.6-22.4-35.2-9.6-9.6-19.2-19.2-32-28.8l-38.4-19.2c-16-6.4-32-9.6-44.8-12.8-19.2-3.2-35.2-3.2-54.4-3.2h-147.2v236.8h-115.2c12.8-3.2 25.6-9.6 38.4-16 12.8-6.4 22.4-16 28.8-25.6 12.8-19.2 22.4-41.6 22.4-67.2 0-16-3.2-28.8-6.4-44.8-6.4-16-16-32-28.8-44.8-16-12.8-32-22.4-48-25.6-22.4-6.4-44.8-9.6-67.2-9.6H166.4v236.8H0v-12.8c0-281.6 230.4-512 512-512s512 230.4 512 512v12.8h-112zM643.2 396.8V256h73.6c12.8 0 22.4 3.2 35.2 9.6 9.6 6.4 19.2 16 28.8 28.8 6.4 12.8 12.8 28.8 16 44.8 3.2 12.8 3.2 28.8 3.2 44.8v12.8h-156.8zM908.8 438.4c-3.2 16-6.4 32-12.8 48-6.4 12.8-12.8 28.8-19.2 41.6-6.4 12.8-16 22.4-25.6 32-9.6 9.6-22.4 16-35.2 25.6-12.8 6.4-28.8 12.8-41.6 16-28.8 3.2-54.4 6.4-80 6.4h-147.2v-211.2h99.2V512h73.6c12.8 0 22.4-3.2 35.2-9.6 9.6-6.4 19.2-16 28.8-28.8 6.4-12.8 12.8-28.8 16-44.8 3.2-9.6 3.2-19.2 3.2-32h112c-6.4 12.8-6.4 28.8-6.4 41.6zM512 896C233.6 896 6.4 672 0 396.8h64C70.4 636.8 268.8 832 512 832s441.6-195.2 448-435.2h64C1017.6 672 790.4 896 512 896zM416 598.4c-22.4 6.4-44.8 9.6-67.2 9.6H166.4v-211.2h265.6c19.2 6.4 35.2 16 51.2 32 12.8 19.2 22.4 38.4 22.4 64 0 32-12.8 57.6-35.2 80-19.2 12.8-35.2 19.2-54.4 25.6z m-38.4-156.8c-12.8-9.6-25.6-16-38.4-12.8H262.4v89.6h76.8c12.8 0 25.6-3.2 38.4-12.8 9.6-9.6 12.8-19.2 12.8-32s-3.2-22.4-12.8-32z"  horiz-adv-x="1024" />

    
    <glyph glyph-name="lijiufanggan" unicode="&#59434;" d="M703.68 608H320.32c-17.6 0-32-14.4-32-32v-192H320v-160c0-17.6 14.4-32 32-32h320c17.6 0 32 14.4 32 32v160h31.68v192c0 17.6-14.4 32-32 32z m-383.36-224v160c0 17.6 14.4 32 32 32H672c17.6 0 32-14.4 32-32v-160H320.32zM960 384V736c0 53.12-42.88 96-96 96H160C106.88 832 64 789.12 64 736v-352h-0.32v-352c0-53.12 42.88-96 96-96h704.64c53.12 0 96 42.88 96 96V384H960z m-223.68 0v-192c0-17.6-14.4-32-32-32H320c-17.6 0-32 14.4-32 32v192H128V736c0 17.6 14.4 32 32 32h704c17.6 0 32-14.4 32-32v-352h-159.68z"  horiz-adv-x="1024" />

    
    <glyph glyph-name="lijiudanxiangbiaoxiang" unicode="&#59435;" d="M960 384v-288c0-17.6-14.4-32-32-32H474.24c3.52 9.92 5.76 20.8 5.76 32v288h-72.64c0-38.72-4.48-68.8-13.44-90.24-8.96-21.76-21.44-39.68-37.44-54.4-16-14.72-32.96-24.32-51.2-29.12-24.96-6.72-47.68-9.92-67.84-9.92h-134.4V384H0v-288c0-53.12 42.88-96 96-96h832c53.12 0 96 42.88 96 96v288h-64zM189.44 384v-100.48h27.84c23.68 0 54.4 2.56 64.32 8 9.92 5.12 17.92 14.4 23.68 27.52 5.76 13.12 8.64 34.56 8.64 64V384H189.44zM369.28 515.52c-13.44 16.96-30.4 29.76-50.88 39.04-20.48 8.96-47.36 13.44-80.64 13.44h-134.4V384h86.08v100.8h41.92c29.44 0 50.56-7.04 63.36-21.44 12.8-14.4 18.88-40.96 19.2-79.36h93.76v1.28c0 24.96-2.88 48.96-8.96 71.36-6.08 22.4-16 41.92-29.44 58.88zM928 768H96C42.88 768 0 725.12 0 672v-288h64V672c0 17.6 14.4 32 32 32h343.04c5.44-9.6 8.96-20.16 8.96-32v-288h32V672c0 11.2-2.24 22.08-5.76 32H928c17.6 0 32-14.4 32-32v-288h64V672c0 53.12-42.88 96-96 96z"  horiz-adv-x="1024" />

    
    <glyph glyph-name="chaichumenxingzhijia" unicode="&#59436;" d="M896 768h-22.72L512 406.72 150.72 768H128v-22.72L489.28 384 128 22.72V0h22.72L512 361.28 873.28 0H896v22.72L534.72 384 896 745.28z"  horiz-adv-x="1024" />

    
    <glyph glyph-name="chaichuzhushangwu" unicode="&#59437;" d="M866.461538 817.230769H157.538462c-43.323077 0-78.769231-35.446154-78.769231-78.769231v-708.923076c0-43.323077 35.446154-78.769231 78.769231-78.769231h708.923076c43.323077 0 78.769231 35.446154 78.769231 78.769231V738.461538c0 43.323077-35.446154 78.769231-78.769231 78.769231z m39.384616-748.307692c0-43.323077-35.446154-78.769231-78.769231-78.769231H196.923077c-43.323077 0-78.769231 35.446154-78.769231 78.769231V699.076923c0 43.323077 35.446154 78.769231 78.769231 78.769231h630.153846c43.323077 0 78.769231-35.446154 78.769231-78.769231v-630.153846zM866.461538 29.538462h-27.963076L157.538462 710.498462V738.461538h27.963076L866.461538 57.501538V29.538462z"  horiz-adv-x="1024" />

    
    <glyph glyph-name="lijiuTxingjing" unicode="&#59438;" d="M576 730.24V697.6c125.44-25.6 224-124.16 249.6-249.28h32.32c-26.24 142.72-138.88 255.36-281.92 281.92zM166.08 448H198.4c25.6 125.44 124.16 224 249.6 249.28V730.24C304.96 703.68 192.32 591.04 166.08 448zM304 423.04h37.76c31.68-3.84 59.84-17.92 81.28-39.04h177.92c21.44 21.12 49.6 35.2 81.28 39.04h38.08v96h-416v-96zM512 896C229.76 896 0 666.24 0 384h128v32H65.6C81.28 637.44 258.56 814.72 480 830.4V768h64V830.4c221.44-15.68 398.72-192.96 414.4-414.4H896v-32h128c0 282.24-229.76 512-512 512z m0-64zM960 384v-32h-64v32h-290.24c-24.64-22.08-41.6-52.48-45.76-87.36v-133.76h-96v133.12c-3.84 35.2-20.8 65.6-45.76 88H128v-32H64v32H0c0-282.24 229.76-512 512-512s512 229.76 512 512h-64zM448 37.76C304.96 64 192.32 176.96 166.08 320H198.4c25.6-125.44 124.16-224 249.6-249.28v-32.96zM544-64h-64v64h64v-64z m32 101.76V70.4c125.44 25.6 224 124.16 249.6 249.28h32.32c-26.24-142.72-138.88-255.68-281.92-281.92z"  horiz-adv-x="1024" />

    
    <glyph glyph-name="lijiudiyafenzhixiang" unicode="&#59439;" d="M259.2 384v-131.2h73.6c35.2 0 60.8 6.4 73.6 22.4 9.6 9.6 16 25.6 19.2 41.6 6.4 19.2 9.6 38.4 9.6 60.8v3.2H259.2zM867.2 342.4h-179.2V160h-105.6v224h-28.8v-6.4c0-38.4-6.4-76.8-16-108.8-12.8-35.2-32-64-57.6-80-16-9.6-35.2-19.2-57.6-22.4-19.2-3.2-48-6.4-89.6-6.4H144v224H0c0-281.6 230.4-512 512-512s512 230.4 512 512h-156.8v-41.6zM512 896C230.4 896 0 665.6 0 384h64C64 630.4 265.6 832 512 832s448-201.6 448-448h64c0 281.6-230.4 512-512 512zM582.4 384h284.8v51.2h-179.2v80H896V608h-313.6zM534.4 489.6c-16 44.8-48 80-96 96-25.6 9.6-60.8 12.8-105.6 12.8H144V384h115.2v121.6h73.6c32 0 54.4-6.4 70.4-19.2 9.6-9.6 19.2-22.4 22.4-41.6 6.4-19.2 9.6-38.4 9.6-60.8h118.4c0 38.4-6.4 73.6-19.2 105.6z"  horiz-adv-x="1024" />

    
    <glyph glyph-name="lijiumenxingzhijia" unicode="&#59440;" d="M480 384H224v-512h576v256H480v256zM416-64H288v128h128v-128zM224 896v-512h64V672h128v-288h64V672h320V896H224z m192-160H288V832h128v-96z m320 0H480V832h256v-96z"  horiz-adv-x="1024" />

    
    <glyph glyph-name="lijiuhuanwangxiang" unicode="&#59441;" d="M790.4 604.8h-140.8l-64-208h102.4l28.8 99.2 32-99.2h102.4zM396.8 457.6H256V604.8H156.8v-208h339.2V604.8h-99.2zM512 896C233.6 896 6.4 672 0 396.8h64C70.4 636.8 268.8 832 512 832s441.6-195.2 448-435.2h64C1017.6 672 790.4 896 512 896zM851.2 396.8l64-208h-105.6l-19.2 67.2h-147.2l-19.2-67.2h-99.2l64 208h-89.6v-208h-99.2v169.6H256v-169.6H156.8v208H0v-12.8c0-281.6 230.4-512 512-512s512 230.4 512 512v12.8h-172.8zM688 396.8l-16-51.2h89.6l-12.8 51.2z"  horiz-adv-x="1024" />

    
    <glyph glyph-name="lijiugaoyafenzhixiang" unicode="&#59442;" d="M249.6 384c0-22.4 3.2-44.8 6.4-64 6.4-19.2 12.8-32 19.2-41.6 6.4-9.6 16-12.8 28.8-16 12.8-3.2 28.8-6.4 48-6.4h70.4v80H310.4V384H249.6zM864 384v-41.6h-179.2V160h-105.6v224h-41.6v-224h-198.4c-32 0-60.8 3.2-80 6.4-19.2 6.4-38.4 12.8-54.4 28.8-44.8 35.2-70.4 96-70.4 182.4V384H0c0-281.6 230.4-512 512-512s512 230.4 512 512h-160zM512 896C230.4 896 0 665.6 0 384h64C64 630.4 265.6 832 512 832s448-201.6 448-448h64c0 281.6-230.4 512-512 512zM576 384h284.8v51.2h-179.2v80h208V608H576zM307.2 428.8h224V384h-224zM230.4 579.2c-28.8-12.8-51.2-35.2-67.2-60.8-22.4-35.2-32-80-32-134.4h118.4v3.2c0 48 9.6 80 28.8 96 16 16 41.6 22.4 73.6 22.4h182.4V598.4h-192c-44.8 0-83.2-6.4-112-19.2z"  horiz-adv-x="1024" />

    
    <glyph glyph-name="chaichu" unicode="&#59443;" d="M512 896C229.612308 896 0 666.387692 0 384s229.612308-512 512-512 512 229.612308 512 512S794.387692 896 512 896zM39.384615 384c0 123.273846 47.655385 235.52 125.243077 319.409231l667.175385-667.175385A472.379077 472.379077 0 0 0 512-88.615385C250.88-88.615385 39.384615 122.88 39.384615 384z m819.987693-319.409231L192.590769 731.372308C276.48 808.96 388.726154 856.615385 512 856.615385c261.12 0 472.615385-211.495385 472.615385-472.615385 0-123.273846-47.655385-235.52-125.243077-319.409231z"  horiz-adv-x="1024" />

    
    <glyph glyph-name="lijiubianyaqi" unicode="&#59444;" d="M384.64 384c0-75.52 26.56-151.04 79.68-211.2a256.48 256.48 0 0 0-325.44 30.4A254.624 254.624 0 0 0 64 384H0c0-81.92 31.04-163.84 93.44-226.24a318.784 318.784 0 0 1 226.24-93.44c67.84 0 135.36 21.76 192 64.32a319.424 319.424 0 0 1 192-64.32c81.92 0 163.84 31.04 226.24 93.44A318.112 318.112 0 0 1 1024 384H384.64zM183.04 384h20.16v-127.04h-20.16zM165.44 384c-8-20.16-17.6-38.72-27.2-50.88 3.84-5.12 9.28-14.08 11.2-19.84 11.84 16.64 23.36 42.88 32.32 70.72h-16.32zM328.32 357.12h53.76v18.56h-53.76V384h-21.44v-8.32H249.6v-18.56h57.28v-72.64H234.88v-19.2h159.04v19.2h-65.6zM231.68 384h-19.84c6.4-10.88 12.48-21.76 15.68-28.48l12.8 15.04c-1.28 2.88-4.8 7.68-8.64 13.44zM203.2 423.04v14.72h35.2v19.52h-35.2v53.76h-20.16v-53.76H143.04v-19.52h39.04c-3.84-17.6-9.6-36.16-16.64-53.76h16c0.64 1.6 1.28 3.2 1.6 5.12V384h20.16v14.4c2.88-4.48 5.76-9.6 8.64-14.4h19.52c-8.96 13.12-21.76 31.04-28.16 39.04zM313.92 510.72l-18.56-6.4c8-14.08 16.32-32.96 19.52-44.16l19.84 7.36c-3.52 11.2-12.16 29.44-20.8 43.2zM244.16 439.36h62.72V384h21.44v55.36h60.8v19.2H244.16zM512 639.68c-125.12 94.08-304.32 84.8-418.24-29.44A319.136 319.136 0 0 1 0 384h64c0 65.6 24.96 131.2 74.88 181.12S254.4 640 320 640c50.56 0 100.8-15.04 144.32-44.48a318.4 318.4 0 0 1-79.68-211.2h64c0 60.48 21.12 120.64 63.68 168.96 41.28-46.72 64-105.92 64-168.96h64c0 78.72-28.48 152.96-80.32 211.2A255.552 255.552 0 0 0 704 640c65.6 0 131.2-24.96 181.12-74.88S960 449.6 960 384h64c0 81.92-31.04 163.84-93.44 226.24-114.24 114.24-293.12 123.52-418.56 29.44z"  horiz-adv-x="1024" />

    
    <glyph glyph-name="lijiupeidianshi" unicode="&#59445;" d="M777.6 364.79999999999995c-9.6-16-19.2-32-32-44.8-38.4-38.4-92.8-57.6-169.6-57.6h-102.4v-214.4h-150.4v313.6H0C12.8 89.60000000000002 236.8-128 512-128s499.2 217.6 512 492.8h-246.4zM512 896C230.4 896 0 665.6 0 384v-19.2h64V384C64 630.4 265.6 832 512 832s448-201.6 448-448v-19.2h64V384c0 281.6-230.4 512-512 512zM598.4 678.4h-275.2v-313.6h454.4c16 32 25.6 67.2 25.6 112 0 64-16 115.2-51.2 150.4-35.2 32-86.4 51.2-153.6 51.2zM608 416c-16-12.8-41.6-19.2-76.8-19.2h-54.4V544h64c35.2 0 57.6-6.4 70.4-22.4 12.8-16 19.2-32 19.2-51.2 0-22.4-9.6-38.4-22.4-54.4z"  horiz-adv-x="1024" />

    
    <glyph glyph-name="lijiuhuanwangshi" unicode="&#59446;" d="M730.517134 350.504673h-76.560748v-82.94081H733.707165c22.330218 0 38.280374 3.190031 47.850467 12.760125 9.570093 6.380062 12.760125 19.140187 12.760125 31.900311s-3.190031 22.330218-12.760125 28.71028c-12.760125 6.380062-28.71028 9.570093-51.040498 9.570094zM819.838006 398.35514c28.71028-6.380062 51.040498-19.140187 66.990654-38.280374 12.760125-15.950156 22.330218-38.280374 22.330219-66.990654 0-22.330218-6.380062-41.470405-15.950156-57.420561s-22.330218-31.900312-41.470405-41.470405c-9.570093-6.380062-25.520249-9.570093-47.850468-12.760124-28.71028-3.190031-47.850467-6.380062-57.42056-6.380062h-191.401869v220.112149h-54.23053v-220.112149h-98.890966v169.071651H258.392523v-169.071651h-95.700934v220.112149H0v-12.760125c0-280.722741 229.682243-510.404984 510.404984-510.404984s510.404984 229.682243 510.404985 510.404984v12.760125h-200.971963zM510.404984 896C232.872274 896 6.380062 675.88785 0 398.35514h63.800623C70.180685 637.607477 267.962617 832.199377 510.404984 832.199377s440.224299-194.5919 446.604362-433.844237h63.800623C1014.429907 675.88785 787.937695 896 510.404984 896zM762.417445 592.94704h-210.542056v-194.5919h264.772586c19.140187 6.380062 35.090343 15.950156 44.660436 28.710281 15.950156 15.950156 22.330218 38.280374 22.330218 63.800623 0 28.71028-9.570093 54.23053-31.900311 73.370716-19.140187 19.140187-51.040498 28.71028-89.320873 28.71028z m0-153.121495c-6.380062-6.380062-22.330218-9.570093-41.470405-9.570093h-66.990654v79.750779h70.180686c19.140187 0 31.900312-3.190031 41.470405-9.570094 6.380062-6.380062 12.760125-15.950156 12.760124-28.71028-6.380062-12.760125-9.570093-25.520249-15.950156-31.900312zM398.753894 449.395639H258.392523V592.94704h-95.700934v-194.5919h334.953271V592.94704h-98.890966z"  horiz-adv-x="1024" />

    
    <glyph glyph-name="lijiutieta" unicode="&#59447;" d="M385.92 512l127.36-76.8 127.36 76.8-76.48-128h-102.08l-76.16 128zM928 384V672h-82.56L736 562.88V384h-32v160c0 17.6-14.4 32-32 32H352c-17.6 0-32-14.4-32-32v-160H288v178.88L178.88 672H96.32v-288h-32V736c0 53.12 42.88 96 96 96H864c53.12 0 96-42.88 96-96v-352h-32zM800 800H224v-82.88L333.44 608h357.44L800 717.12V800zM669.44 192h-318.72c-17.6 0-32 14.4-32 32v160h140.16l-76.48-128 127.36 76.8 127.36-76.8-76.48 128h140.16v-160c0.64-17.6-13.76-32-31.36-32zM287.68 384v-178.88L178.56 96H95.68v-128h128v82.88L333.12 160h357.76l109.44-109.12V-32h128v128h-82.88L736 205.12V384h224.32v-352c0-53.12-42.88-96-96-96H159.68c-53.12 0-96 42.88-96 96V384h224z"  horiz-adv-x="1024" />

    
    <glyph glyph-name="lijiuzhilujing" unicode="&#59448;" d="M576 730.24V697.6c125.44-25.6 224-124.16 249.6-249.28h32.32c-26.24 142.72-138.88 255.36-281.92 281.92zM166.08 448H198.4c25.6 125.44 124.16 224 249.6 249.28V730.24C304.96 703.68 192.32 591.04 166.08 448zM512 896C229.76 896 0 666.24 0 384h128v32H65.6C81.28 637.44 258.56 814.72 480 830.4V768h64V830.4c221.44-15.68 398.72-192.96 414.4-414.4H896v-32h128c0 282.24-229.76 512-512 512z m0-64zM464 560h96V384h-96zM960 352h-64v32H560v-208h-96V384H128v-32H64v32H0c0-282.24 229.76-512 512-512s512 229.76 512 512h-64v-32z m-512-314.24C304.96 64 192.32 176.96 166.08 320H198.4c25.6-125.44 124.16-224 249.6-249.28v-32.96zM544-64h-64v64h64v-64z m32 101.76V70.4c125.44 25.6 224 124.16 249.6 249.28h32.32c-26.24-142.72-138.88-255.68-281.92-281.92z"  horiz-adv-x="1024" />

    
    <glyph glyph-name="lijiukaiguanzhan" unicode="&#59449;" d="M668.8 377.6l121.6-246.4h-156.8l-105.6 208-76.8-83.2v-160H294.4v281.6H0C3.2 99.20000000000005 230.4-128 512-128s508.8 227.2 512 505.6H668.8zM512 896C230.4 896 0 665.6 0 384v-6.4h64V384C64 630.4 265.6 832 512 832s448-201.6 448-448v-6.4h64V384c0 281.6-230.4 512-512 512zM611.2 633.6l-160-188.8V672H294.4v-294.4h374.4l-32 67.2 147.2 188.8z"  horiz-adv-x="1024" />

    
    <glyph glyph-name="lijiuzhushangbileiqi" unicode="&#59450;" d="M800 128v-64H224v64h256v64H288V832h192v-160.32h-64l96-383.36v0.32V256h160V768h-128v-96h-32V832h-32V896h64v-64h192v-640h-192v-64h256z m-288 160.64V671.68h95.68L512 288.64zM704-32H320v64h384v-64z m-96-96h-192v64h192v-64z"  horiz-adv-x="1024" />

    
    <glyph glyph-name="lijiuzhongjianzhijia" unicode="&#59451;" d="M384 384v-512h256V384H384z m192-448H448v128h128v-128zM384 384h64V672h128v-288h64V896H384v-512zM448 832h128v-96H448V832z"  horiz-adv-x="1024" />

    
    <glyph glyph-name="icon_qitabianyaqi" unicode="&#59452;" d="M201.6 422.4v16h35.2v19.2H201.6V512h-19.2v-54.4H144v-19.2h38.4c-9.6-38.4-25.6-83.2-44.8-105.6 3.2-6.4 9.6-12.8 9.6-19.2 12.8 16 25.6 44.8 35.2 76.8V256h19.2v140.8c9.6-16 19.2-32 25.6-41.6l12.8 16c-6.4 6.4-28.8 41.6-38.4 51.2zM336 467.2c-3.2 12.8-12.8 28.8-22.4 44.8l-19.2-6.4c9.6-12.8 16-32 19.2-44.8l22.4 6.4zM931.2 611.2C816 726.4 636.8 732.8 512 640c-124.8 92.8-304 86.4-419.2-28.8-124.8-124.8-124.8-329.6 0-454.4 64-64 144-92.8 227.2-92.8 67.2 0 134.4 22.4 192 64 57.6-41.6 124.8-64 192-64 83.2 0 163.2 32 227.2 92.8 124.8 124.8 124.8 329.6 0 454.4zM137.6 201.60000000000002c-99.2 99.2-99.2 262.4 0 361.6C188.8 614.4 252.8 640 320 640c51.2 0 102.4-16 144-44.8-41.6-44.8-64-99.2-73.6-156.8v19.2H243.2v-19.2h64v-64H249.6v-19.2h57.6v-73.6H233.6v-19.2h160v19.2h-67.2v73.6h54.4v19.2h-54.4v64h60.8c-16-92.8 9.6-192 73.6-265.6-96-67.2-233.6-57.6-323.2 28.8z m630.4-28.8h-96v92.8h96v-92.8z m25.6 198.4c-19.2-16-25.6-28.8-25.6-44.8v-25.6h-92.8v32c-3.2 35.2 6.4 64 41.6 86.4 22.4 16 32 32 32 48 0 25.6-12.8 28.8-25.6 28.8-35.2 0-44.8-19.2-48-51.2l-3.2-12.8h-89.6l3.2 16c12.8 83.2 54.4 137.6 144 137.6 86.4 0 121.6-60.8 121.6-115.2 3.2-35.2-16-67.2-57.6-99.2z"  horiz-adv-x="1024" />

    
    <glyph glyph-name="lijiuzhushangrongduanqi" unicode="&#59453;" d="M416 608h64v-448h-64zM736 864H288c-35.2 0-64-28.8-64-64v-832c0-35.2 28.8-64 64-64h448c35.2 0 64 28.8 64 64V800c0 35.2-28.8 64-64 64z m-224-928h-32v160h-128V672h128V832h32v-896z m32 672h64v-448h-64V608z m192-640h-192v128h128V672h-128V800h192v-832z"  horiz-adv-x="1024" />

    
    <glyph glyph-name="lijiusitongjing" unicode="&#59454;" d="M576 730.24V697.6c125.44-25.6 224-124.16 249.6-249.28h32.32c-26.24 142.72-138.88 255.36-281.92 281.92zM166.08 448H198.4c25.6 125.44 124.16 224 249.6 249.28V730.24C304.96 703.68 192.32 591.04 166.08 448zM547.2 605.76V611.2h-70.4v-5.44a213.76 213.76 0 0 0-186.56-186.56H284.8V384h454.4v35.2h-5.44a213.76 213.76 0 0 0-186.56 186.56zM512 896C229.76 896 0 666.24 0 384h128v32H65.6C81.28 637.44 258.56 814.72 480 830.4V768h64V830.4c221.44-15.68 398.72-192.96 414.4-414.4H896v-32h128c0 282.24-229.76 512-512 512z m0-64zM960 384v-32h-64v32h-156.8v-34.88h-5.44a213.44 213.44 0 0 1-186.56-186.56v-5.44h-70.4v5.44a213.76 213.76 0 0 1-186.56 186.56H284.8V384H128v-32H64v32H0c0-282.24 229.76-512 512-512s512 229.76 512 512h-64zM448 37.76C304.96 64 192.32 176.96 166.08 320H198.4c25.6-125.44 124.16-224 249.6-249.28v-32.96zM544-64h-64v64h64v-64z m32 101.76V70.4c125.44 25.6 224 124.16 249.6 249.28h32.32c-26.24-142.72-138.88-255.68-281.92-281.92z"  horiz-adv-x="1024" />

    
    <glyph glyph-name="lijiuxiangbian" unicode="&#59455;" d="M780.8 339.20000000000005c-12.8 9.6-25.6 12.8-41.6 12.8h-86.4v-99.2h92.8c12.8 0 25.6 3.2 38.4 12.8 12.8 9.6 16 22.4 16 38.4s-6.4 28.8-19.2 35.2zM838.4 390.4c6.4-3.2 16-6.4 22.4-12.8 9.6-6.4 19.2-16 28.8-25.6 12.8-19.2 19.2-41.6 19.2-64 0-16-3.2-28.8-6.4-41.6-6.4-16-16-32-28.8-44.8-12.8-12.8-28.8-19.2-48-25.6-22.4-6.4-41.6-9.6-64-9.6h-208v224h-140.8l124.8-220.8h-118.4l-83.2 160-83.2-160H134.4l124.8 220.8H0v-6.4c0-281.6 230.4-512 512-512s512 230.4 512 512v6.4h-185.6zM512 896C230.4 896 3.2 668.8 0 390.4h64C67.2 633.6 265.6 832 512 832s444.8-198.4 448-441.6h64C1020.8 668.8 793.6 896 512 896zM336 451.2L262.4 601.6H147.2l112-211.2h153.6l115.2 211.2h-115.2zM809.6 592c-22.4 6.4-44.8 9.6-64 9.6h-188.8v-211.2h284.8c-6.4 3.2-9.6 3.2-16 6.4v3.2c19.2 6.4 35.2 16 48 32 12.8 19.2 22.4 38.4 22.4 60.8 0 32-12.8 57.6-35.2 76.8-16 9.6-32 16-51.2 22.4z m-38.4-153.6c-9.6-9.6-22.4-12.8-38.4-12.8h-76.8v89.6H736c12.8 0 25.6-3.2 38.4-12.8 9.6-9.6 12.8-19.2 12.8-28.8-3.2-16-6.4-25.6-16-35.2z"  horiz-adv-x="1024" />

    


  </font>
</defs>
</svg>
